<svg width="20" height="21" viewBox="0 0 20 21" fill="none" xmlns="http://www.w3.org/2000/svg">
<path d="M6.78735 0.5351C8.95958 -0.18898 11.3951 -0.188979 13.5674 0.600925C14.7522 1.0617 15.8712 1.71996 16.7928 2.64151C16.4637 2.97064 16.1345 3.29977 15.8054 3.62889C15.213 4.22132 14.5547 4.87957 13.9623 5.472C13.3699 4.87957 12.58 4.4188 11.7901 4.22132C10.8685 3.95802 9.81531 3.89219 8.82793 4.08967C7.7089 4.35297 6.6557 4.9454 5.79997 5.7353C5.14171 6.39356 4.61511 7.24929 4.35181 8.10502C3.23278 7.24929 2.17958 6.39356 1.06055 5.53783C2.2454 3.23394 4.35181 1.39083 6.78735 0.5351Z" fill="#EA4335"/>
<path d="M0.204982 8.10503C0.402457 7.2493 0.665758 6.39357 1.06071 5.53784C2.17974 6.39357 3.23294 7.2493 4.35197 8.10503C3.8912 9.35571 3.8912 10.738 4.35197 12.0546C3.23294 12.9103 2.17974 13.766 1.06071 14.6217C0.0733311 12.5812 -0.255795 10.2773 0.204982 8.10503Z" fill="#FBBC05"/>
<path d="M10.0791 8.1709C13.2387 8.1709 16.3983 8.1709 19.5579 8.1709C19.8871 9.94818 19.8212 11.7913 19.2946 13.5028C18.8339 15.0826 17.9781 16.5307 16.7275 17.7156C15.6742 16.8598 14.621 16.0699 13.502 15.2142C14.5552 14.4901 15.2793 13.3711 15.5426 12.1204C13.6995 12.1204 11.8564 12.1204 10.0791 12.1204C10.0791 10.8039 10.0791 9.48741 10.0791 8.1709Z" fill="#4285F4"/>
<path d="M1.06055 14.6219C2.17958 13.7661 3.23278 12.9104 4.35181 12.0547C4.74676 13.3054 5.60249 14.4244 6.6557 15.1485C7.31395 15.6093 8.10385 15.9384 8.89376 16.1359C9.68366 16.2675 10.4736 16.2675 11.3293 16.1359C12.1192 16.0042 12.9091 15.6751 13.5674 15.2801C14.6206 16.1359 15.6738 16.9258 16.7928 17.7815C15.6079 18.8347 14.2256 19.5588 12.6458 19.9537C10.9343 20.3487 9.15706 20.3487 7.51143 19.8879C6.19492 19.5588 4.94424 18.9005 3.82521 18.0448C2.70618 17.0574 1.7188 15.8726 1.06055 14.6219Z" fill="#34A853"/>
</svg>
