<svg width="60" height="60" viewBox="0 0 60 60" fill="none" xmlns="http://www.w3.org/2000/svg">
<circle cx="30" cy="30" r="30" fill="#FF6961"/>
<g clip-path="url(#clip0_128:1085)">
<path d="M16.9275 26.928C17.6015 26.254 18.792 25.551 21.0017 24.9254C23.6923 24.1682 25.9183 23.7273 29.343 23.7228C32.6482 23.7218 34.5223 23.987 37.6971 24.9099C41.2823 25.9512 42.2781 27.3806 42.5539 28.1412C42.8847 29.0493 42.8291 29.8458 42.6461 30.7642C42.5383 31.282 42.3829 31.7886 42.1821 32.2779C42.1624 32.3272 42.1444 32.3735 42.1286 32.4149C42.0347 32.6628 41.8921 33.0381 41.4398 33.2419C41.1387 33.3786 40.7751 33.4059 40.1671 33.4097C38.921 33.4183 36.6858 32.8976 35.6928 32.5372C35.0244 32.2934 34.5828 32.1329 34.2447 31.7955C33.8494 31.4002 33.7434 30.8965 33.6557 30.3261C33.6391 30.219 33.625 30.1151 33.6112 30.0143C33.5287 29.4063 33.4865 29.2488 33.2704 29.1087C32.8354 28.8276 31.1953 28.336 29.3102 28.338C27.425 28.3401 25.852 28.8373 25.4159 29.1201C25.1905 29.2661 25.1487 29.428 25.0644 30.0564C25.0524 30.1465 25.0403 30.2394 25.0258 30.3347C24.9315 30.9766 24.8345 31.461 24.4485 31.847L24.4464 31.8491C24.1105 32.185 23.6772 32.3269 22.9604 32.5631C22.0254 32.871 19.7598 33.4442 18.5092 33.4387C17.9012 33.4362 17.5376 33.4103 17.2365 33.2743C16.7832 33.0696 16.6423 32.6946 16.546 32.4457C16.5301 32.4042 16.5129 32.3587 16.4928 32.3089C16.2937 31.8192 16.1401 31.3122 16.034 30.7943C15.852 29.8783 15.7989 29.0814 16.1307 28.1716C16.2987 27.7021 16.5711 27.2768 16.9275 26.928Z" fill="white"/>
</g>
<defs>
<clipPath id="clip0_128:1085">
<rect width="25" height="25" fill="white" transform="translate(47 30) rotate(135)"/>
</clipPath>
</defs>
</svg>
