<svg width="60" height="60" viewBox="0 0 60 60" fill="none" xmlns="http://www.w3.org/2000/svg">
<circle cx="30" cy="30" r="30" fill="white"/>
<path d="M39.0938 37.5312L22.6875 21.125" stroke="#0C3C5C" stroke-miterlimit="10" stroke-linecap="square"/>
<path d="M35.9687 27.375V29.7188C35.9689 30.1371 35.9209 30.5541 35.8257 30.9614L37.0747 32.209C37.3773 31.4136 37.532 30.5697 37.5312 29.7188V27.375H35.9687Z" fill="#0C3C5C"/>
<path d="M31.2812 39.0938V36.7065C32.2577 36.5979 33.2002 36.2846 34.0474 35.7871L32.8926 34.6333C32.0589 35.037 31.1364 35.2226 30.2115 35.1727C29.2866 35.1228 28.3894 34.8391 27.604 34.3481C26.8186 33.8571 26.1706 33.1749 25.7206 32.3652C25.2707 31.5556 25.0335 30.645 25.0312 29.7188V27.375H23.4688V29.7188C23.4688 33.332 26.208 36.3164 29.7188 36.7065V39.0938H26.5938V40.6562H34.4062V39.0938H31.2812Z" fill="#0C3C5C"/>
<path d="M34.4062 29.5415V24.25C34.4062 22.0596 32.6904 20.3438 30.5 20.3438C29.8195 20.3413 29.1502 20.5174 28.559 20.8545C27.9678 21.1916 27.4754 21.6778 27.1309 22.2647" fill="#0C3C5C"/>
<path d="M26.5938 28.334V29.6704C26.5945 30.7112 27.0059 31.7097 27.7388 32.4487C28.2386 32.9683 28.8748 33.3365 29.5744 33.5111C30.2739 33.6856 31.0085 33.6594 31.6938 33.4355L26.5938 28.334Z" fill="#0C3C5C"/>
</svg>
