<svg width="60" height="60" viewBox="0 0 60 60" fill="none" xmlns="http://www.w3.org/2000/svg">
<circle cx="30" cy="30" r="30" fill="#52BD8A"/>
<path d="M37.0919 41.437C36.1388 41.437 34.7999 41.0923 32.795 39.9722C30.357 38.605 28.4713 37.3428 26.0465 34.9244C23.7086 32.5879 22.5709 31.0752 20.9786 28.1778C19.1798 24.9063 19.4864 23.1914 19.8292 22.4585C20.2374 21.5826 20.8399 21.0586 21.6187 20.5386C22.0611 20.2488 22.5292 20.0003 23.0172 19.7964C23.066 19.7754 23.1114 19.7554 23.1519 19.7373C23.3936 19.6285 23.7599 19.4639 24.2237 19.6397C24.5333 19.7559 24.8097 19.9937 25.2423 20.4209C26.1295 21.2959 27.3419 23.2447 27.7892 24.2017C28.0894 24.8467 28.2882 25.2725 28.2887 25.75C28.2887 26.3091 28.0074 26.7403 27.6661 27.2056C27.6021 27.293 27.5387 27.3765 27.4771 27.4576C27.1056 27.9458 27.024 28.0869 27.0777 28.3389C27.1866 28.8453 27.9986 30.3526 29.3331 31.6841C30.6676 33.0157 32.1314 33.7764 32.6397 33.8848C32.9024 33.941 33.0465 33.856 33.5504 33.4712C33.6226 33.416 33.6969 33.3589 33.7745 33.3018C34.295 32.9146 34.7061 32.6407 35.252 32.6407H35.255C35.7301 32.6407 36.1368 32.8467 36.8106 33.1866C37.6895 33.6299 39.6969 34.8267 40.5772 35.7149C41.0055 36.1465 41.2442 36.4219 41.3609 36.731C41.5367 37.1963 41.3712 37.5611 41.2633 37.8052C41.2452 37.8457 41.2252 37.8902 41.2042 37.9395C40.9987 38.4266 40.7487 38.8937 40.4576 39.335C39.9386 40.1114 39.4127 40.7124 38.5348 41.1211C38.0839 41.3344 37.5906 41.4424 37.0919 41.437Z" fill="white"/>
</svg>
