<svg width="35" height="35" viewBox="0 0 35 35" fill="none" xmlns="http://www.w3.org/2000/svg">
<circle cx="17.5" cy="17.5" r="17.5" fill="white"/>
<path d="M18.8436 17.75C20.6479 17.75 22.2421 16.0509 22.3983 13.9622C22.4759 12.9129 22.1467 11.9343 21.4713 11.2073C20.8031 10.4892 19.869 10.0938 18.8436 10.0938C17.81 10.0938 16.8752 10.4868 16.2118 11.2005C15.5408 11.922 15.2137 12.9026 15.2889 13.9615C15.4424 16.0506 17.0362 17.75 18.8436 17.75Z" fill="#0C3C5C"/>
<path d="M25.932 24.0309C25.6435 22.4306 24.7428 21.0863 23.3278 20.1429C22.071 19.3052 20.4786 18.8438 18.8438 18.8438C17.209 18.8438 15.6165 19.3052 14.3597 20.1426C12.9447 21.0859 12.0441 22.4302 11.7556 24.0305C11.6896 24.3973 11.7792 24.7599 12.0013 25.0255C12.1021 25.1465 12.2286 25.2435 12.3717 25.3094C12.5147 25.3753 12.6707 25.4084 12.8281 25.4062H24.8594C25.017 25.4085 25.173 25.3755 25.3162 25.3097C25.4594 25.2439 25.586 25.1469 25.6869 25.0258C25.9084 24.7603 25.9979 24.3976 25.932 24.0309Z" fill="#0C3C5C"/>
<path d="M12.5547 18.8438V17.4766H13.9219C14.0669 17.4766 14.206 17.4189 14.3086 17.3164C14.4111 17.2138 14.4688 17.0747 14.4688 16.9297C14.4688 16.7846 14.4111 16.6455 14.3086 16.543C14.206 16.4404 14.0669 16.3828 13.9219 16.3828H12.5547V15.0156C12.5547 14.8706 12.4971 14.7315 12.3945 14.6289C12.292 14.5264 12.1529 14.4688 12.0078 14.4688C11.8628 14.4688 11.7237 14.5264 11.6211 14.6289C11.5186 14.7315 11.4609 14.8706 11.4609 15.0156V16.3828H10.0938C9.94871 16.3828 9.80961 16.4404 9.70705 16.543C9.60449 16.6455 9.54688 16.7846 9.54688 16.9297C9.54688 17.0747 9.60449 17.2138 9.70705 17.3164C9.80961 17.4189 9.94871 17.4766 10.0938 17.4766H11.4609V18.8438C11.4609 18.9888 11.5186 19.1279 11.6211 19.2304C11.7237 19.333 11.8628 19.3906 12.0078 19.3906C12.1529 19.3906 12.292 19.333 12.3945 19.2304C12.4971 19.1279 12.5547 18.9888 12.5547 18.8438Z" fill="#0C3C5C"/>
</svg>
