<svg width="375" height="99" viewBox="0 0 375 99" fill="none" xmlns="http://www.w3.org/2000/svg">
<path d="M175.203 27.0464L186.201 28.0957V61.1933H175.203V27.0464Z" fill="#9EE4E5"/>
<path d="M257.488 39.2555L269.852 44.574V94.5352H257.488V39.2555Z" fill="#387475"/>
<path d="M213.633 39.2555V123.553H257.488V39.2555H213.633ZM226.324 79.6979H219.722V75.0743H226.324V79.6979ZM226.324 64.802H219.722V60.1785H226.324V64.802ZM226.324 49.9062H219.722V45.2826H226.324V49.9062Z" fill="#27A9AD"/>
<path d="M20.2074 78.7931H0V99.0005H20.2074V78.7931Z" fill="#27A9AD"/>
<path d="M20.2075 52.6687V99.0005H65.0739V52.6687H20.2075ZM38.313 86.2169H27.0878V82.0956H38.313V86.2169ZM38.313 74.9677H27.0878V70.8464H38.313V74.9677ZM38.313 63.715H27.0878V59.5937H38.313V63.715Z" fill="#F6B921"/>
<path d="M47.3665 123.552H92.2329V77.2198H47.3665L47.3665 123.552Z" fill="#27A9AD"/>
<path d="M137.589 27.0464V123.553H175.203V27.0464H137.589ZM154.009 86.2169H142.783V82.0956H154.009V86.2169ZM154.009 74.9677H142.783V70.8464H154.009V74.9677ZM154.009 59.6074V63.715V63.7287H142.783V63.715V59.6074V59.5937H154.009V59.6074ZM154.009 52.4794H142.783V48.3581H154.009V52.4794ZM154.009 41.2267H142.783V37.1054H154.009V41.2267Z" fill="#D1F1F0"/>
<path d="M195.318 123.55H213.634V61.1943H195.318V123.55Z" fill="#9CDEBB"/>
<path d="M261.723 54.6777H231.395V136.684H261.723V54.6777Z" fill="#F6B921"/>
<path d="M261.726 136.684H284.717V59.5661L261.726 54.6777V136.684Z" fill="#FA8623"/>
<path d="M261.723 136.685H338.449V73.9055H261.723V136.685Z" fill="#B75F5E"/>
<path d="M375 136.684H330.798V55.9815L346.113 44.4604H375V136.684Z" fill="#5CBE8B"/>
<path d="M80.1037 52.6687H65.0737V77.1659H80.1037V52.6687Z" fill="#FA8623"/>
<path d="M92.2305 68.9474V123.553H137.585V68.9474H92.2305ZM109.036 100.559H97.8104V96.4376H109.036V100.559ZM109.036 89.3062H97.8104V85.1849H109.036V89.3062ZM109.036 78.0569H97.8104V73.9356H109.036V78.0569Z" fill="#1F9FE5"/>
<path d="M175.203 61.1933V123.549H195.318V61.1933H175.203ZM184.608 90.8543H178.007V88.0058H184.608V90.8543ZM184.608 82.9075H178.007V80.0591H184.608V82.9075ZM184.608 75.1363H178.007V72.2878H184.608V75.1363ZM184.608 67.365H178.007V64.5165H184.608V67.365Z" fill="#5CBE8B"/>
<path d="M95.4917 24.4767C95.4917 24.4767 97.7175 24.315 100.38 25.7805C103.043 27.246 103.748 28.715 103.748 28.715C103.748 28.715 100.053 31.1781 96.0903 30.9235C92.1238 30.669 90.1147 24.9102 95.4917 24.4767Z" fill="#D1F1F0"/>
<path d="M95.165 29.692C93.4277 28.2781 95.4918 24.4767 95.4918 24.4767H90.3006C88.8351 24.4767 87.4384 25.1028 86.4614 26.2002L85.3846 27.4111H76.9116C76.9116 27.4111 74.1973 22.1959 72.5667 24.4767L73.7604 27.6279V30.5623H76.8015L77.6718 29.692H84.9512C84.9512 29.692 87.8856 33.6034 89.1894 34.1469C90.4933 34.6905 91.5803 34.6905 91.5803 34.6905V36.7546H88.811C88.4808 36.7546 88.2124 37.0229 88.2124 37.3532C88.2124 37.6834 88.4808 37.9518 88.811 37.9518H103.349C103.69 37.9518 103.968 37.6765 103.968 37.3325C103.968 36.9919 103.693 36.7168 103.356 36.7133L101.254 36.6995V34.3637C101.254 34.3637 104.188 32.6264 104.405 31.2125C104.622 29.7986 103.755 28.715 103.755 28.715C103.755 28.715 96.9022 31.1024 95.165 29.692ZM99.9674 36.7512H92.7397V34.7593H99.9674V36.7512Z" fill="#B85D5D"/>
<path d="M107.471 21.3118L93.8476 22.8358C93.7857 22.8426 93.7238 22.8426 93.6618 22.8323L82.4435 21.329C81.9894 21.2671 81.5869 21.6214 81.5869 22.079C81.5869 22.4539 81.8656 22.7739 82.2371 22.8289L93.765 24.463C93.827 24.4733 93.8923 24.4733 93.9542 24.4664L107.636 22.9218C108.018 22.877 108.307 22.5537 108.307 22.1718V22.0652C108.31 21.6111 107.918 21.2602 107.471 21.3118Z" fill="#B85D5D"/>
<path d="M273.643 1.48278L277.41 10.754C277.41 10.754 326.222 6.84253 326.222 5.10526C326.222 3.36799 320.718 3.36799 318.98 2.35314C317.243 1.3383 315.939 -0.254483 312.75 0.0344889C309.565 0.323461 281.318 4.66836 281.318 4.66836C281.318 4.66836 278.136 -0.402423 273.643 1.48278Z" fill="#2795CA"/>
<path d="M296.819 6.98699C296.819 6.98699 286.337 13.334 287.837 15.0988C290.503 18.2259 305.399 10.1313 311.254 6.76682C311.818 6.44344 311.539 5.57651 310.893 5.63844L296.819 6.98699Z" fill="#D1F1F0"/>
<path d="M277.028 9.72534C277.028 9.72534 272.621 12.3915 273.254 13.1345C274.259 14.3145 279.415 11.6897 282.236 10.1175C282.677 9.87328 282.467 9.20244 281.968 9.2506L277.028 9.72534Z" fill="#D1F1F0"/>
<path d="M315.165 2.80033L311.329 3.17534C310.985 3.20974 310.676 2.97234 310.617 2.63177L310.545 2.19831C310.483 1.83365 310.731 1.48965 311.096 1.43461L312.943 1.15598C314.009 0.997729 315.004 1.73045 315.165 2.80033Z" fill="#D1F1F0"/>
<path d="M307.563 3.52275C308.032 3.52275 308.412 3.14232 308.412 2.67304C308.412 2.20375 308.032 1.82333 307.563 1.82333C307.093 1.82333 306.713 2.20375 306.713 2.67304C306.713 3.14232 307.093 3.52275 307.563 3.52275Z" fill="#D1F1F0"/>
<path d="M303.627 4.02502C304.097 4.02502 304.477 3.64459 304.477 3.17531C304.477 2.70602 304.097 2.32556 303.627 2.32556C303.158 2.32556 302.778 2.70602 302.778 3.17531C302.778 3.64459 303.158 4.02502 303.627 4.02502Z" fill="#D1F1F0"/>
</svg>
