<svg width="375" height="160" viewBox="0 0 375 160" fill="none" xmlns="http://www.w3.org/2000/svg">
    <defs>
        <linearGradient id="paint0_linear" x1="199.977" y1="-9.9622" x2="199.977" y2="159.996" gradientUnits="userSpaceOnUse">
            <stop stop-color="#27CBE1"/>
            <stop offset="0.3125" stop-color="#27DDE1" stop-opacity="0.6875"/>
            <stop offset="0.669" stop-color="#27EAE1" stop-opacity="0.331"/>
            <stop offset="1" stop-color="#27EEE1" stop-opacity="0"/>
        </linearGradient>
        <linearGradient id="paint1_linear" x1="309.899" y1="-19.9622" x2="309.899" y2="108.668" gradientUnits="userSpaceOnUse">
            <stop stop-color="#27AAE1"/>
            <stop offset="1" stop-color="#27AAE1" stop-opacity="0"/>
        </linearGradient>
        <linearGradient id="paint2_linear" x1="78.4447" y1="-34.9987" x2="78.4447" y2="132.053" gradientUnits="userSpaceOnUse">
            <stop stop-color="#27AAE1"/>
            <stop offset="1" stop-color="#27AAE1" stop-opacity="0"/>
        </linearGradient>
    </defs>
<path d="M374.921 70.7702V-9.96118H-0.596355V98.6753C-2.15333 103.324 -3 108.299 -3 113.471C-3 139.166 17.8305 159.997 43.5254 159.997C55.1187 159.997 65.7195 155.754 73.8659 148.74C82.0123 155.754 92.613 159.997 104.206 159.997C121.622 159.997 136.798 150.427 144.773 136.262C146.724 136.512 148.712 136.639 150.732 136.639C166.803 136.639 180.964 128.483 189.323 116.094C192.605 118.704 196.759 120.267 201.278 120.267C209.478 120.267 216.477 115.13 219.239 107.903H226.865C233.499 113.376 242 116.665 251.273 116.665C259.742 116.665 267.572 113.918 273.92 109.27C280.116 127.684 297.519 140.948 318.023 140.948C318.305 140.948 318.587 140.942 318.87 140.939C327.336 152.494 341 160 356.424 160C382.119 160 402.949 139.169 402.949 113.475C402.953 94.3468 391.413 77.924 374.921 70.7702Z" fill="url(#paint0_linear)"/>
<path d="M377.524 47.455V-11.9511H309.097C304.625 -16.8726 298.175 -19.9612 291.006 -19.9612C280.024 -19.9612 270.736 -12.7185 267.657 -2.74881C265.53 -5.42516 262.248 -7.14386 258.56 -7.14386C252.145 -7.14386 246.944 -1.94336 246.944 4.47164C246.944 10.8866 252.145 16.0871 258.56 16.0871C262.244 16.0871 265.53 14.3684 267.657 11.6921C268.84 15.5195 270.936 18.9474 273.695 21.7157C273.448 21.7062 273.204 21.6967 272.953 21.6967C265.311 21.6967 258.671 25.9713 255.284 32.2562C253.952 32.1611 252.57 32.1104 251.149 32.1104C240.64 32.1104 232.123 34.8502 232.123 38.2336C232.123 41.6171 240.64 44.3569 251.149 44.3569C251.796 44.3569 252.436 44.3474 253.068 44.3252C254.33 54.184 262.749 61.8071 272.953 61.8071C277.139 61.8071 281.023 60.5228 284.236 58.3317C284.955 71.1807 295.597 81.3819 308.627 81.3819C311.288 81.3819 313.844 80.9506 316.241 80.1642C319.735 96.457 334.214 108.672 351.55 108.672C371.496 108.672 387.665 92.5027 387.665 72.5569C387.672 62.7997 383.806 53.9525 377.524 47.455Z" fill="url(#paint1_linear)"/>
<path d="M162.206 -18.174C161.667 -18.2564 161.131 -18.3072 160.598 -18.3357C156.441 -26.8055 148.336 -33.1603 138.302 -34.6665C125.647 -36.566 113.66 -30.1922 107.829 -19.6009C105.463 -20.511 102.961 -21.1801 100.351 -21.5701C89.3829 -23.2159 78.836 -19.6485 71.2255 -12.7261C67.8262 -15.8274 63.5041 -17.99 58.6112 -18.7226C46.7071 -20.5078 35.5355 -13.2367 32.0886 -2.07779H-10.5681V75.3747H-10.0766C-15.6196 79.7761 -19.1807 86.5717 -19.1807 94.2012C-19.1807 107.475 -8.42135 118.234 4.85261 118.234C8.78786 118.234 12.5011 117.283 15.78 115.606C22.0713 125.493 33.1224 132.054 45.7114 132.054C65.2894 132.054 81.1604 116.183 81.1604 96.6048C92.9027 96.6048 103.053 89.7998 107.889 79.9188C110.603 81.9419 113.968 83.1406 117.611 83.1406C125.704 83.1406 132.417 77.2329 133.673 69.4925C135.734 69.9237 138.027 70.1679 140.443 70.1679C149.433 70.1679 156.72 66.8288 156.72 62.7096C156.72 58.5904 149.433 55.2514 140.443 55.2514C136.663 55.2514 133.188 55.8443 130.426 56.8337C127.445 53.0316 122.815 50.5867 117.611 50.5867C113.968 50.5867 110.603 51.7854 107.889 53.8085C106.833 51.649 105.52 49.6354 103.992 47.8058C115.639 44.7774 125.235 35.9144 128.926 24.0674C129.106 24.0991 129.29 24.1276 129.474 24.1562C140.078 25.748 150.213 21.5306 156.65 13.8884C156.891 13.9359 157.132 13.9803 157.376 14.0152C166.265 15.3502 174.554 9.22377 175.889 0.335361C177.221 -8.54988 171.094 -16.839 162.206 -18.174Z" fill="url(#paint2_linear)"/>

</svg>
