<svg width="60" height="60" viewBox="0 0 60 60" fill="none" xmlns="http://www.w3.org/2000/svg">
<circle cx="30" cy="30" r="30" fill="#45B4E7"/>
<path d="M40.6562 36.77C40.4375 36.7698 40.2213 36.7238 40.0215 36.6347C39.975 36.6141 39.9307 36.5889 39.8892 36.5596L35.8506 33.7168C35.6458 33.5726 35.4786 33.3813 35.3632 33.159C35.2478 32.9367 35.1876 32.6899 35.1875 32.4394V28.5625C35.1876 28.312 35.2478 28.0652 35.3632 27.8429C35.4786 27.6206 35.6458 27.4293 35.8506 27.2851L39.8892 24.4424C39.9307 24.413 39.975 24.3878 40.0215 24.3672C40.2594 24.2614 40.5199 24.2168 40.7795 24.2373C41.039 24.2578 41.2893 24.3429 41.5076 24.4847C41.7259 24.6266 41.9053 24.8207 42.0295 25.0495C42.1537 25.2783 42.2187 25.5346 42.2188 25.7949V35.207C42.2188 35.6214 42.0541 36.0188 41.7611 36.3119C41.4681 36.6049 41.0707 36.7695 40.6562 36.7695V36.77Z" fill="white"/>
<path d="M31.0859 37.5312H22.1016C21.2212 37.5303 20.3772 37.1802 19.7547 36.5578C19.1323 35.9353 18.7822 35.0913 18.7812 34.2109V26.7891C18.7822 25.9087 19.1323 25.0647 19.7547 24.4422C20.3772 23.8198 21.2212 23.4697 22.1016 23.4688H31.1094C31.9834 23.4698 32.8214 23.8175 33.4395 24.4355C34.0575 25.0536 34.4052 25.8916 34.4062 26.7656V34.2109C34.4053 35.0913 34.0552 35.9353 33.4328 36.5578C32.8103 37.1802 31.9663 37.5303 31.0859 37.5312Z" fill="white"/>
</svg>
