<svg width="238" height="180" viewBox="0 0 238 180" fill="none" xmlns="http://www.w3.org/2000/svg">
<path d="M180.636 36.1581C178.978 43.0641 177.777 54.3888 161.874 57.4902C145.971 60.5946 131.993 54.7757 127.348 62.5322C122.699 70.2888 132.009 82.3136 119.597 82.7005C107.185 83.0874 93.6099 60.5916 87.7909 61.7553C81.972 62.9191 77.7068 69.1342 85.4634 82.7066C93.2199 96.276 99.4258 108.166 95.1606 116.96C90.8954 125.755 89.7316 133.52 99.8157 136.619C109.9 139.717 144.718 108.682 155.668 110.628C166.619 112.575 182.433 102 186.698 94.2892C190.963 86.5788 205.555 79.986 202.334 56.7133C199.109 33.4436 182.534 28.248 180.636 36.1581Z" fill="#FFEFC8"/>
<path d="M175.158 24.5233C172.161 25.0483 169.339 25.1773 166.14 32.7036C162.94 40.2298 159.255 47.5043 151.787 46.3405C144.319 45.1767 144.903 44.0129 139.375 39.0691C133.848 34.1222 138.675 28.0146 147.025 26.8508C155.374 25.687 151.594 19.5794 164.392 15.7964C177.194 12.0133 182.525 23.2305 175.158 24.5233Z" fill="#FFEFC8"/>
<path d="M112.541 27.5786C114.589 27.5786 116.25 25.9178 116.25 23.8692C116.25 21.8205 114.589 20.1598 112.541 20.1598C110.492 20.1598 108.831 21.8205 108.831 23.8692C108.831 25.9178 110.492 27.5786 112.541 27.5786Z" fill="#FFEFC8"/>
<path d="M107.597 58.1227C109.807 58.1227 111.598 56.3313 111.598 54.1216C111.598 51.9118 109.807 50.1205 107.597 50.1205C105.387 50.1205 103.596 51.9118 103.596 54.1216C103.596 56.3313 105.387 58.1227 107.597 58.1227Z" fill="#FFEFC8"/>
<path d="M204.64 164.955C204.64 164.955 214.423 150.993 220.423 148.158C226.423 145.324 230.845 143.77 230.845 143.77" stroke="#2BB673" stroke-width="5" stroke-miterlimit="10" stroke-linecap="round" stroke-linejoin="round"/>
<path d="M201.797 123.454C202.814 122.703 202.418 120.44 200.912 118.401C199.406 116.361 197.36 115.317 196.342 116.069C195.324 116.821 195.721 119.083 197.227 121.123C198.733 123.162 200.779 124.206 201.797 123.454Z" fill="#2BB673"/>
<path d="M200.346 138.711C200.915 138.291 200.692 137.025 199.849 135.883C199.006 134.741 197.861 134.156 197.292 134.576C196.723 134.997 196.946 136.263 197.789 137.405C198.632 138.546 199.777 139.131 200.346 138.711Z" fill="#2BB673"/>
<path d="M204.669 109.584C205.901 108.675 205.409 105.919 203.57 103.429C201.731 100.94 199.242 99.6589 198.01 100.569C196.778 101.479 197.27 104.234 199.109 106.724C200.948 109.214 203.437 110.494 204.669 109.584Z" fill="#2BB673"/>
<path d="M214.309 104.919C217.325 104.224 219.491 102.451 219.147 100.959C218.804 99.4664 216.08 98.8199 213.064 99.5147C210.048 100.21 207.881 101.983 208.225 103.475C208.569 104.967 211.293 105.614 214.309 104.919Z" fill="#2BB673"/>
<path d="M207.765 119.173C210.209 118.497 211.916 116.961 211.579 115.742C211.242 114.522 208.988 114.082 206.544 114.757C204.101 115.433 202.393 116.969 202.73 118.189C203.067 119.408 205.322 119.849 207.765 119.173Z" fill="#2BB673"/>
<path d="M233.341 155.755C232.303 157.745 227.676 160.06 223.484 157.877C219.293 155.694 216.738 152.31 217.776 150.32C218.814 148.33 223.052 148.487 227.24 150.67C231.431 152.85 234.376 153.762 233.341 155.755Z" fill="#2BB673"/>
<path d="M220.641 161.642C219.907 163.051 216.624 164.694 213.655 163.143C210.686 161.596 208.874 159.198 209.608 157.785C210.342 156.376 213.348 156.486 216.317 158.034C219.287 159.581 221.375 160.229 220.641 161.642Z" fill="#2BB673"/>
<path d="M212.387 143.773C210.799 143.896 208.005 146.273 208.266 149.614C208.527 152.955 210.023 155.559 211.61 155.436C213.198 155.313 214.269 152.506 214.011 149.166C213.75 145.825 213.971 143.648 212.387 143.773Z" fill="#2BB673"/>
<path d="M204.394 131.178C205.895 129.914 206.6 128.282 205.969 127.534C205.339 126.785 203.611 127.204 202.111 128.468C200.61 129.733 199.905 131.364 200.536 132.112C201.166 132.861 202.894 132.442 204.394 131.178Z" fill="#2BB673"/>
<path d="M204.159 145.183C205.349 144.18 205.909 142.885 205.408 142.291C204.908 141.697 203.537 142.029 202.346 143.032C201.156 144.036 200.596 145.33 201.097 145.924C201.597 146.518 202.968 146.186 204.159 145.183Z" fill="#2BB673"/>
<path d="M218.688 147.544C216.345 146.856 215.424 142.969 216.63 138.857C217.834 134.746 223.054 132.654 225.394 133.342C227.734 134.03 226.315 137.233 225.112 141.344C223.908 145.456 221.031 148.232 218.688 147.544Z" fill="#2BB673"/>
<path d="M235.316 145.846C236.406 145.846 237.29 144.962 237.29 143.872C237.29 142.781 236.406 141.897 235.316 141.897C234.225 141.897 233.341 142.781 233.341 143.872C233.341 144.962 234.225 145.846 235.316 145.846Z" fill="#FA5325"/>
<path d="M218.015 92.5574C219.106 92.5574 219.99 91.6734 219.99 90.583C219.99 89.4925 219.106 88.6085 218.015 88.6085C216.925 88.6085 216.041 89.4925 216.041 90.583C216.041 91.6734 216.925 92.5574 218.015 92.5574Z" fill="#FA5325"/>
<path d="M202.155 150.406C202.155 150.406 193.364 124.935 214.051 94.2924" stroke="#2BB673" stroke-width="5" stroke-miterlimit="10" stroke-linecap="round" stroke-linejoin="round"/>
<path d="M58.2294 127.173C58.2294 127.173 61.9603 130.8 61.3001 133.514C60.6399 136.229 58.2294 137.65 58.2294 137.65C58.2294 137.65 60.1333 139.785 59.8047 141.563C59.4761 143.34 56.8906 144.891 56.8906 144.891C56.8906 144.891 65.1661 143.469 68.7865 147.219C72.4068 150.968 72.6647 157.045 72.6647 157.045C72.6647 157.045 79.1316 155.236 85.4664 160.278C91.8012 165.32 92.0592 176.439 92.0592 176.439H0C0 176.439 0.12897 158.467 7.11171 153.425C14.0945 148.383 16.161 148.769 16.161 148.769C16.161 148.769 16.5449 143.856 19.7138 142.177C22.8828 140.497 25.5972 139.72 25.5972 139.72C25.5972 139.72 28.5697 132.403 30.5103 130.179C32.451 127.956 34.146 127.173 34.146 127.173H58.2294Z" fill="#FFEFC8"/>
<path d="M147.639 175.601C147.639 175.601 162.455 181.42 168.08 179.673C173.706 177.926 174.673 172.497 171.958 169.975C169.244 167.454 153.921 162.799 153.921 162.799C153.921 162.799 148.468 160.665 147.024 165.514C145.584 170.362 147.639 175.601 147.639 175.601Z" fill="#FCB10D"/>
<path d="M134.333 159.308C134.333 159.308 126.942 160.665 125.305 163.573C123.669 166.481 123.457 171.004 126.19 172.494C131.88 175.598 145.667 169.389 145.667 169.389L134.333 159.308Z" fill="#FCB10D"/>
<path d="M174.479 142.825C174.479 142.825 190.189 139.917 195.424 142.825C200.66 145.732 203.571 152.328 201.824 155.043C200.077 157.757 192.277 169.589 175.837 171.167C167.146 172.002 153.534 163.77 153.534 163.77C153.534 163.77 147.755 168.425 147.638 170.752C147.522 173.08 147.638 175.601 147.638 175.601C147.638 175.601 119.013 156.983 115.909 151.551C112.805 146.119 111.822 137.632 115.909 135.648C119.996 133.665 128.904 134.485 134.913 135.648C140.929 136.812 155.281 145.539 174.479 142.825Z" fill="#FA5325"/>
<path d="M133.839 128.331L124.71 118.913C123.614 117.783 121.796 117.798 120.721 118.947L114.899 125.153C113.852 126.267 113.913 128.021 115.034 129.059L132.104 144.897C133.102 145.825 134.628 145.883 135.697 145.032L140.542 141.176L133.839 128.331Z" fill="#080834"/>
<path d="M167.887 109.919L168.08 101.128C168.08 101.128 171.571 95.8922 171.958 93.758C172.345 91.6239 171.958 87.9391 171.958 87.9391C171.958 87.9391 171.181 78.8253 162.845 79.5991C154.508 80.3729 147.35 84.4477 147.049 87.5491C146.748 90.6536 149.656 97.6333 151.79 98.9905C153.924 100.348 158.579 100.541 158.579 100.541C158.579 100.541 158.773 102.869 157.999 105.39C157.225 107.911 155.671 110.625 155.671 110.625C155.671 110.625 159.743 112.176 162.654 112.176C165.559 112.182 167.887 109.919 167.887 109.919Z" fill="#FBA25D"/>
<path d="M155.668 106.56C155.668 106.56 157.219 110.825 160.904 111.021C164.589 111.215 171.958 106.56 171.958 106.56L170.988 139.723L151.787 137.396L155.668 106.56Z" fill="#FCB10D"/>
<path d="M157.996 102.777C157.996 102.777 148.397 100.449 144.906 105.104C141.414 109.759 140.349 117.421 138.021 120.135C135.693 122.85 131.88 126.534 131.88 126.534L140.155 135.648L149.075 127.698L151.016 138.753L157.999 139.723C157.999 139.723 154.701 121.106 156.642 114.51C158.576 107.917 161.097 105.006 157.996 102.777Z" fill="#1FA1EA"/>
<path d="M167.693 102.196L166.388 103.753C165.191 105.184 165.415 107.318 166.879 108.47L166.916 108.497C166.916 108.497 165.559 126.145 165.946 128.085C166.333 130.026 167.69 134.678 167.69 134.678L147.132 133.514C147.132 133.514 146.938 135.842 147.132 138.556C147.325 141.271 148.683 143.792 148.683 143.792C148.683 143.792 169.821 149.804 176.997 147.09C184.174 144.375 190.766 140.69 191.737 134.485C192.707 128.279 192.707 113.926 188.829 107.914C184.954 101.905 167.693 102.196 167.693 102.196Z" fill="#1FA1EA"/>
<path d="M147.135 133.517L140.831 131.288C140.831 131.288 137.297 126.71 135.304 127.216C133.311 127.723 133.268 130.348 133.268 130.348C133.268 130.348 126.869 126.209 125.413 130.348C123.958 134.488 137.631 140.307 140.539 141.179C143.447 142.051 147.639 141.179 147.639 141.179L147.135 133.517Z" fill="#FBA25D"/>
<path d="M162.513 68.9008C162.114 69.1403 161.632 69.1803 161.208 68.993C159.691 68.3236 155.8 67.0523 151.79 69.3215C150.341 70.1414 149.831 72.3922 149.653 73.7556C149.585 74.2623 149.251 74.686 148.778 74.8795C148.375 75.0453 147.801 75.4383 147.027 76.3012C145.197 78.3371 146.825 80.9932 144.322 80.9932C142.403 80.9932 141.423 82.1324 140.951 83.0444C140.634 83.6493 140.809 84.3955 141.359 84.8009C142.507 85.6484 144.715 87.0824 147.049 87.5522C149.674 88.0773 154.64 85.5716 156.734 84.4201C157.237 84.1437 157.855 84.2021 158.294 84.5706C158.871 85.0557 159.955 85.6146 161.874 85.6146C163.308 85.6146 163.775 88.9586 164.493 89.978C165.055 90.7733 165.479 87.2789 166.044 86.4867C166.336 86.0752 168.012 86.9043 168.467 87.3587C169.922 88.8143 169.496 92.6004 171.958 93.758C173.586 94.5257 175.904 93.6843 177.286 93.0241C177.946 92.7109 178.25 91.9402 177.983 91.2585C177.354 89.6525 176.322 86.674 176.322 84.4477C176.322 81.9482 174.252 79.2736 173.346 78.2204C173.088 77.9225 172.969 77.5325 173.015 77.1395C173.177 75.7608 173.398 72.4536 171.958 71.1639C169.821 69.2509 166.658 66.4136 162.513 68.9008Z" fill="#080834"/>
<path opacity="0.3" d="M167.693 134.678C167.693 134.678 173.73 135.455 178.081 132.544C182.433 129.636 179.912 112.179 179.912 112.179C179.912 112.179 178.361 128.082 175.84 130.023C173.319 131.964 170.205 134.822 167.693 134.678Z" fill="#080834"/>
<path opacity="0.3" d="M149.073 127.698V115.802L145.228 131.125L149.073 127.698Z" fill="#080834"/>
<path opacity="0.3" d="M147.135 133.517L167.693 134.678L147.341 136.622L147.135 133.517Z" fill="#080834"/>
<path opacity="0.3" d="M182.936 147.796L147.506 156.544L138.408 145.634L131.88 147.796L153.537 163.77L150.599 160.245C154.993 159.787 171.955 157.435 182.936 147.796Z" fill="#080834"/>
<path d="M62.5774 24.5233L50.2855 2.35598C48.5444 -0.785328 44.0274 -0.785328 42.2863 2.35598L29.9944 24.5233H62.5774Z" fill="#FA5325"/>
<path d="M69.0535 80.9963C69.0535 80.9963 78.8674 84.2574 82.7487 98.6067C86.627 112.959 80.4212 139.72 80.4212 139.72C80.4212 139.72 73.8284 112.931 64.5181 108.482C55.2078 104.039 69.0535 80.9963 69.0535 80.9963Z" fill="#FA5325"/>
<path d="M23.3251 80.9963C23.3251 80.9963 13.5112 84.2574 9.62982 98.6067C5.75154 112.959 11.9574 139.72 11.9574 139.72C11.9574 139.72 18.5502 112.931 27.8605 108.482C37.1677 104.039 23.3251 80.9963 23.3251 80.9963Z" fill="#FA5325"/>
<path d="M29.9976 110.245L34.1491 127.176C37.6558 131.184 54.7227 131.184 58.2295 127.176L62.5775 110.245H29.9976Z" fill="#FA5325"/>
<path d="M62.5775 24.5233H29.9975C26.2267 24.5233 23.1714 43.712 23.1714 67.3839C23.1714 91.0558 26.2267 110.245 29.9975 110.245H30.019C30.0037 110.275 29.9975 110.309 29.9975 110.343C29.9975 111.359 37.1799 112.185 46.0388 112.185C54.8977 112.185 62.0801 111.359 62.0801 110.343C62.0801 110.309 62.0708 110.278 62.0586 110.245H62.5806C66.3514 110.245 69.4067 91.0558 69.4067 67.3839C69.4036 43.712 66.3483 24.5233 62.5775 24.5233Z" fill="#1FA1EA"/>
<mask id="mask0" style="mask-type:alpha" maskUnits="userSpaceOnUse" x="30" y="52" width="33" height="33">
<path d="M46.2878 84.1038C54.9877 84.1038 62.0404 77.0511 62.0404 68.3512C62.0404 59.6513 54.9877 52.5986 46.2878 52.5986C37.5878 52.5986 30.5352 59.6513 30.5352 68.3512C30.5352 77.0511 37.5878 84.1038 46.2878 84.1038Z" fill="white"/>
</mask>
<g mask="url(#mask0)">
<rect x="32" y="55" width="29" height="30"/>
</g>
</svg>
