<svg width="235" height="180" viewBox="0 0 235 180" fill="none" xmlns="http://www.w3.org/2000/svg">
<path d="M201.452 32.0907C199.391 30.782 194.722 27.0934 191.84 30.362C188.958 33.6307 188.958 40.1651 196.646 42.0885C204.334 44.012 210.631 43.6255 212.289 39.5898C213.948 35.5481 205.56 34.699 201.452 32.0907Z" fill="#FEEFC8"/>
<path d="M228.751 44.3832C231.721 44.3832 234.129 41.9754 234.129 39.0054C234.129 36.0353 231.721 33.6276 228.751 33.6276C225.781 33.6276 223.373 36.0353 223.373 39.0054C223.373 41.9754 225.781 44.3832 228.751 44.3832Z" fill="#FEEFC8"/>
<path d="M89.7747 28.0521C86.9503 29.8295 83.289 32.666 77.3543 32.9551C71.4195 33.2442 56.6283 28.0521 53.4996 30.5051C50.3709 32.9551 49.7957 39.2977 45.757 41.0294C41.7183 42.7612 36.8366 41.3186 34.2345 46.7968C31.6293 52.275 30.4758 69.8632 48.6422 66.4028C66.8087 62.9424 71.9004 43.6255 81.609 39.5868C91.3147 35.5512 100.542 39.5868 101.121 34.9729C101.693 30.359 95.2012 24.6373 89.7747 28.0521Z" fill="#C3ECFE"/>
<path d="M106.017 8.446C106.017 8.446 96.2143 7.29251 94.4856 10.4638C92.7569 13.6351 93.043 17.3846 98.5212 18.249C103.999 19.1133 110.418 20.5559 114.56 22.5738C118.702 24.5916 120.723 21.5055 124.181 15.4064C127.638 9.3073 137.155 2.96775 131.388 0.371678C125.62 -2.2244 116.98 9.59946 113.373 10.4638C109.767 11.3281 109.475 8.64687 106.017 8.446Z" fill="#C3ECFE"/>
<path d="M136.483 27.6685C125.505 30.5781 112.266 34.9728 101.693 56.8858C91.12 78.7988 82.2118 97.9604 66.0997 107.216C49.9876 116.471 40.9637 111.09 36.2494 119.548C31.5351 128.005 33.072 139.443 29.2281 144.489C25.3842 149.535 10.0056 151.072 9.62214 161.067C9.23866 171.061 11.8743 174.522 24.2034 173.947C36.5325 173.371 182.68 155.394 196.844 137.936C211.008 120.482 199.632 106.476 202.66 91.4839C205.688 76.4918 221.943 64.5736 221.119 58.0393C220.294 51.5049 199.921 54.5788 182.235 45.3541C164.547 36.1263 154.783 22.8172 136.483 27.6685Z" fill="#FEEFC8"/>
<path d="M205.779 173.947H32.2166L53.5208 126.405H184.475L205.779 173.947Z" fill="#5485AD"/>
<path d="M205.776 173.947H32.2166V180H205.776V173.947Z" fill="#6E7C99"/>
<path opacity="0.3" d="M115.238 139.957H97.7804L96.7913 145.81H114.924L115.238 139.957Z" fill="#040001"/>
<path opacity="0.3" d="M172.246 145.81H182.432L179.809 139.957H169.543L172.246 145.81Z" fill="#040001"/>
<path opacity="0.3" d="M73.613 145.81H88.4591L90.1147 139.957H76.0356L73.613 145.81Z" fill="#040001"/>
<path opacity="0.3" d="M139.136 139.957H122.753L123.069 145.81H140.125L139.136 139.957Z" fill="#040001"/>
<path opacity="0.3" d="M161.959 139.957H146.802L148.458 145.81H164.381L161.959 139.957Z" fill="#040001"/>
<path opacity="0.3" d="M65.8562 164.557L83.1583 164.576L84.9174 158.352H68.4249L65.8562 164.557Z" fill="#040001"/>
<path opacity="0.3" d="M169.571 158.352H152.001L153.778 164.643L172.182 164.661L169.571 158.352Z" fill="#040001"/>
<path opacity="0.3" d="M143.31 164.634L142.248 158.352H125.847H123.75H95.2659L93.6194 164.585L124.088 164.603V164.615L143.31 164.634Z" fill="#040001"/>
<path opacity="0.3" d="M183.931 149.155H173.967L180.824 164.673L190.888 164.679L183.931 149.155Z" fill="#040001"/>
<path opacity="0.3" d="M114.744 149.155H96.2272L95.238 155.007H114.427L114.744 149.155Z" fill="#040001"/>
<path opacity="0.3" d="M69.8066 155.007H85.8609L87.5166 149.155H72.2292L69.8066 155.007Z" fill="#040001"/>
<path opacity="0.3" d="M140.692 149.155H123.25L123.567 155.007H141.681L140.692 149.155Z" fill="#040001"/>
<path opacity="0.3" d="M165.765 149.155H149.403L151.058 155.007H168.187L165.765 149.155Z" fill="#040001"/>
<path opacity="0.3" d="M168.186 136.616H178.311L176.294 132.111H166.18L168.186 136.616Z" fill="#040001"/>
<path opacity="0.3" d="M77.4199 136.616H91.0577L92.3299 132.111H79.2825L77.4199 136.616Z" fill="#040001"/>
<path opacity="0.3" d="M115.664 132.111H99.1078L98.3469 136.616H115.421L115.664 132.111Z" fill="#040001"/>
<path opacity="0.3" d="M137.809 132.111H122.33L122.573 136.616H138.57L137.809 132.111Z" fill="#040001"/>
<path opacity="0.3" d="M71.7383 132.111H61.6979L59.6831 136.615H69.2761L71.7383 132.111Z" fill="#040001"/>
<path opacity="0.3" d="M158.711 132.111H144.586L145.859 136.616H160.574L158.711 132.111Z" fill="#040001"/>
<path opacity="0.3" d="M65.2465 145.81H55.0601L57.6835 139.957H67.9491L65.2465 145.81Z" fill="#040001"/>
<path opacity="0.3" d="M53.5628 149.155H63.5271L56.6733 164.673L46.6055 164.679L53.5628 149.155Z" fill="#040001"/>
<path d="M184.475 66.3998H52.0999V126.405H184.475V66.3998Z" fill="#2098D7"/>
<path d="M178.099 69.288H58.4722V119.813H178.099V69.288Z" fill="#E6F5FC"/>
<path d="M178.099 119.812V93.4044C178.099 93.4044 153.849 93.7483 149.78 99.7287C145.71 105.709 143.787 107.553 138.79 108.746C133.792 109.936 128.795 112.067 127.641 114.27C126.488 116.474 114.561 119.812 114.561 119.812H178.099Z" fill="#C3ECFE"/>
<path d="M113.374 69.288C113.374 69.288 110.343 78.9418 101.693 81.3188C93.0437 83.6988 86.555 80.8136 81.4389 86.0027C76.3198 91.1918 77.1537 98.4565 71.2585 99.7257C65.3633 100.995 63.5099 104.79 60.9929 106.787C58.476 108.783 58.4456 111.473 58.4456 111.473V69.288H113.374Z" fill="#C3ECFE"/>
<path d="M119.683 111.79H93.0766C89.9723 111.79 87.4553 109.273 87.4553 106.169V97.1205C87.4553 94.0162 89.9723 91.4992 93.0766 91.4992H119.683C122.787 91.4992 125.304 94.0162 125.304 97.1205V106.169C125.301 109.273 122.787 111.79 119.683 111.79Z" fill="#5EBB2E"/>
<path d="M66.6137 101.095C66.6137 101.095 70.1046 98.1157 68.9359 97.0596C67.7672 96.0035 66.6137 96.0035 66.6137 96.0035C66.6137 96.0035 65.652 91.9679 63.2476 92.254C60.8433 92.54 57.3859 98.2344 57.3859 98.2344C57.3859 98.2344 55.8429 98.8857 55.5568 100.712C55.2707 102.538 57.0024 102.921 57.0024 102.921C57.0024 102.921 54.9785 103.691 55.5568 105.517C56.135 107.343 61.6133 107.919 63.4394 106.287C65.2654 104.653 66.6137 101.095 66.6137 101.095Z" fill="#040001"/>
<path d="M67.8583 109.769L66.6135 106.914C66.6135 106.914 69.9126 105.259 69.5261 103.016C69.1396 100.773 67.0913 98.6573 65.2318 98.2739C63.3722 97.8904 61.3879 100.319 61.3879 100.319C61.3879 100.319 59.2727 100.389 59.0809 101.479C58.8892 102.568 60.6605 104.002 60.6605 104.002L61.4122 110.399C61.4153 110.399 67.2161 110.499 67.8583 109.769Z" fill="#FBA25D"/>
<path d="M152.725 95.5226C152.725 95.5226 152.5 91.7426 150.58 90.8448C148.656 89.947 147.119 92.1261 145.199 92.5095C143.278 92.893 140.856 91.1004 140.856 91.1004C140.856 91.1004 139.818 95.0721 141.866 95.97C143.917 96.8678 147.539 95.4587 147.539 95.4587C147.539 95.4587 148.084 97.3821 149.782 97.1234C151.48 96.8648 152.725 95.5226 152.725 95.5226Z" fill="#040001"/>
<path d="M150.707 106.671L148.881 101.482C148.881 101.482 147.055 102.635 145.71 100.712C144.365 98.7884 144.648 95.7145 144.648 95.7145L148.4 93.4075C148.4 93.4075 148.592 96.3232 150.129 96.4023C151.666 96.4814 151.572 94.3693 152.725 95.5227C153.879 96.6762 152.725 98.5023 152.725 98.5023L154.935 103.019L150.707 106.671Z" fill="#FBA25D"/>
<path d="M141.867 113.975L145.327 119.356L151.094 115.32C151.094 115.32 151.286 128.584 152.44 129.159C153.593 129.734 163.588 124.932 163.588 124.932L162.051 117.244C162.051 117.244 163.588 113.592 163.588 111.476C163.588 109.361 158.399 105.709 158.399 105.709C158.399 105.709 159.169 103.402 156.862 102.44C154.555 101.479 153.018 103.977 150.711 106.668C148.401 109.361 141.867 113.975 141.867 113.975Z" fill="#FCB10D"/>
<path d="M154.168 128.903C154.168 128.903 151.222 147.87 151.733 148.896C152.245 149.922 155.705 150.947 155.705 150.947L163.585 124.935L154.168 128.903Z" fill="#F65127"/>
<path d="M162.827 127.439L166.598 147.998L161.345 150.174L158.362 142.17L162.827 127.439Z" fill="#F65127"/>
<path opacity="0.3" d="M162.827 127.439L166.598 147.998L161.345 150.174L158.362 142.17L162.827 127.439Z" fill="#040001"/>
<path d="M78.1461 154.051C80.4808 154.051 82.3734 153.062 82.3734 151.842C82.3734 150.622 80.4808 149.632 78.1461 149.632C75.8114 149.632 73.9187 150.622 73.9187 151.842C73.9187 153.062 75.8114 154.051 78.1461 154.051Z" fill="#FCB10D"/>
<path d="M55.4081 146.621C56.7506 144.742 56.9874 142.61 55.9369 141.86C54.8865 141.109 52.9467 142.025 51.6042 143.904C50.2617 145.783 50.0249 147.915 51.0753 148.665C52.1257 149.416 54.0655 148.5 55.4081 146.621Z" fill="#FCB10D"/>
<path d="M60.8769 132.108L71.7694 133.134L71.2581 127.111L75.6164 123.714L69.4655 114.295L69.2099 109.937C69.2099 109.937 69.4655 109.553 65.1103 109.937C60.7521 110.32 57.9338 110.962 58.0616 112.116C58.1895 113.269 58.8316 114.423 58.8316 114.423C58.8316 114.423 56.1412 119.889 56.6525 121.45C57.1638 123.011 60.6242 126.469 60.6242 126.469L60.8769 132.108Z" fill="#F65127"/>
<path d="M62.4413 132.254L60.174 141.652H55.5601C55.5601 141.652 55.7518 144.921 55.5601 146.075C55.3683 147.228 64.5931 148.765 64.5931 148.765L66.0996 137.808L73.6291 152.085C73.6291 152.085 77.8565 150.302 77.6648 148.381C77.473 146.458 70.5522 133.131 70.5522 133.131L62.4413 132.254Z" fill="#040001"/>
<path d="M155.868 151.264C156.214 150.46 154.62 149.002 152.308 148.009C149.996 147.015 147.842 146.862 147.496 147.667C147.15 148.472 148.744 149.929 151.056 150.923C153.368 151.916 155.523 152.069 155.868 151.264Z" fill="#040001"/>
<path d="M164.193 152.116C166.041 150.408 167.056 148.502 166.462 147.859C165.867 147.216 163.888 148.08 162.04 149.788C160.192 151.496 159.176 153.402 159.771 154.045C160.365 154.688 162.345 153.825 164.193 152.116Z" fill="#040001"/>
<path d="M71.8638 126.636C71.8638 126.636 71.7694 127.878 72.5394 128.261C73.3094 128.645 75.3577 128.581 75.6164 128.006C75.875 127.43 74.7824 126.213 75.0411 125.954C75.2968 125.699 76.3224 124.993 76.3224 124.993L74.6303 124.481L71.8638 126.636Z" fill="#FBA25D"/>
<path d="M75.0381 125.957L76.3194 124.995C76.3194 124.995 77.1959 124.037 77.6707 124.484C78.1455 124.932 78.8181 125.555 78.8181 125.555L78.3372 125.957C78.3372 125.957 77.6707 124.932 77.1837 125.269C76.925 125.449 75.3668 126.946 75.3668 126.946C75.3668 126.946 75.0533 126.548 75.0381 125.957Z" fill="#040001"/>
<path d="M73.9636 128.505L75.0379 129.737L74.3258 130.312C74.3258 130.312 73.2453 129.135 73.1966 128.919C73.1479 128.702 73.1023 128.432 73.1023 128.432L73.9636 128.505Z" fill="#040001"/>
<path d="M80.5467 123.729L78.818 125.556L78.3372 125.957L75.0381 129.737L74.3228 130.312L73.0994 131.515L81.6058 142.17L89.7745 134.686L80.5467 123.729Z" fill="#F65127"/>
<path d="M73.0994 131.515V133.438L79.3446 144.489L81.6058 142.17L73.0994 131.515Z" fill="#231F20"/>
<path d="M142.167 114.447C142.167 114.447 141.769 114.054 140.232 114.447C138.695 114.839 139.462 116.188 139.462 116.188C139.462 116.188 137.061 116.09 137.061 117.149C137.061 118.206 139.848 120.226 141.866 119.746C143.884 119.265 144.648 118.306 144.648 118.306L142.167 114.447Z" fill="#FBA25D"/>
<path opacity="0.3" d="M158.396 105.709L162.048 117.241C162.048 117.241 162.547 113.713 162.48 111.473C162.413 109.233 158.396 105.709 158.396 105.709Z" fill="#040001"/>
<path opacity="0.3" d="M58.8255 114.422C58.8255 114.422 60.3624 118.3 60.5542 120.029C60.7459 121.757 60.6181 126.469 60.6181 126.469C60.6181 126.469 58.9198 123.83 58.3446 121.45C57.7694 119.067 58.8255 114.422 58.8255 114.422Z" fill="#040001"/>
<path opacity="0.3" d="M71.2581 127.111L66.6138 118.266V121.45L71.2581 127.111Z" fill="#040001"/>
<path opacity="0.3" d="M151.091 115.32L155.96 109.766L151.225 119.813L151.091 115.32Z" fill="#040001"/>
<path d="M53.4961 48.5254L40.5645 74.1849H71.13L76.3191 48.5254H53.4961Z" fill="#F65127"/>
<path d="M76.6603 48.5254L71.1304 74.1849H101.693L103.711 48.5254H76.6603Z" fill="#E6F5FC"/>
<path d="M180.452 48.5254L193.384 74.1849H162.818L157.629 48.5254H180.452Z" fill="#F65127"/>
<path d="M132.255 74.1849H101.693L103.71 48.5254H131.388L132.255 74.1849Z" fill="#F65127"/>
<path d="M131.388 48.5254H157.628L162.818 74.1849H132.255L131.388 48.5254Z" fill="#E6F5FC"/>
<path d="M55.8498 74.1848H71.1311C71.1311 82.0156 64.2315 88.4556 55.8498 88.4556C47.4773 88.4556 40.5838 82.0278 40.5686 74.2091L55.8498 74.1848Z" fill="#D65546"/>
<path d="M86.4116 74.1848H101.693C101.693 82.0156 94.7933 88.4556 86.4116 88.4556C78.039 88.4556 71.1456 82.0278 71.1304 74.2091L86.4116 74.1848Z" fill="#CFDCEE"/>
<path d="M116.974 74.1848H132.255C132.255 82.0156 125.356 88.4556 116.974 88.4556C108.601 88.4556 101.708 82.0278 101.693 74.2091L116.974 74.1848Z" fill="#D65546"/>
<path d="M147.537 74.1848H162.818C162.818 82.0156 155.919 88.4556 147.537 88.4556C139.165 88.4556 132.271 82.0278 132.256 74.2091L147.537 74.1848Z" fill="#CFDCEE"/>
<path d="M178.099 74.1848H193.38C193.38 82.0156 186.481 88.4556 178.099 88.4556C169.727 88.4556 162.833 82.0278 162.818 74.2091L178.099 74.1848Z" fill="#D65546"/>
<path d="M38.8359 89.7553L27.0151 88.4587L7.69824 106.479L21.5369 121.45L40.5677 100.712C40.5646 100.712 41.432 92.0622 38.8359 89.7553ZM34.2312 95.5165C33.1173 95.5165 32.2164 94.6157 32.2164 93.5018C32.2164 92.3879 33.1173 91.487 34.2312 91.487C35.3451 91.487 36.246 92.3879 36.246 93.5018C36.246 94.6126 35.3451 95.5165 34.2312 95.5165Z" fill="#5EBB2E"/>
<path d="M203.467 138.46C203.467 138.46 208.087 122.205 212.786 117.6C217.485 112.995 221.116 110.104 221.116 110.104" stroke="#2BB673" stroke-width="5" stroke-miterlimit="10" stroke-linecap="round" stroke-linejoin="round"/>
<path d="M191.685 110.898C192.694 110.153 192.301 107.91 190.808 105.889C189.316 103.867 187.288 102.833 186.279 103.578C185.27 104.323 185.663 106.565 187.156 108.587C188.649 110.608 190.677 111.643 191.685 110.898Z" fill="#2BB673"/>
<path d="M190.495 125.05C191.059 124.633 190.838 123.378 190.002 122.246C189.167 121.115 188.032 120.535 187.468 120.951C186.904 121.368 187.125 122.623 187.961 123.754C188.796 124.886 189.931 125.466 190.495 125.05Z" fill="#2BB673"/>
<path d="M197.07 91.1044C198.079 90.3595 197.686 88.1169 196.193 86.0956C194.7 84.0742 192.672 83.0395 191.664 83.7844C190.655 84.5294 191.048 86.7719 192.541 88.7933C194.033 90.8147 196.061 91.8494 197.07 91.1044Z" fill="#2BB673"/>
<path d="M203.241 101.92C205.663 101.25 207.356 99.7273 207.022 98.5188C206.687 97.3103 204.453 96.8734 202.031 97.5431C199.609 98.2128 197.917 99.7354 198.251 100.944C198.585 102.152 200.819 102.589 203.241 101.92Z" fill="#2BB673"/>
<path d="M223.293 122.293C223.53 120.68 220.969 118.967 217.572 118.467C214.174 117.967 211.228 118.869 210.99 120.482C210.753 122.095 213.314 123.808 216.711 124.308C220.109 124.808 223.055 123.906 223.293 122.293Z" fill="#2BB673"/>
<path d="M208.697 124.897C209.516 123.983 208.621 121.845 206.697 120.12C204.773 118.396 202.549 117.739 201.73 118.653C200.911 119.567 201.807 121.705 203.731 123.429C205.655 125.154 207.879 125.811 208.697 124.897Z" fill="#2BB673"/>
<path d="M215.374 135.72C218.732 135.555 221.4 134.329 221.334 132.981C221.268 131.633 218.492 130.673 215.135 130.838C211.777 131.003 209.109 132.229 209.175 133.577C209.241 134.925 212.017 135.885 215.374 135.72Z" fill="#2BB673"/>
<path d="M199.368 115.776C200.855 114.523 201.554 112.906 200.929 112.164C200.304 111.423 198.592 111.837 197.104 113.091C195.617 114.344 194.918 115.961 195.543 116.703C196.168 117.444 197.88 117.03 199.368 115.776Z" fill="#2BB673"/>
<path d="M199.483 129.238C200.663 128.244 201.218 126.96 200.722 126.372C200.225 125.783 198.867 126.112 197.687 127.106C196.507 128.1 195.952 129.384 196.449 129.972C196.945 130.561 198.303 130.232 199.483 129.238Z" fill="#2BB673"/>
<path d="M217.6 111.863C219.201 111.574 220.088 109.061 219.582 106.249C219.075 103.437 217.366 101.391 215.764 101.68C214.163 101.968 213.276 104.482 213.783 107.294C214.29 110.106 215.999 112.152 217.6 111.863Z" fill="#2BB673"/>
<path d="M225.331 110.704C226.412 110.704 227.288 109.827 227.288 108.747C227.288 107.666 226.412 106.79 225.331 106.79C224.251 106.79 223.375 107.666 223.375 108.747C223.375 109.827 224.251 110.704 225.331 110.704Z" fill="#FA5325"/>
<path d="M211.024 77.0793C212.105 77.0793 212.981 76.2031 212.981 75.1224C212.981 74.0416 212.105 73.1654 211.024 73.1654C209.943 73.1654 209.067 74.0416 209.067 75.1224C209.067 76.2031 209.943 77.0793 211.024 77.0793Z" fill="#FA5325"/>
<path d="M195.301 134.415C195.301 134.415 186.588 109.17 207.092 78.7989" stroke="#2BB673" stroke-width="5" stroke-miterlimit="10" stroke-linecap="round" stroke-linejoin="round"/>
<path d="M20.0944 124.28C17.9944 125.248 19.5191 129.448 14.327 131.515C9.13788 133.581 4.52399 127.719 1.3527 131.515C-1.8186 135.31 1.35269 138.731 3.08138 141.345C4.81007 143.959 3.68399 147.709 9.58222 146.555C15.4805 145.402 31.1695 119.179 20.0944 124.28Z" fill="#FEEFC8"/>
</svg>
