<svg width="214" height="180" viewBox="0 0 214 180" fill="none" xmlns="http://www.w3.org/2000/svg">
<path d="M37.1191 176.15H208.062C208.062 176.15 191.286 151.291 182.205 150.535C173.123 149.779 166.315 158.294 152.947 160.972C139.579 163.65 136.299 153.563 124.193 153.815C112.087 154.068 100.232 162.484 90.394 163.32C80.5564 164.156 62.649 158.547 54.3263 160.972C46.0036 163.4 37.1191 176.15 37.1191 176.15Z" fill="#FFEFC8"/>
<path d="M83.8394 49.7737C83.8394 49.7737 98.3841 18.5569 110.828 15.5297C123.272 12.5026 129.998 17.5478 138.07 13.1762C146.142 8.80447 151.073 -1.62154 157.351 2.41468C163.629 6.4509 162.551 20.575 155.019 23.9376C147.487 27.3003 148.943 32.0101 145.019 36.0436C141.095 40.0772 123.69 40.7508 122.641 47.1406C121.592 53.5304 83.8394 49.7737 83.8394 49.7737Z" fill="#FFEFC8"/>
<path d="M176.406 15.1916C174.734 17.7954 171.361 23.5995 167.998 24.2731C164.636 24.9467 154.209 30.3274 160.767 34.0255C167.325 37.7236 176.619 34.1533 179.369 26.1873C182.122 18.2187 179.212 10.8252 176.406 15.1916Z" fill="#FFEFC8"/>
<path d="M185.663 55.213H30.7026V143.602H185.663V55.213Z" fill="#E6F5FC"/>
<path d="M185.663 44.3344H66.6881L59.1987 55.213H185.663V44.3344Z" fill="#FA5325"/>
<path d="M166.369 126.93H42.002V135.301H166.369V126.93Z" fill="#C3ECFE"/>
<path d="M166.369 109.872H42.002V118.243H166.369V109.872Z" fill="#C3ECFE"/>
<path d="M166.369 62.0634H42.002V101.182H166.369V62.0634Z" fill="#C3ECFE"/>
<path d="M47.0127 96.5869L68.706 71.2327L90.3967 96.5869" stroke="#E6F5FC" stroke-width="5" stroke-miterlimit="10" stroke-linecap="round" stroke-linejoin="round"/>
<path d="M52.6463 74.8855C54.5034 74.8855 56.0089 73.38 56.0089 71.5229C56.0089 69.6658 54.5034 68.1603 52.6463 68.1603C50.7892 68.1603 49.2837 69.6658 49.2837 71.5229C49.2837 73.38 50.7892 74.8855 52.6463 74.8855Z" fill="#E6F5FC"/>
<path d="M64.5839 175.916C64.5839 175.916 60.5477 168.882 61.7245 161.316C62.9012 153.749 62.3981 152.572 58.0264 147.527" stroke="#2BB673" stroke-width="5" stroke-miterlimit="10" stroke-linecap="round" stroke-linejoin="round"/>
<path d="M62.1426 154.327C62.1426 154.327 64.1633 152.237 67.1905 152.322C70.2177 152.407 72.2358 151.566 72.2358 151.566C72.2358 151.566 73.0319 153.712 69.3764 155.085C65.0899 156.694 62.1426 154.327 62.1426 154.327Z" fill="#2BB673"/>
<path d="M61.0483 151.355C61.0483 151.355 58.3326 150.314 55.625 151.67C52.9173 153.025 50.7314 153.113 50.7314 153.113C50.7314 153.113 50.9152 155.394 54.8076 155.096C59.3763 154.745 61.0483 151.355 61.0483 151.355Z" fill="#2BB673"/>
<path d="M62.1425 158.839C62.1425 158.839 59.4269 157.798 56.7192 159.154C54.0115 160.509 51.8257 160.597 51.8257 160.597C51.8257 160.597 52.0094 162.878 55.9018 162.58C60.4705 162.229 62.1425 158.839 62.1425 158.839Z" fill="#2BB673"/>
<path d="M61.3066 162.721C61.3066 162.721 64.0223 161.68 66.73 163.035C69.4377 164.391 71.6235 164.478 71.6235 164.478C71.6235 164.478 71.4398 166.76 67.5473 166.462C62.976 166.11 61.3066 162.721 61.3066 162.721Z" fill="#2BB673"/>
<path d="M81.541 166.691C81.541 166.691 84.2567 165.65 86.9644 167.005C89.672 168.36 91.8579 168.448 91.8579 168.448C91.8579 168.448 91.6742 170.73 87.7817 170.432C83.2103 170.08 81.541 166.691 81.541 166.691Z" fill="#2BB673"/>
<path d="M73.5698 169.154C73.5698 169.154 76.4532 168.789 78.7615 170.748C81.0698 172.708 83.1705 173.315 83.1705 173.315C83.1705 173.315 82.449 175.488 78.7376 174.273C74.3872 172.844 73.5698 169.154 73.5698 169.154Z" fill="#2BB673"/>
<path d="M82.2489 167.357C82.2489 167.357 81.2798 165.479 79.1579 164.902C77.0359 164.324 75.8086 163.318 75.8086 163.318C75.8086 163.318 74.8048 164.643 77.0599 166.366C79.701 168.387 82.2489 167.357 82.2489 167.357Z" fill="#2BB673"/>
<path d="M61.6901 167.298C61.6901 167.298 59.9489 166.63 58.213 167.5C56.4771 168.368 55.0767 168.427 55.0767 168.427C55.0767 168.427 55.1938 169.891 57.6912 169.699C60.6171 169.473 61.6901 167.298 61.6901 167.298Z" fill="#2BB673"/>
<path d="M62.8187 171.638C62.8187 171.638 61.3863 171.089 59.9593 171.803C58.5322 172.516 57.3794 172.564 57.3794 172.564C57.3794 172.564 57.4752 173.768 59.528 173.611C61.9374 173.424 62.8187 171.638 62.8187 171.638Z" fill="#2BB673"/>
<path d="M61.8711 169.51C61.8711 169.51 63.0026 168.477 64.5921 168.619C66.1815 168.762 67.2705 168.384 67.2705 168.384C67.2705 168.384 67.6192 169.54 65.6517 170.144C63.3461 170.852 61.8711 169.51 61.8711 169.51Z" fill="#2BB673"/>
<path d="M64.584 176.284C64.584 176.284 67.3582 171.994 69.5441 170.735C71.7299 169.476 76.0191 168.981 78.961 168.387C81.903 167.793 83.8386 164.417 83.8386 164.417" stroke="#2BB673" stroke-width="5" stroke-miterlimit="10" stroke-linecap="round" stroke-linejoin="round"/>
<path d="M148.914 158.456C148.914 158.456 155.219 162.101 156.734 165.408C158.248 168.714 160.964 174.883 160.964 174.883C160.964 174.883 162.889 160.227 166.369 155.642C169.849 151.057 172.623 148.091 172.623 148.091" stroke="#2BB673" stroke-width="5" stroke-miterlimit="10" stroke-linecap="round" stroke-linejoin="round"/>
<path d="M153.368 168.384C155.567 168.384 157.349 167.495 157.349 166.398C157.349 165.301 155.567 164.412 153.368 164.412C151.17 164.412 149.388 165.301 149.388 166.398C149.388 167.495 151.17 168.384 153.368 168.384Z" fill="#2BB673"/>
<path d="M170.19 160.527C172.948 160.527 175.184 159.465 175.184 158.155C175.184 156.845 172.948 155.783 170.19 155.783C167.431 155.783 165.195 156.845 165.195 158.155C165.195 159.465 167.431 160.527 170.19 160.527Z" fill="#2BB673"/>
<path d="M156.167 160.005C157.294 158.73 157.693 157.242 157.057 156.68C156.422 156.117 154.993 156.694 153.866 157.968C152.738 159.243 152.339 160.731 152.975 161.293C153.61 161.856 155.039 161.279 156.167 160.005Z" fill="#2BB673"/>
<path d="M169.001 151.528C169.662 150.268 168.404 148.304 166.191 147.143C163.977 145.981 161.647 146.061 160.985 147.322C160.324 148.582 161.582 150.545 163.795 151.707C166.009 152.869 168.34 152.789 169.001 151.528Z" fill="#2BB673"/>
<path d="M146.611 158.967C147.49 158.967 148.203 158.254 148.203 157.375C148.203 156.496 147.49 155.783 146.611 155.783C145.732 155.783 145.019 156.496 145.019 157.375C145.019 158.254 145.732 158.967 146.611 158.967Z" fill="#FA5325"/>
<path d="M176.1 148.094C177.046 148.094 177.812 147.328 177.812 146.382C177.812 145.437 177.046 144.67 176.1 144.67C175.155 144.67 174.388 145.437 174.388 146.382C174.388 147.328 175.155 148.094 176.1 148.094Z" fill="#FA5325"/>
<path d="M191.792 93.6369L192.548 90.6098C192.548 90.6098 190.53 90.3568 190.109 87.1619C189.688 83.967 191.328 81.6135 191.328 81.6135C191.328 81.6135 198.181 82.0341 198.938 82.2871C199.694 82.54 198.938 85.482 198.938 85.482C198.938 85.482 200.62 84.3877 200.871 85.3968C201.123 86.4058 199.526 88.4239 199.526 89.6007C199.526 90.7775 201.209 91.8718 201.209 91.8718C201.209 91.8718 201.616 98.2056 196.837 98.7647C188.932 99.6886 191.792 93.6369 191.792 93.6369Z" fill="#FBA25D"/>
<path d="M200.213 91.0145C200.213 91.0145 201.459 88.6742 202.888 86.7413C204.318 84.8084 204.401 83.0432 203.812 81.6135C203.224 80.1838 201.214 80.5192 201.214 80.5192C201.214 80.5192 201.121 77.2391 198.264 76.9037C195.404 76.5682 194.406 76.4005 194.611 75.221C194.816 74.0442 195.628 73.1204 195.628 73.1204C195.628 73.1204 191.874 73.8765 190.697 75.8121C189.52 77.745 189.353 78.2508 188.847 78.8392C188.344 79.4276 190.817 82.556 190.817 82.556L191.326 81.6135C191.326 81.6135 198.767 82.2019 198.85 83.3786C198.932 84.5554 197.673 85.3116 197.926 86.3206C198.181 87.3297 197.537 90.7482 200.213 91.0145Z" fill="#080834"/>
<path d="M183.917 80.5193C183.917 80.5193 183.355 73.7647 180.778 73.1204C178.2 72.4761 175.061 70.5698 174.835 71.4671C174.609 72.3643 177.862 74.1588 177.862 74.1588C177.862 74.1588 175.844 74.5688 176.406 75.876C176.968 77.1833 178.525 78.0805 179.372 78.9777C180.218 79.8749 180.109 81.0331 180.109 81.0331L183.917 80.5193Z" fill="#FBA25D"/>
<path d="M207.111 122.929L206.565 124.38L207.178 128.528C207.178 128.528 207.681 130.881 208.69 131.105C209.699 131.329 209.553 127.814 209.553 127.814L207.111 122.929Z" fill="#FBA25D"/>
<path d="M207.177 128.528C207.177 128.528 202.3 122.87 189.241 129.734C189.241 129.734 188.849 139.066 190.756 146.126C192.662 153.19 194.613 157.338 194.613 157.338L191.315 165.41L193.892 167.764L197.59 163.169L201.738 172.921L204.092 170.006L201.4 157.002C201.4 157.002 209.307 147.697 209.558 143.661C209.808 139.625 207.177 128.528 207.177 128.528ZM199.392 148.818C199.392 148.818 198.04 143.214 197.593 140.511C197.145 137.809 198.104 133.613 198.104 133.613C198.104 133.613 202.076 138.504 202.191 141.417C202.3 144.335 199.392 148.818 199.392 148.818Z" fill="#FA5325"/>
<path d="M179.433 81.1076C179.433 81.1076 175.564 100.951 176.573 105.322C176.941 106.917 177.42 108.152 177.88 109.079C178.538 110.405 180.226 110.825 181.443 109.984L187.052 106.105C187.052 106.105 188.006 116.587 188.173 121.126C188.341 125.666 188.173 130.037 188.173 130.037C188.173 130.037 201.121 126.169 204.148 127.346C207.175 128.523 207.175 128.523 207.175 128.523C207.175 128.523 204.989 114.734 205.492 111.539C205.996 108.344 206.334 107.42 206.334 107.42C206.334 107.42 208.434 113.222 208.352 116.164C208.306 117.764 206.84 122.386 206.84 122.386L210.034 128.775C210.034 128.775 213.985 117.929 212.473 110.362C210.961 102.796 211.885 97.2472 208.269 95.229C204.654 93.2109 201.206 91.8664 201.206 91.8664C201.206 91.8664 200.785 97.3323 195.49 97.753C190.194 98.1737 191.792 93.6343 191.792 93.6343C191.792 93.6343 188.093 94.8962 185.487 96.4085C182.88 97.9207 181.871 100.107 181.871 100.107L184.731 80.5165L179.433 81.1076Z" fill="#1FA1EA"/>
<path d="M194.614 157.338L197.593 163.166L195.591 165.655L194.062 158.682L194.614 157.338Z" fill="#231F20"/>
<path d="M199.393 148.818L201.405 157L202.191 156.047L199.832 148.094L199.393 148.818Z" fill="#231F20"/>
<path d="M204.095 170.006C204.095 170.006 208.943 171.744 212.223 172.165C215.503 172.585 212.644 175.192 210.54 175.613C208.44 176.033 201.712 175.109 201.459 174.604C201.206 174.1 201.738 172.921 201.738 172.921L204.095 170.006Z" fill="#231F20"/>
<path d="M193.892 167.764C193.892 167.764 194.062 170.006 196.751 173.342C197.955 174.835 195.49 175.863 193.471 174.854C191.453 173.845 188.716 168.312 188.716 168.312L191.315 165.41L193.892 167.764Z" fill="#231F20"/>
<path d="M24.5099 77.0714C24.5099 77.0714 28.4156 70.5219 32.0978 72.5879C36.8981 75.2796 33.4902 82.0049 33.4902 82.0049C33.4902 82.0049 34.9599 85.5911 33.4902 87.3856C32.0205 89.1801 29.8906 91.0837 30.2287 92.8782C30.5669 94.6726 31.5733 97.7158 27.2016 98.8287C22.8299 99.9415 13.7431 100.296 11.1685 98.8287C8.59397 97.3617 9.37938 95.5699 9.37938 95.5699C9.37938 95.5699 12.9657 96.0172 13.8629 94.1135C14.7601 92.2072 12.8538 86.7147 13.8629 84.9202C14.8719 83.1257 16.2777 82.7903 16.2777 82.7903C16.2777 82.7903 17.3373 77.745 19.9172 77.1859C22.4918 76.6241 24.5099 77.0714 24.5099 77.0714Z" fill="#080834"/>
<path d="M21.7064 93.8873C21.7064 93.8873 18.791 95.2318 16.2138 98.5944C13.6366 101.957 11.0567 103.752 11.1685 105.546C11.2804 107.34 16.4348 111.374 16.4348 111.374L17.782 109.02C17.782 109.02 14.8666 106.89 14.9785 105.658C15.0903 104.425 18.0056 101.062 19.0147 100.724C20.0237 100.389 20.0237 100.389 20.0237 100.389C20.0237 100.389 20.5855 102.183 21.1446 102.631C21.7064 103.078 21.7064 103.863 21.7064 104.649C21.7064 105.434 18.6766 108.347 16.4348 114.401C14.1957 120.455 13.9694 121.015 14.4194 127.966C14.8666 134.918 16.8821 137.383 16.4348 139.401C15.9875 141.419 15.4284 143.549 15.4284 143.549C15.4284 143.549 16.8847 143.885 19.5764 142.876C22.2681 141.867 28.5435 140.511 28.5435 140.511C28.5435 140.511 28.7671 135.589 30.4497 131.667C32.1324 127.745 34.1478 120.455 33.2533 117.766C32.3587 115.077 29.4407 109.247 29.5552 106.67C29.6697 104.092 31.4615 100.28 31.4615 100.28C31.4615 100.28 33.6952 102.186 33.4769 103.866C33.2559 105.549 31.3496 111.153 31.3496 111.153L33.4902 113.283C33.4902 113.283 37.4013 105.884 36.8422 103.081C36.2804 100.277 33.2266 93.1311 31.9647 92.6279C30.7027 92.1247 27.34 92.6279 27.34 92.6279C27.34 92.6279 28.2399 94.8617 27.2309 96.4592C26.2218 98.0566 24.0626 98.7648 22.8858 97.3351C21.7064 95.9054 21.7064 93.8873 21.7064 93.8873Z" fill="#1FA1EA"/>
<path d="M17.5161 109.486C17.5161 109.486 18.5944 109.611 18.6796 110.871C18.7648 112.133 17.9821 116.166 16.9144 116.084C15.8468 116.001 16.4352 111.377 16.4352 111.377L17.5161 109.486Z" fill="#AF5E1F"/>
<path d="M31.3469 111.15C31.3469 111.15 30.7026 111.504 30.7026 112.785C30.7026 114.066 31.6265 117.346 32.4678 116.925C33.3091 116.504 33.4875 113.283 33.4875 113.283L31.3469 111.15Z" fill="#AF5E1F"/>
<path d="M18.5756 143.208C18.5756 143.208 18.7221 142.988 18.5756 145.677C18.4292 148.368 18.0086 157.362 19.0176 164.09C20.0267 170.815 20.5299 172.498 20.4473 173.001C20.3621 173.504 20.4473 174.598 21.6241 174.851C22.8009 175.104 24.0309 173.757 24.0309 173.757C24.0309 173.757 22.8009 171.907 22.295 168.797C21.7918 165.687 22.1273 157.447 22.3802 153.411C22.6332 149.375 23.6422 145.338 23.6422 145.338C23.6422 145.338 29.4436 160.219 30.3675 164.087C31.2913 167.956 30.9559 174.881 30.9559 174.881C30.9559 174.881 34.3185 171.233 34.8244 169.553C35.3276 167.87 34.7392 167.032 34.1508 165.685C33.5624 164.34 32.1327 160.977 32.2179 156.268C32.3031 151.56 30.8733 148.448 29.6113 146.18C28.3494 143.909 28.0991 140.509 28.0991 140.509L18.5756 143.208Z" fill="#AF5E1F"/>
<path d="M30.9902 173.874C30.9902 173.874 30.5083 176.06 29.8347 176.843C29.1611 177.628 27.4812 178.355 28.3784 178.749C29.2756 179.14 31.0115 178.973 32.2469 178.02C33.4796 177.066 35.0158 174.489 35.0158 174.489C35.0158 174.489 35.6095 176.899 36.1127 177.01C36.6159 177.122 37.1217 176.675 37.1217 176.675C37.1217 176.675 36.7863 173.089 36.8981 171.462C37.0099 169.835 35.0158 167.932 35.0158 167.932C35.0158 167.932 33.8816 172.418 30.9902 173.874Z" fill="#FA5325"/>
<path d="M24.0307 173.76C24.0307 173.76 24.6218 176.899 25.6867 178.02C26.7517 179.14 25.4577 180.149 24.0307 179.982C22.6036 179.814 20.4178 177.405 20.4178 177.405C20.4178 177.405 20.3619 178.919 19.8001 178.946C19.2384 178.973 18.3624 178.075 18.3624 178.075C18.3624 178.075 18.3438 174.489 18.7937 173.76C19.241 173.03 20.314 171.832 20.314 171.832C20.314 171.832 20.1942 173.704 21.315 174.095C22.4359 174.489 23.3278 173.927 24.0307 173.76Z" fill="#FA5325"/>
<path d="M21.7066 93.8873C21.7066 93.8873 22.6038 93.7755 22.6597 92.9901C22.7156 92.2046 22.1832 90.6365 22.1832 90.6365C22.1832 90.6365 21.0889 89.5156 20.5857 88.7302C20.0825 87.9448 18.6235 87.8889 18.288 86.9357C17.9526 85.9826 18.7353 84.8617 19.2412 84.8617C19.747 84.8617 20.4366 85.1972 20.4366 85.1972L20.1943 80.9373C20.1943 80.9373 23.6129 82.62 25.4073 82.6759C27.2018 82.7318 28.9936 82.4522 28.9936 82.4522C28.9936 82.4522 29.8908 87.8889 28.9936 89.0657C28.0964 90.2424 25.9105 90.0747 25.9105 90.0747C25.9105 90.0747 25.7428 90.8601 26.0783 91.587C26.4137 92.3138 27.3402 92.6226 27.3402 92.6226C27.3402 92.6226 29.7817 97.3138 26.4164 98.4799C22.2098 99.9416 21.9302 96.4672 21.7066 93.8873Z" fill="#AF5E1F"/>
<rect width="82.3085" height="82.3085"/>
<path d="M106.164 70.9718H160.767" stroke="#E6F5FC" stroke-width="5" stroke-miterlimit="10" stroke-linecap="round" stroke-linejoin="round"/>
<path d="M106.164 76.2966H160.767" stroke="#E6F5FC" stroke-width="5" stroke-miterlimit="10" stroke-linecap="round" stroke-linejoin="round"/>
<path d="M106.164 81.6215H160.767" stroke="#E6F5FC" stroke-width="5" stroke-miterlimit="10" stroke-linecap="round" stroke-linejoin="round"/>
<path d="M106.164 86.9463H160.767" stroke="#E6F5FC" stroke-width="5" stroke-miterlimit="10" stroke-linecap="round" stroke-linejoin="round"/>
<path d="M106.164 92.2711H136.303" stroke="#E6F5FC" stroke-width="5" stroke-miterlimit="10" stroke-linecap="round" stroke-linejoin="round"/>
<path d="M121.179 21.8769C119.981 23.4691 115.695 22.263 111.603 19.1852C107.511 16.1075 105.498 12.5265 106.36 10.7321C107.034 9.32899 108.767 7.91791 108.767 7.91791C110.072 8.49565 114.55 12.3828 115.937 13.4238C117.165 14.3476 122.436 17.3056 123.224 18.3412C123.613 18.8498 122.018 20.7614 121.179 21.8769Z" fill="#F65127"/>
<path d="M122.924 19.5511C124.121 17.96 121.774 14.1752 117.682 11.0976C113.59 8.01998 109.303 6.81496 108.106 8.40612C106.91 9.99728 109.257 13.7821 113.348 16.8597C117.44 19.9373 121.728 21.1423 122.924 19.5511Z" fill="#FCB10D"/>
<path d="M153.989 26.6213C158.091 26.6213 161.417 23.2956 161.417 19.1932C161.417 15.0908 158.091 11.7651 153.989 11.7651C149.886 11.7651 146.561 15.0908 146.561 19.1932C146.561 23.2956 149.886 26.6213 153.989 26.6213Z" fill="#F65127"/>
<path d="M156.174 27.8754C160.277 27.8754 163.602 24.5497 163.602 20.4472C163.602 16.3448 160.277 13.0191 156.174 13.0191C152.072 13.0191 148.746 16.3448 148.746 20.4472C148.746 24.5497 152.072 27.8754 156.174 27.8754Z" fill="#FCB10D"/>
<path d="M178.792 36.4776C182.084 36.4776 184.753 33.8087 184.753 30.5164C184.753 27.2242 182.084 24.5553 178.792 24.5553C175.499 24.5553 172.831 27.2242 172.831 30.5164C172.831 33.8087 175.499 36.4776 178.792 36.4776Z" fill="#F65127"/>
<path d="M180.547 37.4866C183.839 37.4866 186.508 34.8177 186.508 31.5255C186.508 28.2332 183.839 25.5643 180.547 25.5643C177.254 25.5643 174.585 28.2332 174.585 31.5255C174.585 34.8177 177.254 37.4866 180.547 37.4866Z" fill="#FCB10D"/>
</svg>
