<svg width="30" height="30" viewBox="0 0 30 30" fill="none" xmlns="http://www.w3.org/2000/svg">
<path d="M13.6613 21.1012C13.5634 21.1015 13.4661 21.0863 13.373 21.056C13.2057 21.0019 13.0569 20.9017 12.9437 20.767C12.8306 20.6323 12.7576 20.4685 12.7332 20.2943C12.6072 19.4154 11.5642 18.3924 10.5875 18.1937C10.4262 18.1604 10.2765 18.0851 10.1536 17.9755C10.0306 17.8659 9.9387 17.7259 9.88708 17.5695C9.83546 17.4131 9.82595 17.2458 9.85952 17.0846C9.89309 16.9233 9.96855 16.7738 10.0783 16.651L22.4469 2.87557C22.458 2.86268 22.4697 2.85037 22.4814 2.83865C23.1028 2.21904 23.9445 1.87109 24.822 1.87109C25.6994 1.87109 26.5411 2.21904 27.1625 2.83865C27.7818 3.45843 28.1303 4.29843 28.1315 5.17463C28.1327 6.05083 27.7866 6.89178 27.1689 7.51326L14.3369 20.814C14.2494 20.9049 14.1445 20.9771 14.0284 21.0265C13.9123 21.0758 13.7874 21.1012 13.6613 21.1012Z" fill="white"/>
<path d="M7.02472 28.1311C5.14152 28.1311 3.18976 27.1414 2.05304 25.6115C1.94944 25.472 1.88664 25.3065 1.87166 25.1334C1.85667 24.9603 1.8901 24.7864 1.96819 24.6312C2.04629 24.476 2.16598 24.3455 2.31392 24.2544C2.46186 24.1632 2.63221 24.115 2.80597 24.115C3.11886 24.115 3.97785 23.8297 3.97785 22.9098C3.97785 20.6205 5.81769 18.7578 8.07941 18.7578C10.3411 18.7578 12.181 20.6205 12.181 22.9098C12.181 25.7879 9.86769 28.1311 7.02472 28.1311Z" fill="white"/>
</svg>
