<svg width="30" height="30" viewBox="0 0 30 30" fill="none" xmlns="http://www.w3.org/2000/svg">
<path d="M14.8663 11.867C14.9056 11.8942 14.9522 11.9088 14.9999 11.9088C15.0477 11.9088 15.0943 11.8942 15.1335 11.867C16.2211 11.1229 17.4604 10.6296 18.7619 10.4228C20.0634 10.216 21.3946 10.3008 22.6593 10.6711C22.6951 10.6819 22.733 10.6839 22.7698 10.6771C22.8065 10.6703 22.8411 10.6547 22.8707 10.6318C22.9002 10.6088 22.9238 10.5792 22.9395 10.5452C22.9553 10.5113 22.9626 10.4741 22.9611 10.4367C22.7812 6.20273 19.2773 2.8125 14.9999 2.8125C10.7226 2.8125 7.21867 6.20273 7.03879 10.4385C7.0372 10.4758 7.04457 10.513 7.0603 10.547C7.07602 10.5809 7.09964 10.6106 7.12918 10.6335C7.15872 10.6565 7.19332 10.672 7.23009 10.6789C7.26686 10.6857 7.30473 10.6836 7.34054 10.6729C8.60526 10.3025 9.93643 10.2177 11.2379 10.4245C12.5394 10.6314 13.7787 11.1246 14.8663 11.8687V11.867Z" fill="white"/>
<path d="M23.7484 12.4551C23.485 13.8175 22.908 15.0999 22.063 16.2006C21.2181 17.3013 20.1285 18.1902 18.8804 18.7967C18.8397 18.8161 18.8055 18.8468 18.7818 18.8852C18.7581 18.9235 18.746 18.9679 18.7468 19.013C18.7468 19.0815 18.7498 19.1501 18.7498 19.2192C18.7504 20.4242 18.5057 21.6167 18.0308 22.7242C17.5558 23.8316 16.8605 24.8308 15.9871 25.661C15.961 25.6857 15.9409 25.716 15.9283 25.7496C15.9158 25.7833 15.9111 25.8194 15.9148 25.8551C15.9184 25.8908 15.9302 25.9253 15.9492 25.9557C15.9683 25.9862 15.994 26.0118 16.0246 26.0307C17.2691 26.7891 18.6987 27.1895 20.156 27.188C24.3789 27.188 28.0134 23.6559 28.1248 19.4337C28.1628 17.9901 27.8082 16.5633 27.0986 15.3057C26.389 14.048 25.3511 13.0067 24.0959 12.2928C24.0633 12.2741 24.0266 12.2635 23.989 12.2619C23.9515 12.2603 23.9141 12.2678 23.88 12.2837C23.8459 12.2997 23.8162 12.3235 23.7933 12.3534C23.7704 12.3832 23.755 12.4181 23.7484 12.4551Z" fill="white"/>
<path d="M22.8851 11.9338C22.8934 11.8792 22.8822 11.8233 22.8534 11.7761C22.8245 11.7289 22.7799 11.6935 22.7275 11.676C21.6247 11.2999 20.4528 11.1706 19.2946 11.297C18.1363 11.4235 17.02 11.8027 16.0243 12.4078C15.994 12.4268 15.9684 12.4524 15.9495 12.4827C15.9306 12.5131 15.9189 12.5474 15.9153 12.5829C15.9116 12.6185 15.9162 12.6544 15.9286 12.688C15.941 12.7215 15.9609 12.7517 15.9868 12.7764C17.3314 14.0557 18.2424 15.7233 18.5925 17.5459C18.5994 17.5828 18.6151 17.6174 18.6382 17.647C18.6613 17.6765 18.6912 17.7001 18.7253 17.7157C18.7594 17.7313 18.7967 17.7385 18.8342 17.7367C18.8716 17.7349 18.9081 17.7241 18.9405 17.7053C19.9926 17.1054 20.8945 16.274 21.5779 15.2741C22.2613 14.2742 22.7083 13.132 22.8851 11.9338Z" fill="white"/>
<path d="M11.2498 19.2197C11.2498 19.1505 11.2498 19.082 11.2528 19.0134C11.2537 18.9683 11.2415 18.924 11.2178 18.8856C11.1941 18.8473 11.1599 18.8166 11.1192 18.7972C9.87116 18.1906 8.78152 17.3018 7.93659 16.201C7.09165 15.1003 6.51462 13.818 6.25121 12.4556C6.24447 12.419 6.2291 12.3845 6.20639 12.355C6.18368 12.3255 6.15427 12.3019 6.1206 12.286C6.08692 12.2702 6.04996 12.2625 6.01276 12.2638C5.97556 12.2651 5.9392 12.2752 5.90668 12.2933C4.65141 13.0071 3.61357 14.0485 2.90398 15.3061C2.1944 16.5638 1.8397 17.9906 1.87777 19.4341C1.99203 23.6564 5.62484 27.1884 9.84652 27.1884C11.3029 27.1894 12.7314 26.789 13.975 26.0312C14.0056 26.0123 14.0314 25.9866 14.0504 25.9562C14.0694 25.9257 14.0812 25.8913 14.0848 25.8556C14.0885 25.8198 14.0838 25.7837 14.0713 25.7501C14.0588 25.7164 14.0387 25.6861 14.0125 25.6615C13.1391 24.8313 12.4438 23.8321 11.9689 22.7246C11.4939 21.6172 11.2493 20.4247 11.2498 19.2197Z" fill="white"/>
<path d="M9.84371 11.25C8.96905 11.2492 8.10029 11.3932 7.27262 11.676C7.22015 11.6935 7.17556 11.7289 7.14671 11.7761C7.11787 11.8233 7.10664 11.8791 7.115 11.9338C7.29179 13.1319 7.7388 14.2742 8.42218 15.2741C9.10557 16.274 10.0074 17.1054 11.0595 17.7053C11.092 17.7241 11.1284 17.7349 11.1659 17.7367C11.2034 17.7385 11.2407 17.7313 11.2748 17.7157C11.3089 17.7001 11.3388 17.6765 11.3619 17.647C11.385 17.6174 11.4007 17.5828 11.4076 17.5459C11.7577 15.7233 12.6687 14.0557 14.0132 12.7764C14.0391 12.7517 14.059 12.7215 14.0714 12.6879C14.0839 12.6544 14.0884 12.6185 14.0848 12.5829C14.0812 12.5473 14.0695 12.5131 14.0506 12.4827C14.0317 12.4524 14.0061 12.4268 13.9757 12.4078C12.7312 11.649 11.3014 11.2484 9.84371 11.25Z" fill="white"/>
<path d="M14.9999 19.6869C14.1527 19.6875 13.3098 19.5667 12.4968 19.3283C12.461 19.3175 12.4231 19.3155 12.3863 19.3223C12.3496 19.3292 12.315 19.3447 12.2854 19.3676C12.2559 19.3906 12.2323 19.4203 12.2165 19.4542C12.2008 19.4881 12.1934 19.5253 12.195 19.5627C12.2405 20.624 12.4981 21.6655 12.9528 22.6256C13.4075 23.5857 14.05 24.4449 14.8423 25.1525C14.8854 25.1917 14.9416 25.2135 14.9999 25.2135C15.0582 25.2135 15.1144 25.1917 15.1575 25.1525C15.9498 24.4449 16.5923 23.5857 17.047 22.6256C17.5017 21.6655 17.7594 20.624 17.8048 19.5627C17.8064 19.5253 17.799 19.4881 17.7833 19.4542C17.7676 19.4203 17.7439 19.3906 17.7144 19.3676C17.6849 19.3447 17.6503 19.3292 17.6135 19.3223C17.5767 19.3155 17.5388 19.3175 17.503 19.3283C16.6901 19.5667 15.8471 19.6875 14.9999 19.6869Z" fill="white"/>
<path d="M17.7287 18.0669C17.4578 16.2217 16.5482 14.5301 15.1582 13.2868C15.1146 13.248 15.0583 13.2266 15 13.2266C14.9416 13.2266 14.8853 13.248 14.8418 13.2868C13.4518 14.5301 12.5421 16.2217 12.2713 18.0669C12.2629 18.1215 12.2741 18.1774 12.303 18.2246C12.3318 18.2718 12.3764 18.3072 12.4289 18.3247C14.0959 18.8927 15.904 18.8927 17.5711 18.3247C17.6235 18.3072 17.6681 18.2718 17.697 18.2246C17.7258 18.1774 17.737 18.1215 17.7287 18.0669Z" fill="white"/>
</svg>
