<svg width="25" height="25" viewBox="0 0 25 25" fill="none" xmlns="http://www.w3.org/2000/svg">
<path d="M21.0938 21.8745C20.9912 21.8747 20.8895 21.8545 20.7947 21.8152C20.7 21.7759 20.6139 21.7183 20.5415 21.6455L3.35402 4.45802C3.21369 4.31032 3.13662 4.11364 3.13922 3.90992C3.14183 3.7062 3.22392 3.51156 3.36798 3.36749C3.51205 3.22343 3.70669 3.14134 3.91041 3.13874C4.11413 3.13613 4.31081 3.2132 4.45851 3.35353L21.646 20.541C21.7552 20.6503 21.8295 20.7895 21.8597 20.941C21.8898 21.0925 21.8743 21.2495 21.8152 21.3922C21.7561 21.5349 21.656 21.6569 21.5276 21.7428C21.3992 21.8286 21.2482 21.8745 21.0938 21.8745Z" fill="white"/>
<path d="M21.0693 9.96086C21.026 9.79309 20.9281 9.64449 20.7911 9.53842C20.6541 9.43235 20.4857 9.37484 20.3124 9.37492H14.9995L16.3769 1.83732C16.3793 1.82268 16.3818 1.80852 16.3832 1.79387C16.4081 1.59842 16.3682 1.4002 16.2697 1.22959C16.1711 1.05898 16.0194 0.925382 15.8376 0.849257C15.6559 0.773132 15.4543 0.75868 15.2635 0.808117C15.0728 0.857554 14.9036 0.968152 14.7817 1.12297L10.2612 6.71184C10.2308 6.74942 10.2154 6.79692 10.2181 6.84517C10.2207 6.89342 10.2411 6.93899 10.2753 6.97307L17.6484 14.3461C17.6677 14.3655 17.691 14.3806 17.7165 14.3904C17.7421 14.4002 17.7694 14.4046 17.7968 14.4032C17.8241 14.4017 17.8509 14.3946 17.8753 14.3821C17.8997 14.3697 17.9212 14.3523 17.9384 14.331L20.9072 10.6611C20.987 10.5651 21.0432 10.4518 21.0714 10.3302C21.0995 10.2086 21.0988 10.0821 21.0693 9.96086Z" fill="white"/>
<path d="M14.725 18.0277L7.35194 10.6547C7.33259 10.6354 7.30941 10.6204 7.28389 10.6106C7.25838 10.6008 7.23109 10.5965 7.2038 10.5979C7.17651 10.5993 7.14982 10.6065 7.12546 10.6189C7.10111 10.6313 7.07962 10.6486 7.06239 10.6698L4.09169 14.3388C4.0119 14.4349 3.95576 14.5484 3.92778 14.6702C3.89979 14.792 3.90075 14.9186 3.93056 15.04C3.97387 15.2077 4.07173 15.3563 4.20874 15.4624C4.34575 15.5685 4.51412 15.626 4.68739 15.6259H10.0013L8.62977 23.163V23.1684C8.59592 23.3648 8.62845 23.5669 8.72222 23.7427C8.81599 23.9186 8.96566 24.0582 9.14761 24.1396C9.32956 24.2209 9.53342 24.2394 9.72701 24.192C9.9206 24.1446 10.0929 24.034 10.2167 23.8778L14.7386 18.289C14.7691 18.2515 14.7845 18.204 14.782 18.1557C14.7795 18.1075 14.7592 18.0619 14.725 18.0277Z" fill="white"/>
</svg>
