<svg width="30" height="30" viewBox="0 0 30 30" fill="none" xmlns="http://www.w3.org/2000/svg">
<path d="M22.0312 9.375H15.9375V18.3615L19.0248 15.2748C19.2021 15.1064 19.4381 15.0139 19.6825 15.017C19.927 15.0202 20.1606 15.1187 20.3334 15.2916C20.5063 15.4644 20.6048 15.698 20.608 15.9425C20.6111 16.1869 20.5186 16.4229 20.3502 16.6002L15.6627 21.2877C15.4869 21.4634 15.2485 21.5621 15 21.5621C14.7515 21.5621 14.5131 21.4634 14.3373 21.2877L9.64981 16.6002C9.48141 16.4229 9.38892 16.1869 9.39205 15.9425C9.39518 15.698 9.49368 15.4644 9.66656 15.2916C9.83944 15.1187 10.073 15.0202 10.3175 15.017C10.5619 15.0139 10.7979 15.1064 10.9752 15.2748L14.0625 18.3615V9.375H7.96875C7.09879 9.37593 6.26474 9.72193 5.64958 10.3371C5.03443 10.9522 4.68843 11.7863 4.6875 12.6562V24.8438C4.68843 25.7137 5.03443 26.5478 5.64958 27.1629C6.26474 27.7781 7.09879 28.1241 7.96875 28.125H22.0312C22.9012 28.1241 23.7353 27.7781 24.3504 27.1629C24.9656 26.5478 25.3116 25.7137 25.3125 24.8438V12.6562C25.3116 11.7863 24.9656 10.9522 24.3504 10.3371C23.7353 9.72193 22.9012 9.37593 22.0312 9.375Z" fill="white"/>
<path d="M15.9375 2.8125C15.9375 2.56386 15.8387 2.3254 15.6629 2.14959C15.4871 1.97377 15.2486 1.875 15 1.875C14.7514 1.875 14.5129 1.97377 14.3371 2.14959C14.1613 2.3254 14.0625 2.56386 14.0625 2.8125V9.375H15.9375V2.8125Z" fill="white"/>
</svg>
