<svg width="30" height="30" viewBox="0 0 30 30" fill="none" xmlns="http://www.w3.org/2000/svg">
<path d="M24.2805 5.71815C23.0639 4.48953 21.6165 3.5134 20.0216 2.84583C18.4266 2.17827 16.7154 1.83242 14.9864 1.82816C13.2574 1.82391 11.5445 2.16133 9.94631 2.82103C8.34807 3.48074 6.89594 4.44974 5.67332 5.67235C4.45071 6.89496 3.48172 8.3471 2.82201 9.94533C2.1623 11.5436 1.82489 13.2564 1.82914 14.9854C1.8334 16.7145 2.17924 18.4256 2.84681 20.0206C3.51437 21.6155 4.49051 23.0629 5.71912 24.2795C6.9357 25.5081 8.38305 26.4842 9.97802 27.1518C11.573 27.8194 13.2841 28.1652 15.0132 28.1695C16.7422 28.1737 18.455 27.8363 20.0533 27.1766C21.6515 26.5169 23.1036 25.5479 24.3262 24.3253C25.5489 23.1027 26.5179 21.6505 27.1776 20.0523C27.8373 18.4541 28.1747 16.7412 28.1704 15.0122C28.1662 13.2832 27.8203 11.572 27.1528 9.97704C26.4852 8.38207 25.5091 6.93473 24.2805 5.71815ZM10.781 12.1863C11.0592 12.1863 11.331 12.2688 11.5623 12.4233C11.7936 12.5778 11.9738 12.7975 12.0802 13.0544C12.1867 13.3114 12.2145 13.5941 12.1603 13.8669C12.106 14.1397 11.9721 14.3903 11.7754 14.5869C11.5787 14.7836 11.3282 14.9175 11.0554 14.9718C10.7826 15.026 10.4998 14.9982 10.2429 14.8918C9.98593 14.7853 9.7663 14.6051 9.61178 14.3738C9.45726 14.1426 9.37479 13.8707 9.37479 13.5926C9.37432 13.4078 9.41038 13.2247 9.48089 13.0539C9.55139 12.883 9.65496 12.7278 9.78563 12.5972C9.91631 12.4665 10.0715 12.3629 10.2423 12.2924C10.4132 12.2219 10.5962 12.1858 10.781 12.1863ZM20.6055 18.4072C19.9023 20.7685 17.664 22.4988 15.0027 22.4988C12.3414 22.4988 10.1031 20.7685 9.39412 18.4072C9.37429 18.3369 9.37118 18.2629 9.38502 18.1912C9.39887 18.1194 9.42929 18.0519 9.47386 17.994C9.51843 17.9361 9.57592 17.8895 9.64173 17.8578C9.70754 17.826 9.77986 17.8101 9.85291 17.8113H20.1472C20.2202 17.8102 20.2925 17.8262 20.3582 17.858C20.424 17.8897 20.4814 17.9364 20.5259 17.9943C20.5704 18.0522 20.6008 18.1196 20.6146 18.1913C20.6284 18.263 20.6253 18.3369 20.6055 18.4072ZM19.2185 14.9988C18.9404 14.9988 18.6685 14.9163 18.4373 14.7618C18.206 14.6073 18.0258 14.3877 17.9193 14.1307C17.8129 13.8737 17.785 13.591 17.8393 13.3182C17.8936 13.0454 18.0275 12.7949 18.2242 12.5982C18.4208 12.4015 18.6714 12.2676 18.9442 12.2133C19.217 12.1591 19.4997 12.1869 19.7567 12.2934C20.0136 12.3998 20.2333 12.58 20.3878 12.8113C20.5423 13.0425 20.6248 13.3144 20.6248 13.5926C20.6252 13.7774 20.5892 13.9604 20.5187 14.1313C20.4482 14.3021 20.3446 14.4573 20.2139 14.588C20.0833 14.7186 19.9281 14.8222 19.7572 14.8927C19.5864 14.9632 19.4033 14.9993 19.2185 14.9988Z" fill="white"/>
</svg>
