<svg width="30" height="30" viewBox="0 0 30 30" fill="none" xmlns="http://www.w3.org/2000/svg">
<path d="M17.1447 23.8932L10.1135 5.1432C10.0214 4.89747 9.85644 4.68571 9.64075 4.53623C9.42506 4.38674 9.16888 4.30664 8.90645 4.30664C8.64402 4.30664 8.38785 4.38674 8.17216 4.53623C7.95647 4.68571 7.79154 4.89747 7.69942 5.1432L0.66817 23.8932C0.551877 24.2125 0.566363 24.5648 0.708476 24.8735C0.850588 25.1821 1.10883 25.4222 1.42703 25.5414C1.74523 25.6607 2.09765 25.6495 2.40762 25.5102C2.71759 25.371 2.96004 25.115 3.08223 24.7979L5.20098 19.1483C5.20933 19.1259 5.22429 19.1067 5.24387 19.0931C5.26344 19.0795 5.28671 19.0722 5.31055 19.0721H12.5024C12.5262 19.0722 12.5495 19.0795 12.569 19.0931C12.5886 19.1067 12.6036 19.1259 12.6119 19.1483L14.7307 24.7979C14.8529 25.115 15.0953 25.371 15.4053 25.5102C15.7153 25.6495 16.0677 25.6607 16.3859 25.5414C16.7041 25.4222 16.9623 25.1821 17.1044 24.8735C17.2465 24.5648 17.261 24.2125 17.1447 23.8932ZM6.25567 16.3346L8.79688 9.55824C8.80532 9.53601 8.82031 9.51686 8.83988 9.50336C8.85946 9.48985 8.88267 9.48261 8.90645 9.48261C8.93023 9.48261 8.95345 9.48985 8.97302 9.50336C8.99259 9.51686 9.00759 9.53601 9.01602 9.55824L11.5572 16.3358C11.5639 16.3535 11.5661 16.3725 11.5637 16.3913C11.5614 16.4101 11.5546 16.428 11.5438 16.4435C11.533 16.4591 11.5187 16.4718 11.5019 16.4806C11.4852 16.4893 11.4666 16.4939 11.4477 16.494H6.36524C6.34633 16.4939 6.32772 16.4893 6.31098 16.4806C6.29424 16.4718 6.27987 16.4591 6.26911 16.4435C6.25834 16.428 6.2515 16.4101 6.24916 16.3913C6.24682 16.3725 6.24905 16.3535 6.25567 16.3358V16.3346Z" fill="white"/>
<path d="M23.4826 9.9318C21.0381 9.91422 18.849 11.3304 17.9162 13.5295C17.7826 13.8441 17.7794 14.199 17.9074 14.516C18.0354 14.8331 18.2841 15.0862 18.5988 15.2199C18.9135 15.3535 19.2684 15.3567 19.5854 15.2287C19.9024 15.1007 20.1556 14.852 20.2893 14.5373C20.8096 13.3132 22.0336 12.5193 23.4135 12.5099C25.3072 12.497 26.8359 14.0627 26.8359 15.9582C26.8359 15.981 26.8271 16.0029 26.8112 16.0193C26.7954 16.0357 26.7738 16.0453 26.751 16.0461C25.4666 16.0818 23.9432 16.1673 22.5838 16.3273C19.3758 16.7047 17.4609 18.4537 17.4609 21.006C17.4609 22.3648 17.9742 23.5841 18.9064 24.4443C19.7813 25.25 20.9766 25.6935 22.2656 25.6935C24.082 25.6935 25.6459 25.2248 26.8324 24.333H26.8359C26.8352 24.5023 26.8678 24.67 26.9319 24.8267C26.996 24.9834 27.0904 25.1259 27.2096 25.2461C27.3287 25.3663 27.4704 25.4619 27.6266 25.5273C27.7827 25.5928 27.9502 25.6269 28.1194 25.6276C28.2887 25.6283 28.4565 25.5957 28.6132 25.5316C28.7698 25.4675 28.9124 25.3732 29.0326 25.254C29.1528 25.1348 29.2484 24.9931 29.3138 24.837C29.3793 24.6809 29.4133 24.5134 29.4141 24.3441V15.9652C29.4141 12.6734 26.7773 9.95583 23.4826 9.9318ZM22.2656 23.1154C21.2385 23.1154 20.0391 22.5629 20.0391 21.006C20.0391 20.3808 20.2635 19.9431 20.7674 19.5863C21.2578 19.2388 22.0096 18.991 22.885 18.8879C24.1225 18.742 25.5111 18.6617 26.7018 18.6259C26.7177 18.6259 26.7334 18.6291 26.748 18.6354C26.7626 18.6416 26.7758 18.6508 26.7868 18.6623C26.7977 18.6738 26.8062 18.6874 26.8118 18.7023C26.8173 18.7172 26.8197 18.7331 26.8189 18.749C26.6602 21.6857 25.1637 23.1154 22.2656 23.1154Z" fill="white"/>
</svg>
