<svg width="15" height="15" viewBox="0 0 15 15" fill="none" xmlns="http://www.w3.org/2000/svg">
    <defs>
        <linearGradient id="paint0_linear_288:489" x1="-0.262491" y1="-0.690333" x2="-0.262491" y2="14.8359" gradientUnits="userSpaceOnUse">
            <stop stop-color="#FE5576"/>
            <stop offset="1" stop-color="#C5425B"/>
        </linearGradient>
        <linearGradient id="paint1_linear_288:489" x1="3.87533" y1="2.60964" x2="3.87533" y2="9.04473" gradientUnits="userSpaceOnUse">
            <stop stop-color="white"/>
            <stop offset="1" stop-color="#D4D5D6"/>
        </linearGradient>
    </defs>

    <path d="M13.2472 0H1.7162C0.768427 0 0 0.768427 0 1.7162V10.5195C0 11.4681 0.768934 12.237 1.71755 12.237H5.10532C5.23413 12.237 5.35465 12.3009 5.42699 12.4076L7.01642 14.7524C7.23971 15.0825 7.725 15.0825 7.9483 14.7524L9.53654 12.4076C9.60888 12.3009 9.72924 12.237 9.85821 12.237H13.2472C14.1956 12.237 14.9645 11.4681 14.9645 10.5196V1.71755C14.9645 0.768934 14.1956 0 13.2472 0Z" fill="url(#paint0_linear_288:489)"/>
<path d="M11.3054 6.03737C11.1375 6.72703 10.7612 7.34958 10.2217 7.82862L8.13918 9.66922C7.94665 9.83944 7.70697 9.92447 7.46525 9.92447C7.21897 9.92447 6.97488 9.83708 6.78235 9.66027L4.74026 7.82186C4.2007 7.34484 3.82443 6.72026 3.65422 6.01928C3.57815 5.75289 3.55347 5.46181 3.58474 5.17513C3.61162 3.99967 4.579 3.00541 5.78353 2.94727C6.34557 2.94946 6.85605 3.15771 7.24348 3.5093C7.3711 3.62577 7.56582 3.62796 7.69361 3.5115C8.09 3.15991 8.60487 2.95403 9.16032 2.95166C10.3851 3.01217 11.3501 4.00406 11.3816 5.21096C11.4083 5.46857 11.386 5.75745 11.3054 6.03737Z" fill="url(#paint1_linear_288:489)"/>

</svg>
