<svg width="23" height="23" viewBox="0 0 23 23" fill="none" xmlns="http://www.w3.org/2000/svg">
    <defs>
        <filter id="filter0_d_288:284" x="0" y="0" width="23" height="23" filterUnits="userSpaceOnUse" color-interpolation-filters="sRGB">
            <feFlood flood-opacity="0" result="BackgroundImageFix"/>
            <feColorMatrix in="SourceAlpha" type="matrix" values="0 0 0 0 0 0 0 0 0 0 0 0 0 0 0 0 0 0 127 0" result="hardAlpha"/>
            <feOffset dy="2"/>
            <feGaussianBlur stdDeviation="2"/>
            <feColorMatrix type="matrix" values="0 0 0 0 0 0 0 0 0 0 0 0 0 0 0 0 0 0 0.3 0"/>
            <feBlend mode="normal" in2="BackgroundImageFix" result="effect1_dropShadow_288:284"/>
            <feBlend mode="normal" in="SourceGraphic" in2="effect1_dropShadow_288:284" result="shape"/>
        </filter>
        <linearGradient id="paint0_linear_288:284" x1="12.4608" y1="9.61245" x2="12.4608" y2="17.2672" gradientUnits="userSpaceOnUse">
            <stop stop-color="#C54942"/>
            <stop offset="1" stop-color="#FF6961"/>
        </linearGradient>
        <linearGradient id="paint1_linear_288:284" x1="5.05228" y1="3.18002" x2="5.05228" y2="12.701" gradientUnits="userSpaceOnUse">
            <stop stop-color="white"/>
            <stop offset="1" stop-color="#E6E7E8"/>
        </linearGradient>
        <linearGradient id="paint2_linear_288:284" x1="7.70658" y1="3.65855" x2="7.70658" y2="9.35773" gradientUnits="userSpaceOnUse">
            <stop stop-color="#C54942"/>
            <stop offset="1" stop-color="#FF6961"/>
        </linearGradient>
        <linearGradient id="paint3_linear_288:284" x1="8.98993" y1="9.19456" x2="8.98993" y2="10.554" gradientUnits="userSpaceOnUse">
            <stop stop-color="#C54942"/>
            <stop offset="1" stop-color="#FF6961"/>
        </linearGradient>
        <linearGradient id="paint4_linear_288:284" x1="-0.888608" y1="7.32111" x2="9.29937" y2="18.8592" gradientUnits="userSpaceOnUse">
            <stop stop-color="#437891"/>
            <stop offset="1" stop-color="#45B4E7"/>
        </linearGradient>
    </defs>

    <g filter="url(#filter0_d_288:284)">
<path d="M15.961 12.0754C15.6453 11.7597 15.1315 11.7598 14.8161 12.0754L14.778 12.1135L14.2405 11.5758C15.1033 10.5616 15.625 9.24843 15.625 7.8125C15.625 4.60233 13.0227 2 9.8125 2C6.60233 2 4 4.60233 4 7.8125C4 11.0227 6.60233 13.625 9.8125 13.625C11.2483 13.625 12.5616 13.1033 13.5758 12.2405L14.1133 12.7782L14.0753 12.8161C13.7597 13.1317 13.7597 13.6455 14.0753 13.961L16.8769 16.7627C17.0298 16.9157 17.233 17 17.4494 17C17.6657 17 17.8688 16.9157 18.0217 16.7627L18.7626 16.0219C18.9156 15.869 18.9997 15.6657 18.9997 15.4494C18.9997 15.2331 18.9156 15.0298 18.7626 14.8769L15.961 12.0754Z" fill="white"/>
<path d="M18.763 14.8756L15.9613 12.0738C15.6456 11.7581 15.1318 11.7582 14.8163 12.0738L14.7783 12.1119L14.2408 11.5742C14.0373 11.8134 13.8151 12.0356 13.5759 12.239L14.1134 12.7767L14.0755 12.8146C13.7599 13.1302 13.7599 13.644 14.0755 13.9596L16.8772 16.7613C17.0301 16.9143 17.2333 16.9985 17.4497 16.9985C17.6659 16.9985 17.8691 16.9143 18.022 16.7613L18.7628 16.0204C18.9158 15.8675 19 15.6642 19 15.4479C19.0002 15.2317 18.916 15.0284 18.763 14.8756Z" fill="url(#paint0_linear_288:284)"/>
<path d="M12.8228 4.80189C11.9925 3.97168 10.9022 3.55664 9.81164 3.55664C8.72112 3.55664 7.63074 3.97168 6.80053 4.80189C5.14038 6.46218 5.14038 9.16368 6.80053 10.8241C7.60489 11.6283 8.67409 12.0714 9.81164 12.0714C10.9492 12.0714 12.0184 11.6285 12.8228 10.8241C13.6271 10.0198 14.07 8.95041 14.07 7.813C14.07 6.67545 13.6271 5.60611 12.8228 4.80189Z" fill="url(#paint1_linear_288:284)"/>
<path d="M10.1391 5.11914H9.66947C8.94014 5.11914 8.34692 5.7125 8.34692 6.44183C8.34692 6.66661 8.52908 6.84863 8.75372 6.84863C8.97836 6.84863 9.16051 6.66647 9.16051 6.44183C9.16051 6.16121 9.38871 5.93287 9.66947 5.93287H10.1391C10.4197 5.93287 10.648 6.16121 10.648 6.44183C10.648 6.73282 10.4923 7.00521 10.2417 7.15269L10.1261 7.22061C9.58621 7.53817 9.25088 8.12471 9.25088 8.75089C9.25088 8.97567 9.43304 9.15768 9.65768 9.15768C9.88232 9.15768 10.0645 8.97553 10.0645 8.75089C10.0645 8.41158 10.2461 8.09402 10.5383 7.92209L10.6539 7.85418C11.1522 7.56105 11.4615 7.01998 11.4615 6.44183C11.4618 5.7125 10.8684 5.11914 10.1391 5.11914Z" fill="url(#paint2_linear_288:284)"/>
<path d="M9.66966 9.54297C9.40368 9.54297 9.18799 9.75866 9.18799 10.0246C9.18799 10.2906 9.40368 10.5063 9.66966 10.5063C9.93565 10.5063 10.1513 10.2906 10.1513 10.0246C10.1515 9.75866 9.93579 9.54297 9.66966 9.54297Z" fill="url(#paint3_linear_288:284)"/>
<path fill-rule="evenodd" clip-rule="evenodd" d="M4 7.8125C4 4.60233 6.60233 2 9.8125 2C13.0225 2 15.625 4.60233 15.6251 7.81236C15.6251 9.24829 15.1034 10.5615 14.2406 11.5757C14.0372 11.8148 13.815 12.037 13.5758 12.2405C12.5616 13.1033 11.2483 13.625 9.8125 13.625C6.60233 13.625 4 11.0227 4 7.8125ZM9.8117 12.0711C10.9493 12.0711 12.0185 11.6281 12.8228 10.8239C13.6272 10.0195 14.0701 8.95017 14.0701 7.81262C14.0701 6.67521 13.6272 5.60586 12.8228 4.80165C11.9926 3.97143 10.9022 3.5564 9.8117 3.5564C8.72118 3.5564 7.63081 3.97143 6.80059 4.80165C5.14044 6.46194 5.14044 9.16344 6.80059 10.8239C7.60495 11.6282 8.67415 12.0711 9.8117 12.0711Z" fill="url(#paint4_linear_288:284)"/>
</g>

</svg>
