<svg width="15" height="15" viewBox="0 0 15 15" fill="none" xmlns="http://www.w3.org/2000/svg">
    <defs>
        <linearGradient id="paint0_linear_288:527" x1="9.0599" y1="15" x2="9.0599" y2="7.5" gradientUnits="userSpaceOnUse">
            <stop stop-color="#C5425B"/>
            <stop offset="1" stop-color="#FE5576"/>
        </linearGradient>
        <linearGradient id="paint1_linear_288:527" x1="12.2825" y1="-4.48977" x2="7.72946" y2="3.06015" gradientUnits="userSpaceOnUse">
            <stop stop-color="#067ED6"/>
            <stop offset="1" stop-color="#00B2FF"/>
        </linearGradient>
    </defs>

    <path d="M9.05985 11.2496C9.05985 12.1117 8.36192 12.8103 7.5 12.8103V15H1.55289C0.695144 15 0 14.3047 0 13.4471V7.5H2.19058C2.19058 8.36123 2.88851 9.05985 3.75044 9.05985C4.61166 9.05985 5.31029 8.36105 5.31029 7.5H7.5V9.68971C8.3621 9.68971 9.05985 10.3883 9.05985 11.2496Z" fill="url(#paint0_linear_288:527)"/>
<path d="M15 1.55289V7.5H12.8103C12.8103 6.6379 12.1115 5.94015 11.2505 5.94015C10.3884 5.94015 9.69062 6.63808 9.69062 7.5H7.50004V5.31029C6.63881 5.31029 5.94019 4.61149 5.94019 3.74956C5.94019 2.88834 6.63899 2.18971 7.50004 2.18971V0H13.448C14.3049 0 15 0.695144 15 1.55289Z" fill="url(#paint1_linear_288:527)"/>

</svg>
