<svg width="15" height="15" viewBox="0 0 15 15" fill="none" xmlns="http://www.w3.org/2000/svg">
    <defs>
        <linearGradient id="paint0_linear_288:412" x1="4.64951" y1="-6.38426" x2="-6.63698" y2="6.36074" gradientUnits="userSpaceOnUse">
            <stop stop-color="#C5DBE3"/>
            <stop offset="1" stop-color="#88A4AC"/>
        </linearGradient>
        <linearGradient id="paint1_linear_288:412" x1="8.55802" y1="5.02356" x2="8.55802" y2="11.0252" gradientUnits="userSpaceOnUse">
            <stop stop-color="#00C8FF"/>
            <stop offset="1" stop-color="#0690D6"/>
        </linearGradient>
        <linearGradient id="paint2_linear_288:412" x1="5.70046" y1="10.3406" x2="5.70046" y2="17.566" gradientUnits="userSpaceOnUse">
            <stop stop-color="#00C8FF"/>
            <stop offset="1" stop-color="#0690D6"/>
        </linearGradient>
    </defs>

    <path d="M10.1234 13.4814H1.50059C0.671798 13.4814 0 12.8096 0 11.9808V1.50059C0 0.671798 0.671798 0 1.50059 0H10.1234C10.9522 0 11.624 0.671798 11.624 1.50059V11.9808C11.6242 12.8094 10.9522 13.4814 10.1234 13.4814Z" fill="url(#paint0_linear_288:412)"/>
<circle cx="11.5588" cy="8.07785" r="2.07004" fill="url(#paint1_linear_288:412)"/>
<path d="M14.4748 11.3816C14.0931 11.0124 13.5256 10.7793 12.8924 10.7793H10.2255C9.59226 10.7793 9.02481 11.0124 8.64306 11.3816C8.328 11.6845 8.13721 12.0792 8.13721 12.5107V14.2763C8.13721 14.6753 8.52713 14.9995 9.00845 14.9995H14.1096C14.5909 14.9995 14.9808 14.6753 14.9808 14.2763V12.5105C14.9808 12.0792 14.7899 11.6845 14.4748 11.3816Z" fill="url(#paint2_linear_288:412)"/>
<path d="M4.10524 2.33984H9.37188C9.62288 2.33984 9.82649 2.5433 9.82649 2.79445C9.82649 3.04545 9.62303 3.24906 9.37188 3.24906H4.10524C3.85424 3.24906 3.65063 3.04545 3.65063 2.79445C3.65063 2.54345 3.85409 2.33984 4.10524 2.33984Z" fill="white"/>
<path d="M2.38126 11.2708C2.05895 11.2708 1.79761 11.0095 1.79761 10.6872C1.79761 10.3649 2.05895 10.1035 2.38126 10.1035C2.70358 10.1035 2.96492 10.3649 2.96492 10.6872C2.96492 11.0095 2.70358 11.2708 2.38126 11.2708Z" fill="white"/>
<path d="M2.38126 8.63997C2.05895 8.63997 1.79761 8.37863 1.79761 8.05631C1.79761 7.734 2.05895 7.47266 2.38126 7.47266C2.70358 7.47266 2.96492 7.734 2.96492 8.05631C2.96492 8.37863 2.70358 8.63997 2.38126 8.63997Z" fill="white"/>
<path d="M2.38126 6.00911C2.05895 6.00911 1.79761 5.74777 1.79761 5.42545C1.79761 5.10314 2.05895 4.8418 2.38126 4.8418C2.70358 4.8418 2.96492 5.10314 2.96492 5.42545C2.96492 5.74777 2.70358 6.00911 2.38126 6.00911Z" fill="white"/>
<path d="M2.38126 3.37825C2.05895 3.37825 1.79761 3.11691 1.79761 2.79459C1.79761 2.47228 2.05895 2.21094 2.38126 2.21094C2.70358 2.21094 2.96492 2.47228 2.96492 2.79459C2.96492 3.11691 2.70358 3.37825 2.38126 3.37825Z" fill="white"/>
<path d="M6.62557 11.1416H4.10524C3.85424 11.1416 3.65063 10.938 3.65063 10.687C3.65063 10.436 3.85409 10.2324 4.10524 10.2324H6.62557C6.87656 10.2324 7.08017 10.436 7.08017 10.687C7.08002 10.938 6.87656 11.1416 6.62557 11.1416Z" fill="white"/>
<path d="M7.32407 8.51078H4.10524C3.85424 8.51078 3.65063 8.30717 3.65063 8.05617C3.65063 7.80517 3.85409 7.60156 4.10524 7.60156H7.32422C7.57522 7.60156 7.77883 7.80517 7.77883 8.05617C7.77868 8.30732 7.57522 8.51078 7.32407 8.51078Z" fill="white"/>
<path d="M4.10524 5.87992C3.85424 5.87992 3.65063 5.67646 3.65063 5.42531C3.65063 5.17416 3.85409 4.9707 4.10524 4.9707H8.82373C9.07473 4.9707 9.27834 5.17416 9.27834 5.42531C9.27834 5.67646 9.07488 5.87992 8.82373 5.87992H4.10524Z" fill="white"/>

</svg>
