<svg width="18" height="14" viewBox="0 0 18 14" fill="none" xmlns="http://www.w3.org/2000/svg">
<path d="M13.1918 0V1.25631C13.1918 1.6152 12.9225 1.8845 12.5636 1.8845H10.0509C9.01774 1.8845 8.16637 2.73588 8.16637 3.76908H9.42273C9.42273 3.41019 9.69203 3.14089 10.0509 3.14089H12.5636C13.5968 3.14089 14.4482 2.28948 14.4482 1.25631V0H13.1918ZM4.39727 5.02539C1.97617 5.02539 0 7.00161 0 9.42273C0 11.8438 1.97617 13.82 4.39727 13.82C6.13118 13.82 7.59785 12.7871 8.31237 11.3207H9.27673C9.99125 12.7871 11.4579 13.82 13.1918 13.82C15.6129 13.82 17.5891 11.8438 17.5891 9.42273C17.5891 7.00161 15.6129 5.02539 13.1918 5.02539H4.39727ZM3.76909 7.53816H5.02546V8.79454H6.28182V10.0508H5.02546V11.3072H3.76909V10.0508H2.51273V8.79454H3.76909V7.53816ZM13.1918 7.53816C13.3584 7.53816 13.5182 7.60432 13.636 7.72212C13.7538 7.83993 13.82 7.99974 13.82 8.16635C13.82 8.33295 13.7538 8.4927 13.636 8.6105C13.5182 8.72831 13.3584 8.79454 13.1918 8.79454C13.0252 8.79454 12.8654 8.72831 12.7476 8.6105C12.6298 8.4927 12.5636 8.33295 12.5636 8.16635C12.5636 7.99974 12.6298 7.83993 12.7476 7.72212C12.8654 7.60432 13.0252 7.53816 13.1918 7.53816ZM11.9355 8.79454C12.018 8.79454 12.0996 8.81072 12.1759 8.84229C12.2521 8.87386 12.3213 8.92017 12.3797 8.9785C12.438 9.03684 12.4843 9.10611 12.5158 9.18232C12.5474 9.25854 12.5636 9.34024 12.5636 9.42273C12.5636 9.58933 12.4975 9.74908 12.3796 9.86688C12.2618 9.98469 12.1021 10.0508 11.9355 10.0508C11.7689 10.0508 11.6091 9.98469 11.4913 9.86688C11.3735 9.74908 11.3073 9.58933 11.3073 9.42273C11.3073 9.34024 11.3235 9.25854 11.3551 9.18232C11.3867 9.10611 11.4329 9.03684 11.4913 8.9785C11.5496 8.92017 11.6188 8.87386 11.6951 8.84229C11.7713 8.81072 11.853 8.79454 11.9355 8.79454ZM14.4482 8.79454C14.5307 8.79454 14.6124 8.81072 14.6886 8.84229C14.7648 8.87386 14.8341 8.92017 14.8924 8.9785C14.9507 9.03684 14.997 9.10611 15.0286 9.18232C15.0601 9.25854 15.0764 9.34024 15.0764 9.42273C15.0764 9.58933 15.0102 9.74908 14.8924 9.86688C14.7746 9.98469 14.6148 10.0508 14.4482 10.0508C14.2816 10.0508 14.1218 9.98469 14.004 9.86688C13.8862 9.74908 13.82 9.58933 13.82 9.42273C13.82 9.34024 13.8363 9.25854 13.8678 9.18232C13.8994 9.10611 13.9457 9.03684 14.004 8.9785C14.0623 8.92017 14.1316 8.87386 14.2078 8.84229C14.284 8.81072 14.3657 8.79454 14.4482 8.79454ZM13.1918 10.0508C13.3584 10.0508 13.5182 10.1171 13.636 10.2349C13.7538 10.3527 13.82 10.5124 13.82 10.679C13.82 10.7615 13.8038 10.8432 13.7722 10.9194C13.7406 10.9957 13.6944 11.0649 13.636 11.1233C13.5777 11.1816 13.5084 11.2278 13.4322 11.2594C13.356 11.291 13.2743 11.3072 13.1918 11.3072C13.1093 11.3072 13.0276 11.291 12.9514 11.2594C12.8752 11.2278 12.806 11.1816 12.7476 11.1233C12.6893 11.0649 12.643 10.9957 12.6115 10.9194C12.5799 10.8432 12.5636 10.7615 12.5636 10.679C12.5636 10.5124 12.6298 10.3527 12.7476 10.2349C12.8654 10.1171 13.0252 10.0508 13.1918 10.0508Z" fill="#D54763"/>
</svg>
