<svg width="21" height="20" viewBox="0 0 21 20" fill="none" xmlns="http://www.w3.org/2000/svg">
<path d="M19.9238 18.1116L18.5508 14.1157C19.2112 12.7808 19.5604 11.2929 19.5628 9.79571C19.5667 7.21751 18.5692 4.77966 16.7538 2.93138C14.9382 1.08275 12.5187 0.042202 9.94112 0.00130363C8.5907 -0.020376 7.28031 0.228452 6.04437 0.740053C4.8523 1.23353 3.78328 1.94833 2.86703 2.86458C1.95074 3.78083 1.23594 4.84985 0.742499 6.04192C0.230898 7.27786 -0.0176568 8.58891 0.00371041 9.93868C0.0445307 12.5162 1.08512 14.9357 2.93375 16.7514C4.77843 18.5632 7.20999 19.5605 9.78265 19.5604C9.78769 19.5604 9.793 19.5604 9.79804 19.5604C11.2952 19.5581 12.7832 19.2088 14.1181 18.5484L18.1139 19.9214C18.2676 19.9743 18.4251 20 18.5809 20C18.951 20 19.311 19.8546 19.5839 19.5816C19.9718 19.1937 20.1021 18.6304 19.9238 18.1116ZM18.7455 18.7431C18.7061 18.7825 18.6219 18.8421 18.4992 18.8L14.2651 17.3451C14.2025 17.3236 14.1373 17.3129 14.0724 17.3129C13.9767 17.3129 13.8814 17.3361 13.7951 17.3818C12.5714 18.0291 11.1886 18.3725 9.79616 18.3746C5.12625 18.3822 1.26328 14.5891 1.1893 9.91989C1.15207 7.57071 2.04566 5.36286 3.70547 3.70306C5.36527 2.04329 7.57245 1.14986 9.9223 1.18701C14.5914 1.26103 18.3842 5.12208 18.3769 9.79388C18.3748 11.1864 18.0314 12.5692 17.3841 13.7928C17.3074 13.9377 17.2942 14.1078 17.3474 14.2627L18.8024 18.4969C18.8445 18.6195 18.7848 18.7038 18.7455 18.7431Z" fill="#0C3C5C"/>
<path d="M9.68641 14.1699C9.37629 14.1699 9.07918 14.4426 9.09352 14.7628C9.10789 15.084 9.35402 15.3557 9.68641 15.3557C9.99652 15.3557 10.2936 15.083 10.2793 14.7628C10.2649 14.4416 10.0188 14.1699 9.68641 14.1699Z" fill="#0C3C5C"/>
<path d="M9.68637 4.98633C8.05985 4.98633 6.73657 6.30961 6.73657 7.93613C6.73657 8.26355 7.00204 8.52902 7.32946 8.52902C7.65688 8.52902 7.92235 8.26355 7.92235 7.93613C7.92235 6.96347 8.71372 6.17211 9.68637 6.17211C10.659 6.17211 11.4504 6.96347 11.4504 7.93613C11.4504 8.90879 10.659 9.70015 9.68637 9.70015C9.35895 9.70015 9.09348 9.96562 9.09348 10.293V12.7112C9.09348 13.0386 9.35895 13.3041 9.68637 13.3041C10.0138 13.3041 10.2793 13.0387 10.2793 12.7112V10.826C11.6226 10.5509 12.6362 9.35964 12.6362 7.93613C12.6362 6.30961 11.3129 4.98633 9.68637 4.98633Z" fill="#0C3C5C"/>
</svg>
