<svg width="21" height="21" viewBox="0 0 21 21" fill="none" xmlns="http://www.w3.org/2000/svg">
<path d="M10 19.183H2.49999C2.03998 19.183 1.66667 18.8096 1.66667 18.3497V3.34963C1.66667 2.88963 2.04002 2.51632 2.49999 2.51632H10C10.4608 2.51632 10.8333 2.14383 10.8333 1.683C10.8333 1.22218 10.4608 0.849609 10 0.849609H2.49999C1.12166 0.849609 0 1.9713 0 3.34963V18.3496C0 19.728 1.12166 20.8496 2.49999 20.8496H10C10.4608 20.8496 10.8333 20.4771 10.8333 20.0163C10.8333 19.5555 10.4608 19.183 10 19.183Z" fill="#0C3C5C"/>
<path d="M19.8184 10.2555L14.7517 5.25554C14.4251 4.9322 13.8967 4.93639 13.5734 5.26388C13.2501 5.59138 13.2534 6.11887 13.5818 6.44221L17.2026 10.0155H7.50006C7.03924 10.0155 6.66675 10.388 6.66675 10.8488C6.66675 11.3097 7.03924 11.6822 7.50006 11.6822H17.2026L13.5818 15.2555C13.2534 15.5789 13.2509 16.1064 13.5734 16.4338C13.7367 16.5988 13.9517 16.6822 14.1667 16.6822C14.3784 16.6822 14.5901 16.6022 14.7517 16.4422L19.8184 11.4421C19.9767 11.2855 20.0667 11.0721 20.0667 10.8488C20.0667 10.6256 19.9776 10.4131 19.8184 10.2555Z" fill="#0C3C5C"/>
</svg>
