<svg width="16" height="15" viewBox="0 0 16 15" fill="none" xmlns="http://www.w3.org/2000/svg">
    <defs>
        <linearGradient id="paint0_linear_288:508" x1="0.302996" y1="-0.659543" x2="0.302996" y2="13.7417" gradientUnits="userSpaceOnUse">
            <stop stop-color="#C5DBE3"/>
            <stop offset="1" stop-color="#88A4AC"/>
        </linearGradient>
    </defs>

    <path d="M14.7796 0.256703C14.5269 0.0459891 14.1966 -0.0416653 13.8643 0.0186616L5.74291 1.62222C5.11266 1.73652 4.65548 2.28444 4.65548 2.92501V5.49826V10.9454C4.17166 10.6666 3.56942 10.5011 2.90652 10.5011C1.27683 10.5011 0 11.4894 0 12.7507C0 14.0121 1.27683 15 2.90652 15C4.5307 15 5.80341 14.0186 5.812 12.7633C5.812 12.759 5.8132 12.7552 5.8132 12.7509V5.97486L14.0185 4.37148V9.1165C13.5347 8.83772 12.9325 8.67221 12.2696 8.67221C10.6399 8.67221 9.36304 9.66013 9.36304 10.9215C9.36304 12.1829 10.6399 13.1711 12.2696 13.1711C13.8946 13.1711 15.1678 12.1885 15.1752 10.9323C15.1752 10.9285 15.1764 10.9249 15.1764 10.921V3.66852V1.10575C15.1764 0.776958 15.0317 0.46759 14.7796 0.256703Z" fill="url(#paint0_linear_288:508)"/>

</svg>
