<svg width="25" height="25" viewBox="0 0 25 25" fill="none" xmlns="http://www.w3.org/2000/svg">
<path d="M18.75 8.3335C18.75 6.67589 18.0915 5.08618 16.9194 3.91408C15.7473 2.74198 14.1576 2.0835 12.5 2.0835C10.8424 2.0835 9.25268 2.74198 8.08058 3.91408C6.90848 5.08618 6.25 6.67589 6.25 8.3335C6.25 15.6252 3.125 17.7085 3.125 17.7085H21.875C21.875 17.7085 18.75 15.6252 18.75 8.3335Z" stroke="#CDCDCD" stroke-width="1.5" stroke-linecap="round" stroke-linejoin="round"/>
<path d="M14.3022 21.875C14.119 22.1907 13.8562 22.4528 13.5399 22.6349C13.2236 22.8171 12.8651 22.913 12.5001 22.913C12.1351 22.913 11.7765 22.8171 11.4603 22.6349C11.144 22.4528 10.8811 22.1907 10.698 21.875" stroke="#CDCDCD" stroke-width="1.5" stroke-linecap="round" stroke-linejoin="round"/>
</svg>
