<svg width="17" height="18" viewBox="0 0 17 18" fill="none" xmlns="http://www.w3.org/2000/svg">
    <defs>
        <linearGradient id="paint0_linear" x1="6.04465" y1="6.51176" x2="11.6149" y2="11.1727" gradientUnits="userSpaceOnUse">
            <stop stop-color="#FAFBFC"/>
            <stop offset="1" stop-color="#EAECF0"/>
        </linearGradient>
    </defs>
    <path d="M8.39998 17.4001C7.2655 17.4001 6.16617 17.178 5.13075 16.7402C4.13048 16.3167 3.23248 15.7112 2.46071 14.9394C1.68894 14.1676 1.08335 13.2696 0.661517 12.2693C0.222103 11.2339 0 10.1346 0 9.0001C0 7.86561 0.222103 6.76628 0.659919 5.73086C1.08335 4.73059 1.68894 3.83259 2.46071 3.06082C3.23248 2.28905 4.13048 1.68345 5.13075 1.26162C6.16617 0.822202 7.2655 0.600098 8.39998 0.600098C9.53447 0.600098 10.6338 0.822202 11.6692 1.26002C12.6695 1.68345 13.5675 2.28905 14.3393 3.06082C15.111 3.83259 15.7166 4.73059 16.14 5.73086C16.5779 6.76628 16.8 7.86561 16.8 9.0001C16.8 10.1346 16.5779 11.2339 16.14 12.2693C15.7166 13.2696 15.111 14.1676 14.3393 14.9394C13.5675 15.7112 12.6695 16.3167 11.6692 16.7402C10.6338 17.178 9.53447 17.4001 8.39998 17.4001Z" fill="#FF6961"/>
<path d="M8.57741 12.6367L8.36329 11.9528L8.26422 12.0023C8.22747 12.0215 8.19711 12.0359 8.17314 12.0471L7.71615 11.6636L7.76569 11.9208C7.80723 12.1398 7.8296 12.5648 7.51162 12.9611C7.3039 13.2199 6.98113 13.4308 6.5545 13.5858C6.04637 13.7712 5.38485 13.8798 4.58752 13.9102C4.47726 13.124 4.46768 12.4561 4.55875 11.924C4.63545 11.475 4.78405 11.1219 5.00136 10.871C5.33053 10.4892 5.74917 10.4316 5.96968 10.4316C5.97447 10.4316 5.97926 10.4316 5.98406 10.4316L6.24611 10.4348L5.78912 10.0513C5.79551 10.0258 5.8051 9.99381 5.81788 9.95387L5.84984 9.84841L5.13878 9.75893L3.3252 11.2977L4.41015 8.46465L6.66156 7.95972L6.68233 7.92297C7.31029 6.78209 8.08366 5.85533 8.98327 5.16825C10.1609 4.26705 11.5367 3.79727 13.0722 3.7749C13.3199 5.28968 13.101 6.72617 12.4219 8.04441C11.9042 9.04947 11.1276 9.97464 10.1162 10.7943L10.0826 10.8215L9.98194 13.1272L7.38379 14.6947L8.57741 12.6367ZM7.97661 9.35626C7.8312 9.35626 7.69218 9.42657 7.6043 9.54321L5.69165 12.127C5.60696 12.242 5.62613 12.405 5.73639 12.4961L5.77953 12.5312C5.82906 12.5728 5.88978 12.5951 5.9537 12.5951C6.0288 12.5951 6.1007 12.5648 6.15183 12.5105L8.3585 10.1712C8.44638 10.0769 8.49112 9.95547 8.48313 9.82604C8.47514 9.69661 8.41762 9.58156 8.31855 9.49847L8.27541 9.46332C8.19072 9.39461 8.08526 9.35626 7.97661 9.35626ZM10.7521 5.32164C10.3878 5.32164 10.0459 5.48143 9.81256 5.76106C9.60324 6.01192 9.50258 6.3299 9.53134 6.65586C9.5601 6.98183 9.71509 7.27743 9.96596 7.48676C10.1865 7.67051 10.4645 7.77277 10.7521 7.77277C11.1164 7.77277 11.4584 7.61299 11.6917 7.33336C12.1247 6.81565 12.056 6.04068 11.5383 5.60766C11.3178 5.4239 11.0381 5.32164 10.7521 5.32164Z" fill="url(#paint0_linear)"/>

</svg>
