<svg width="19" height="19" viewBox="0 0 19 19" fill="none" xmlns="http://www.w3.org/2000/svg">
<path d="M2.56635 14.4183C2.61355 14.2445 2.50923 14.003 2.40968 13.8289C2.37868 13.777 2.34505 13.7266 2.30893 13.6781C1.45508 12.3832 0.999985 10.8662 1.00004 9.31517C0.986157 4.86295 4.67803 1.25 9.2433 1.25C13.2247 1.25 16.5481 4.0082 17.3247 7.66953C17.4411 8.21236 17.4998 8.76596 17.5 9.32112C17.5 13.7797 13.9506 17.4494 9.38529 17.4494C8.65945 17.4494 7.67976 17.2669 7.1455 17.1174C6.61123 16.9678 6.07776 16.7695 5.94012 16.7164C5.79936 16.6623 5.64987 16.6344 5.49907 16.6343C5.33435 16.6336 5.17122 16.6664 5.01953 16.7306L2.32916 17.7016C2.27022 17.727 2.20777 17.7433 2.14393 17.75C2.09356 17.7498 2.04372 17.7397 1.99729 17.7201C1.95087 17.7006 1.90878 17.672 1.87348 17.6361C1.83817 17.6002 1.81035 17.5576 1.79162 17.5108C1.77289 17.4641 1.76362 17.414 1.76435 17.3637C1.76766 17.3195 1.77564 17.2757 1.78815 17.2332L2.56635 14.4183Z" stroke="#CDCDCD" stroke-width="1.25" stroke-miterlimit="10" stroke-linecap="round"/>
</svg>
