<svg width="21" height="21" viewBox="0 0 21 21" fill="none" xmlns="http://www.w3.org/2000/svg">
<path d="M19.875 10.5C19.875 5.32422 15.6758 1.125 10.5 1.125C5.32422 1.125 1.125 5.32422 1.125 10.5C1.125 15.6758 5.32422 19.875 10.5 19.875C15.6758 19.875 19.875 15.6758 19.875 10.5Z" stroke="#CDCDCD" stroke-width="1.5" stroke-miterlimit="10"/>
<path d="M9.58546 8.12309L9.5855 8.12307L15.0713 5.92876L12.877 11.4145L12.877 11.4146C12.7449 11.7447 12.5472 12.0446 12.2958 12.296C12.0444 12.5474 11.7445 12.7452 11.4143 12.8772L11.4143 12.8772L5.92851 15.0715L8.12283 9.58574L8.12284 9.5857C8.25487 9.25556 8.45259 8.95568 8.70401 8.70426C8.95544 8.45284 9.25532 8.25511 9.58546 8.12309ZM15.166 5.69189L15.166 5.69206C15.166 5.69197 15.166 5.69187 15.1661 5.69178L15.166 5.69189ZM5.83372 15.3085L5.83376 15.3084L5.83372 15.3085ZM11.89 9.5713L11.4743 9.84908L11.89 9.5713C11.7063 9.29636 11.4452 9.08207 11.1397 8.95553C10.8342 8.82899 10.498 8.79588 10.1737 8.86039C9.84942 8.9249 9.55152 9.08413 9.3177 9.31795C9.08389 9.55176 8.92466 9.84966 8.86015 10.174C8.79564 10.4983 8.82875 10.8344 8.95529 11.1399C9.08183 11.4454 9.29612 11.7065 9.57105 11.8903C9.84599 12.074 10.1692 12.172 10.4999 12.172C10.9433 12.172 11.3686 11.9959 11.6821 11.6823C11.9956 11.3688 12.1718 10.9436 12.1718 10.5001C12.1718 10.1695 12.0737 9.84624 11.89 9.5713Z" fill="#CDCDCD" stroke="#CDCDCD"/>
</svg>
