<svg width="15" height="16" viewBox="0 0 15 16" fill="none" xmlns="http://www.w3.org/2000/svg">
<circle cx="4.62867" cy="6.45679" r="1.02857" fill="#F7B928"/>
<circle cx="9.77174" cy="6.45679" r="1.02857" fill="#F7B928"/>
<path fill-rule="evenodd" clip-rule="evenodd" d="M0.000244141 7.9998C0.000244141 4.02386 3.2243 0.799805 7.20024 0.799805C11.1757 0.799805 14.4002 4.02386 14.4002 7.9998C14.4002 11.9752 11.1757 15.1998 7.20024 15.1998C3.2243 15.1998 0.000244141 11.9752 0.000244141 7.9998ZM1.02876 7.9998C1.02876 11.4028 3.79716 14.1712 7.20019 14.1712C10.6032 14.1712 13.3716 11.4028 13.3716 7.9998C13.3716 4.59677 10.6032 1.82837 7.20019 1.82837C3.79716 1.82837 1.02876 4.59677 1.02876 7.9998Z" fill="#F7B928"/>
<path d="M9.38235 10.182C8.17841 11.3849 6.22155 11.3849 5.01864 10.182C4.81755 9.98036 4.49253 9.98036 4.29144 10.182C4.09035 10.383 4.09035 10.7076 4.29144 10.9092C5.09373 11.7114 6.14698 12.1121 7.20075 12.1121C8.25453 12.1121 9.30778 11.7109 10.1101 10.9092C10.3112 10.7076 10.3112 10.383 10.1101 10.182C9.9095 9.98088 9.58293 9.98088 9.38235 10.182Z" fill="#F7B928"/>
</svg>
