<svg width="17" height="16" viewBox="0 0 17 16" fill="none" xmlns="http://www.w3.org/2000/svg">
<path d="M15.0423 0H2.4436C1.36768 0 0.5 0.867679 0.5 1.9436V14.0564C0.5 15.1323 1.36768 16 2.4436 16H15.0423C16.1182 16 16.9859 15.1323 16.9859 14.0564V1.9436C16.9859 0.867679 16.1182 0 15.0423 0ZM2.4436 1.00651H4.23102V2.01302C3.88395 2.18655 3.65835 2.55098 3.65835 2.96746C3.65835 3.55748 4.14425 4.04338 4.73427 4.04338C5.3243 4.04338 5.81019 3.55748 5.81019 2.96746C5.81019 2.55098 5.56725 2.2039 5.23753 2.01302V1.00651H8.2397V2.01302C7.89262 2.18655 7.66703 2.55098 7.66703 2.96746C7.66703 3.55748 8.15293 4.04338 8.74295 4.04338C9.33297 4.04338 9.81887 3.55748 9.81887 2.96746C9.81887 2.55098 9.59328 2.2039 9.2462 2.01302V1.00651H12.2484V2.01302C11.9013 2.18655 11.6757 2.55098 11.6757 2.96746C11.6757 3.55748 12.1616 4.04338 12.7516 4.04338C13.3416 4.04338 13.8275 3.55748 13.8275 2.96746C13.8275 2.55098 13.5846 2.2039 13.2549 2.01302V1.00651H15.0423C15.5629 1.00651 15.9794 1.42299 15.9794 1.9436V4.80694H1.50651V1.9436C1.50651 1.42299 1.92299 1.00651 2.4436 1.00651ZM15.0423 14.9935H2.4436C1.92299 14.9935 1.50651 14.577 1.50651 14.0564V5.81345H15.9794V14.0564C15.9794 14.577 15.5629 14.9935 15.0423 14.9935Z" fill="#CDCDCD"/>
<path d="M5.68915 7.63574H3.79761C3.55466 7.63574 3.36377 7.82663 3.36377 8.06958V9.18021C3.36377 9.42316 3.55466 9.61405 3.79761 9.61405H5.68915C5.9321 9.61405 6.12299 9.42316 6.12299 9.18021V8.06958C6.12299 7.82663 5.9321 7.63574 5.68915 7.63574Z" fill="#CDCDCD"/>
<path d="M9.67912 7.63574H7.80493C7.56198 7.63574 7.37109 7.82663 7.37109 8.06958V9.18021C7.37109 9.42316 7.56198 9.61405 7.80493 9.61405H9.69647C9.93942 9.61405 10.1303 9.42316 10.1303 9.18021V8.06958C10.1303 7.82663 9.92207 7.63574 9.67912 7.63574Z" fill="#CDCDCD"/>
<path d="M13.6891 7.63574H11.7976C11.5547 7.63574 11.3638 7.82663 11.3638 8.06958V9.18021C11.3638 9.42316 11.5547 9.61405 11.7976 9.61405H13.6891C13.9321 9.61405 14.123 9.42316 14.123 9.18021V8.06958C14.123 7.82663 13.9321 7.63574 13.6891 7.63574Z" fill="#CDCDCD"/>
<path d="M5.68915 11.1582H3.79761C3.55466 11.1582 3.36377 11.3491 3.36377 11.592V12.7027C3.36377 12.9456 3.55466 13.1365 3.79761 13.1365H5.68915C5.9321 13.1365 6.12299 12.9456 6.12299 12.7027V11.592C6.12299 11.3664 5.9321 11.1582 5.68915 11.1582Z" fill="#CDCDCD"/>
<path d="M9.67912 11.1582H7.80493C7.56198 11.1582 7.37109 11.3491 7.37109 11.592V12.7027C7.37109 12.9456 7.56198 13.1365 7.80493 13.1365H9.69647C9.93942 13.1365 10.1303 12.9456 10.1303 12.7027V11.592C10.1303 11.3664 9.92207 11.1582 9.67912 11.1582Z" fill="#CDCDCD"/>
<path d="M13.6891 11.1582H11.7976C11.5547 11.1582 11.3638 11.3491 11.3638 11.592V12.7027C11.3638 12.9456 11.5547 13.1365 11.7976 13.1365H13.6891C13.9321 13.1365 14.123 12.9456 14.123 12.7027V11.592C14.123 11.3664 13.9321 11.1582 13.6891 11.1582Z" fill="#CDCDCD"/>
</svg>
