<svg width="17" height="20" viewBox="0 0 17 20" fill="none" xmlns="http://www.w3.org/2000/svg">
    <defs>
        <linearGradient id="paint0_linear" x1="8.15381" y1="0" x2="8.15381" y2="20" gradientUnits="userSpaceOnUse">
            <stop stop-color="#FF6961"/>
            <stop offset="1" stop-color="#F9902D"/>
        </linearGradient>
    </defs>

    <path d="M0.271445 9.75391C0.271445 9.75391 1.0616 10.9147 2.7177 11.8973C2.7177 11.8973 1.51828 1.76051 9.33324 0C7.33102 7.34848 11.8801 9.42086 13.5384 5.53852C16.3076 9.23582 14.205 12.4615 14.205 12.4615C15.3405 12.6251 16.2943 11.3846 16.2943 11.3846C16.3029 11.5374 16.3076 11.6912 16.3076 11.8462C16.3077 16.3494 12.6571 20 8.15383 20C3.65059 20 0 16.3494 0 11.8462C0 11.1228 0.0946874 10.4216 0.271445 9.75391Z" fill="url(#paint0_linear)"/>
<path d="M12.4609 13.2515L8.16406 18.3205L8.13836 18.2902L3.86719 13.2515L5.77205 11.3765H10.5561L12.4609 13.2515Z" fill="#00E8F2"/>
<path d="M12.4609 13.2515L8.16406 18.3205V11.3765H10.5561L12.4609 13.2515Z" fill="#00CEF5"/>
<path d="M9.60318 13.2473H6.72461L8.13819 11.4099L8.16389 11.3765L9.60318 13.2473Z" fill="#9CFDFF"/>
<path d="M10.5562 11.3765L9.58252 13.2473H12.4611L10.5562 11.3765Z" fill="#00F8FE"/>
<path d="M5.77212 11.3765L6.74576 13.2473H3.86719L5.77212 11.3765Z" fill="#9CFDFF"/>
<path d="M7.91211 9.72656H8.41565V10.7699H7.91211V9.72656Z" fill="#9CFDFF"/>
<path d="M9.18555 10.7926L9.59382 9.81445L10.0585 10.0085L9.65021 10.9865L9.18555 10.7926Z" fill="#00F8FE"/>
<path d="M6.26953 10.008L6.73419 9.81396L7.14246 10.7921L6.6778 10.986L6.26953 10.008Z" fill="#9CFDFF"/>
<path d="M9.58221 13.2471L8.16391 18.3202L8.13821 18.2284L6.74561 13.2471H9.58221Z" fill="#00F8FE"/>
<path d="M8.16406 9.72656H8.41583V10.7699H8.16406V9.72656Z" fill="#00F8FE"/>
<path d="M9.60335 13.2473H9.58237L8.16406 18.3205V11.3765L9.60335 13.2473Z" fill="#9CFDFF"/>
<path d="M9.60335 13.2473H8.16406V11.3765L9.60335 13.2473Z" fill="#00F8FE"/>

</svg>
