<svg width="98" height="90" viewBox="0 0 98 90" fill="none" xmlns="http://www.w3.org/2000/svg">
<path d="M49.0002 90C47.4948 89.9981 46.0248 89.5432 44.7814 88.6945C26.3619 76.1906 18.3861 67.6172 13.9869 62.257C4.61188 50.8313 0.123599 39.1008 0.250161 26.3977C0.397817 11.8406 12.0767 0 26.2845 0C36.6158 0 43.7713 5.81953 47.9384 10.6664C48.0704 10.8184 48.2335 10.9403 48.4167 11.0238C48.5999 11.1073 48.7988 11.1505 49.0002 11.1505C49.2015 11.1505 49.4004 11.1073 49.5836 11.0238C49.7668 10.9403 49.9299 10.8184 50.0619 10.6664C54.2291 5.81484 61.3845 0 71.7158 0C85.9236 0 97.6025 11.8406 97.7502 26.4C97.8767 39.1055 93.3838 50.8359 84.0134 62.2594C79.6142 67.6195 71.6384 76.193 53.2189 88.6969C51.9753 89.5447 50.5053 89.9988 49.0002 90Z" fill="#FF0000" fill-opacity="0.75"/>
</svg>
