<svg width="24" height="23" viewBox="0 0 24 23" fill="none" xmlns="http://www.w3.org/2000/svg">
<path d="M3.34375 9.00684V20.5303C3.34375 20.7375 3.42606 20.9362 3.57257 21.0827C3.71909 21.2292 3.9178 21.3115 4.125 21.3115H8.8125V14.6709C8.8125 14.3601 8.93596 14.062 9.15573 13.8423C9.3755 13.6225 9.67357 13.499 9.98438 13.499H13.8906C14.2014 13.499 14.4995 13.6225 14.7193 13.8423C14.939 14.062 15.0625 14.3601 15.0625 14.6709V21.3115H19.75C19.9572 21.3115 20.1559 21.2292 20.3024 21.0827C20.4489 20.9362 20.5312 20.7375 20.5312 20.5303V9.00684" stroke="#FF6961" stroke-width="1.5" stroke-linecap="round" stroke-linejoin="round"/>
<path d="M22.875 11.1554L12.4692 1.19446C12.2251 0.936647 11.6543 0.933717 11.4058 1.19446L1 11.1554" stroke="#FF6961" stroke-width="1.5" stroke-linecap="round" stroke-linejoin="round"/>
<path d="M18.9688 7.39551V1.78027H16.625V5.14941" stroke="#FF6961" stroke-width="1.5" stroke-linecap="round" stroke-linejoin="round"/>
</svg>
