<svg width="22" height="18" viewBox="0 0 22 18" fill="none" xmlns="http://www.w3.org/2000/svg">
<path d="M20.375 0H1.625C1.32663 0 1.04048 0.118526 0.829505 0.329505C0.618526 0.540483 0.5 0.826631 0.5 1.125V16.875C0.5 17.1734 0.618526 17.4595 0.829505 17.6705C1.04048 17.8815 1.32663 18 1.625 18H20.375C20.6734 18 20.9595 17.8815 21.1705 17.6705C21.3815 17.4595 21.5 17.1734 21.5 16.875V1.125C21.5 0.826631 21.3815 0.540483 21.1705 0.329505C20.9595 0.118526 20.6734 0 20.375 0ZM14.5447 3.00937C15.0053 2.96717 15.4677 3.06795 15.869 3.29798C16.2703 3.52801 16.5909 3.87612 16.7872 4.29491C16.9836 4.71371 17.0461 5.18284 16.9662 5.63842C16.8864 6.09401 16.668 6.51392 16.341 6.84098C16.0139 7.16804 15.594 7.38636 15.1384 7.46621C14.6828 7.54606 14.2137 7.48356 13.7949 7.28722C13.3761 7.09089 13.028 6.77026 12.798 6.36898C12.5679 5.96771 12.4672 5.50529 12.5094 5.04469C12.5574 4.52107 12.7872 4.0308 13.159 3.659C13.5308 3.2872 14.0211 3.05735 14.5447 3.00937ZM2.5625 16.5C2.41332 16.5 2.27024 16.4407 2.16475 16.3352C2.05926 16.2298 2 16.0867 2 15.9375V11.8298L8.03 6.46875L12.5745 11.0039L7.07984 16.5H2.5625ZM20 15.9375C20 16.0867 19.9407 16.2298 19.8352 16.3352C19.7298 16.4407 19.5867 16.5 19.4375 16.5H9.20141L16.2106 9.49078L20 12.6488V15.9375Z" fill="#CDCDCD"/>
</svg>
