<svg width="18" height="16" viewBox="0 0 18 16" fill="none" xmlns="http://www.w3.org/2000/svg">
<path fill-rule="evenodd" clip-rule="evenodd" d="M14.5679 4.00419H16.4939C17.2139 4.00419 17.7899 4.59819 17.7899 5.31819V13.7782C17.7899 14.4982 17.2139 15.0742 16.4939 15.0742H5.36985C4.64985 15.0742 4.07385 14.4982 4.07385 13.7782V12.9862L3.02985 13.0942H2.88585C2.21985 13.0942 1.66185 12.5902 1.58985 11.9242L0.707851 3.51819C0.617851 2.81619 1.13985 2.16819 1.85985 2.09619L12.9479 0.908189C13.2899 0.872189 13.6319 0.980189 13.9019 1.19619C14.1719 1.41219 14.3339 1.73619 14.3699 2.07819L14.5679 4.00419ZM4.05588 11.9242V5.3182C4.05588 4.5982 4.63188 4.0042 5.35188 4.0042H13.5059L13.3079 2.1862C13.2899 2.0962 13.2539 2.0422 13.2179 2.0242C13.2123 2.02141 13.2063 2.0182 13.1999 2.01475C13.1647 1.99592 13.1167 1.9702 13.0559 1.9702H13.0379L1.96788 3.1402C1.87788 3.1582 1.82388 3.1942 1.80588 3.2302L1.79788 3.24553C1.77895 3.28117 1.75188 3.33215 1.75188 3.4102L2.63388 11.8342C2.63388 11.9602 2.77788 12.0682 2.90388 12.0502L4.05588 11.9242ZM16.7279 13.7782C16.7279 13.9222 16.6199 14.0302 16.4759 14.0302H5.35187C5.20787 14.0302 5.09987 13.9222 5.09987 13.7782V10.1422L7.22387 8.01819C7.45787 7.78419 7.83587 7.78419 8.06987 8.01819L12.3359 12.2842C12.4439 12.3922 12.5699 12.4462 12.7139 12.4462C12.8579 12.4462 12.9839 12.3922 13.0919 12.2842C13.2899 12.0862 13.2899 11.7442 13.0919 11.5462L12.6239 11.0782L13.7219 9.98019C13.7579 9.94419 13.8299 9.94419 13.8659 9.98019L16.7279 12.8602V13.7782ZM14.6039 9.24219L16.7279 11.3662V5.31819C16.7279 5.17419 16.6199 5.06619 16.4759 5.06619H5.35187C5.20787 5.06619 5.09987 5.17419 5.09987 5.31819V8.64819L6.48587 7.28019C6.79187 6.97419 7.20587 6.79419 7.65587 6.79419C8.10587 6.79419 8.51987 6.97419 8.82587 7.28019L11.8859 10.3402L12.9659 9.24219C13.4159 8.79219 14.1539 8.79219 14.6039 9.24219Z" fill="#45B4E7"/>
<circle cx="14.3339" cy="7.02802" r="1.008" fill="#45B4E7"/>
</svg>
