<svg width="14" height="21" viewBox="0 0 14 21" fill="none" xmlns="http://www.w3.org/2000/svg">
<path d="M6.52632 17.9947C7.01053 17.9947 7.47368 17.7632 7.74737 17.3632C9.72632 14.6263 13.0526 9.63684 13.0526 7.02632C13.0526 3.42632 10.1263 0.5 6.52632 0.5C2.92632 0.5 0 3.42632 0 7.02632C0 9.63684 3.32632 14.6263 5.28421 17.3632C5.57895 17.7632 6.04211 17.9947 6.52632 17.9947ZM6.52632 1.36316C9.64211 1.36316 12.1895 3.91053 12.1895 7.02632C12.1895 7.84737 11.6842 10.4368 7.05263 16.8579C6.92632 17.0263 6.73684 17.1316 6.52632 17.1316C6.31579 17.1316 6.12632 17.0263 6 16.8579C1.36842 10.4368 0.863158 7.84737 0.863158 7.02632C0.863158 3.91053 3.41053 1.36316 6.52632 1.36316Z" fill="#CDCDCD"/>
<path d="M9.6 7.02583C9.6 5.32057 8.21053 3.95215 6.52632 3.95215C4.84211 3.95215 3.45264 5.34162 3.45264 7.02583C3.45264 8.71004 4.82106 10.0995 6.52632 10.0995C8.23158 10.0995 9.6 8.71004 9.6 7.02583ZM4.31579 7.02583C4.31579 5.80478 5.30527 4.81531 6.52632 4.81531C7.74737 4.81531 8.73685 5.80478 8.73685 7.02583C8.73685 8.24689 7.74737 9.23636 6.52632 9.23636C5.30527 9.23636 4.31579 8.24689 4.31579 7.02583Z" fill="#CDCDCD"/>
<path d="M11.1787 15.3845C10.9682 15.2582 10.7156 15.3424 10.5893 15.553C10.4629 15.7635 10.5472 16.0161 10.7577 16.1424C11.4314 16.5214 11.8103 16.9845 11.8103 17.4267C11.8103 17.953 11.284 18.4793 10.3998 18.9003C9.38926 19.3635 8.02084 19.6372 6.54716 19.6372C3.45242 19.6372 1.284 18.4793 1.284 17.4267C1.284 16.9845 1.66295 16.5214 2.33663 16.1424C2.54716 16.0161 2.61032 15.7635 2.50505 15.553C2.37874 15.3424 2.1261 15.2793 1.91558 15.3845C0.96821 15.9319 0.441895 16.6477 0.441895 17.4267C0.441895 19.153 3.13663 20.5003 6.56821 20.5003C9.99979 20.5003 12.6945 19.153 12.6945 17.4267C12.6524 16.6688 12.1261 15.9319 11.1787 15.3845Z" fill="#CDCDCD"/>
</svg>
