<svg width="24" height="24" viewBox="0 0 24 24" fill="none" xmlns="http://www.w3.org/2000/svg">
<path d="M12 21.75C6.62391 21.75 2.25 17.3761 2.25 12C2.25 6.62391 6.62391 2.25 12 2.25C17.3761 2.25 21.75 6.62391 21.75 12C21.75 17.3761 17.3761 21.75 12 21.75ZM12 3.75C7.45312 3.75 3.75 7.45312 3.75 12C3.75 16.5469 7.45312 20.25 12 20.25C16.5469 20.25 20.25 16.5492 20.25 12C20.25 7.45078 16.5492 3.75 12 3.75Z" fill="#CDCDCD"/>
<path d="M15.1722 13.6875C14.3566 13.6875 13.5686 13.3256 12.9531 12.6689C12.3443 12.0086 11.9804 11.1595 11.9219 10.2633C11.853 9.29297 12.1506 8.4 12.76 7.74984C13.3694 7.09969 14.2211 6.75 15.1722 6.75C16.1163 6.75 16.9708 7.10719 17.5783 7.75594C18.1858 8.40469 18.4909 9.30281 18.422 10.2642C18.3624 11.1599 17.9986 12.0083 17.3908 12.6689C16.7748 13.3256 15.9873 13.6875 15.1722 13.6875Z" fill="#CDCDCD"/>
<path d="M7.67931 13.8444C6.28431 13.8444 5.0576 12.5549 4.9451 10.9696C4.88744 10.1577 5.13963 9.40723 5.65619 8.85645C6.17275 8.30566 6.88525 8.0127 7.67884 8.0127C8.47243 8.0127 9.18446 8.31457 9.69775 8.86301C10.211 9.41145 10.4712 10.1671 10.4126 10.9724C10.2982 12.5554 9.07197 13.8444 7.67931 13.8444Z" fill="#CDCDCD"/>
<path d="M19.7048 16.6541C19.6302 16.4337 19.4488 16.1989 19.0851 15.9762C17.9854 15.3045 16.6326 14.9492 15.172 14.9492C13.739 14.9492 12.3487 15.3195 11.2565 15.9922C10.026 16.7502 9.19914 17.8555 8.86586 19.1881C8.78711 19.5017 8.67227 20.0853 8.79508 20.412C10.7659 21.1615 12.9372 21.1959 14.9308 20.5092C16.9244 19.8225 18.614 18.4583 19.7052 16.6541H19.7048Z" fill="#CDCDCD"/>
<path d="M7.67021 18.8146C8.00161 17.4923 8.70708 16.3898 9.80161 15.4982C9.85336 15.4556 9.8927 15.3998 9.91555 15.3367C9.93839 15.2736 9.94391 15.2056 9.93151 15.1397C9.91911 15.0737 9.88925 15.0123 9.84505 14.9619C9.80085 14.9114 9.74392 14.8737 9.6802 14.8528C9.1177 14.6732 8.47552 14.5771 7.67911 14.5771C6.56255 14.5771 5.37708 14.8795 4.48505 15.4289C4.23192 15.585 3.98349 15.645 3.79224 15.6984C4.56008 17.3955 5.83345 18.8139 7.43817 19.7596L7.52208 19.7531C7.54043 19.4362 7.59004 19.1218 7.67021 18.8146Z" fill="#CDCDCD"/>
</svg>
