<svg width="18" height="18" viewBox="0 0 18 18" fill="none" xmlns="http://www.w3.org/2000/svg">
<path d="M5.415 10.83C4.63415 10.83 4 10.1959 4 9.415C4 8.63415 4.63415 8 5.415 8C6.19585 8 6.83 8.63415 6.83 9.415C6.83 10.1959 6.19349 10.83 5.415 10.83ZM5.415 8.69094C5.01511 8.69094 4.69094 9.01511 4.69094 9.415C4.69094 9.81489 5.01511 10.1391 5.415 10.1391C5.81489 10.1391 6.13906 9.81489 6.13906 9.415C6.13906 9.01511 5.81253 8.69094 5.415 8.69094Z" fill="#4D4D4D"/>
<path d="M8.91109 10.83C8.13024 10.83 7.49609 10.1959 7.49609 9.415C7.49609 8.63415 8.13024 8 8.91109 8C9.69195 8 10.3261 8.63415 10.3261 9.415C10.3261 10.1959 9.69195 10.83 8.91109 10.83ZM8.91109 8.69094C8.5112 8.69094 8.18703 9.01511 8.18703 9.415C8.18703 9.81489 8.5112 10.1391 8.91109 10.1391C9.31099 10.1391 9.63516 9.81489 9.63516 9.415C9.63516 9.01511 9.31099 8.69094 8.91109 8.69094Z" fill="#4D4D4D"/>
<path d="M12.4082 10.83C11.6273 10.83 10.9932 10.1959 10.9932 9.415C10.9932 8.63415 11.6273 8 12.4082 8C13.189 8 13.8232 8.63415 13.8232 9.415C13.8232 10.1959 13.189 10.83 12.4082 10.83ZM12.4082 8.69094C12.0083 8.69094 11.6841 9.01511 11.6841 9.415C11.6841 9.81489 12.0083 10.1391 12.4082 10.1391C12.8081 10.1391 13.1322 9.81489 13.1322 9.415C13.1322 9.01511 12.8081 8.69094 12.4082 8.69094Z" fill="#4D4D4D"/>
<path d="M1.49054 12.1728L1.4906 12.1729C1.90193 13.1421 2.48946 14.0148 3.23734 14.7627C3.98507 15.5104 4.85629 16.0996 5.82732 16.5095C6.8326 16.935 7.90026 17.15 9 17.15C10.0998 17.15 11.1675 16.935 12.1728 16.5095L12.1729 16.5094C13.1421 16.0981 14.0148 15.5105 14.7627 14.7627C15.5104 14.0149 16.0996 13.1437 16.5095 12.1727C16.935 11.1674 17.15 10.0997 17.15 9C17.15 7.90022 16.935 6.83251 16.5095 5.82719L16.5094 5.82705C16.0981 4.85793 15.5105 3.98521 14.7627 3.23734C14.015 2.48964 13.1438 1.90047 12.1728 1.49054C11.1675 1.06504 10.0998 0.85 9 0.85C7.90022 0.85 6.83251 1.06504 5.82719 1.49054L5.82705 1.4906C4.85793 1.90193 3.98521 2.48946 3.23734 3.23734C2.48964 3.98503 1.90047 4.85621 1.49054 5.82719C1.06504 6.83251 0.85 7.90022 0.85 9C0.85 10.0998 1.06504 11.1675 1.49054 12.1728ZM1.65172 9C1.65172 4.94824 4.94824 1.65172 9 1.65172C13.0518 1.65172 16.3483 4.94824 16.3483 9C16.3483 13.0518 13.0518 16.3483 9 16.3483C4.94824 16.3483 1.65172 13.0518 1.65172 9Z" fill="#4D4D4D" stroke="#4D4D4D" stroke-width="0.3"/>
</svg>
