<svg width="19" height="20" viewBox="0 0 19 20" fill="none" xmlns="http://www.w3.org/2000/svg">
<path d="M18.4828 9.24141C18.4828 4.13734 14.3455 0 9.24141 0C4.13734 0 0 4.13734 0 9.24141C0 12.8546 2.07237 15.9826 5.09296 17.5013C5.17074 18.1865 5.18556 19.0421 5.01147 19.9774C5.01147 19.9774 7.77093 20.3033 9.30623 18.481C14.3807 18.4476 18.4828 14.3233 18.4828 9.24141Z" fill="#4D4D4D"/>
<path d="M9.15446 8.35365C8.72032 7.88611 8.32847 7.46087 7.901 7C10.192 7.09574 12.3939 7.45196 14.4822 8.37146C13.1976 10.3329 11.461 11.7756 9.45503 12.92C9.59529 12.3411 9.73333 11.769 9.89808 11.0966C8.18153 11.1611 6.61191 11.2213 5.04453 11.2791C5.02894 11.2324 5.01336 11.1856 5 11.1389C6.34697 10.2372 7.69394 9.33327 9.15446 8.35365Z" fill="white"/>
</svg>
