<svg width="16" height="14" viewBox="0 0 16 14" fill="none" xmlns="http://www.w3.org/2000/svg">
<mask id="path-1-inside-1" fill="white">
<path d="M7.9999 13.75C7.77409 13.7497 7.55359 13.6815 7.36709 13.5542C4.60416 11.6786 3.40779 10.3926 2.74791 9.58855C1.34166 7.87469 0.668418 6.11512 0.687402 4.20965C0.709551 2.02609 2.46139 0.25 4.59256 0.25C6.14225 0.25 7.21557 1.12293 7.84064 1.84996C7.86044 1.87276 7.88491 1.89104 7.91238 1.90357C7.93986 1.9161 7.9697 1.92258 7.9999 1.92258C8.0301 1.92258 8.05994 1.9161 8.08742 1.90357C8.11489 1.89104 8.13936 1.87276 8.15916 1.84996C8.78424 1.12223 9.85756 0.25 11.4072 0.25C13.5384 0.25 15.2903 2.02609 15.3124 4.21C15.3314 6.11582 14.6574 7.87539 13.2519 9.58891C12.592 10.3929 11.3956 11.6789 8.63271 13.5545C8.44617 13.6817 8.22567 13.7498 7.9999 13.75Z"/>
</mask>
<path d="M7.36709 13.5542L7.93085 12.7282L7.92874 12.7268L7.36709 13.5542ZM2.74791 9.58855L1.97484 10.2229L1.97492 10.223L2.74791 9.58855ZM0.687402 4.20965L-0.312546 4.19951L-0.312548 4.19969L0.687402 4.20965ZM7.84064 1.84996L7.08236 2.50191L7.08564 2.50569L7.84064 1.84996ZM8.15916 1.84996L8.91417 2.5057L8.91774 2.50154L8.15916 1.84996ZM15.3124 4.21L16.3124 4.20004L16.3123 4.19986L15.3124 4.21ZM13.2519 9.58891L14.0249 10.2233L14.0251 10.2231L13.2519 9.58891ZM8.63271 13.5545L8.07106 12.7272L8.06941 12.7283L8.63271 13.5545ZM8.00116 12.75C7.97608 12.75 7.95158 12.7424 7.93085 12.7282L6.80333 14.3801C7.15561 14.6206 7.57211 14.7495 7.99864 14.75L8.00116 12.75ZM7.92874 12.7268C5.23893 10.9009 4.11536 9.67845 3.5209 8.95414L1.97492 10.223C2.70022 11.1067 3.96939 12.4563 6.80544 14.3816L7.92874 12.7268ZM3.52098 8.95424C2.23829 7.39096 1.67108 5.85328 1.68735 4.21961L-0.312548 4.19969C-0.334241 6.37696 0.445026 8.35841 1.97484 10.2229L3.52098 8.95424ZM1.68735 4.21979C1.70417 2.56192 3.03206 1.25 4.59256 1.25V-0.75C1.89071 -0.75 -0.285066 1.49027 -0.312546 4.19951L1.68735 4.21979ZM4.59256 1.25C5.73259 1.25 6.55352 1.88679 7.08237 2.5019L8.59892 1.19802C7.87761 0.359072 6.5519 -0.75 4.59256 -0.75V1.25ZM7.08564 2.50569C7.19932 2.63657 7.33977 2.74152 7.49749 2.81344L8.32728 0.9937C8.43005 1.04056 8.52157 1.10895 8.59564 1.19424L7.08564 2.50569ZM7.49749 2.81344C7.65521 2.88536 7.82655 2.92258 7.9999 2.92258V0.922582C8.11286 0.922582 8.2245 0.946836 8.32728 0.9937L7.49749 2.81344ZM7.9999 2.92258C8.17325 2.92258 8.34459 2.88536 8.50231 2.81344L7.67252 0.9937C7.7753 0.946834 7.88694 0.922582 7.9999 0.922582V2.92258ZM8.50231 2.81344C8.66004 2.74151 8.80049 2.63656 8.91416 2.50569L7.40416 1.19424C7.47823 1.10896 7.56974 1.04057 7.67252 0.9937L8.50231 2.81344ZM8.91774 2.50154C9.44613 1.88637 10.267 1.25 11.4072 1.25V-0.75C9.44814 -0.75 8.12234 0.358086 7.40058 1.19839L8.91774 2.50154ZM11.4072 1.25C12.9677 1.25 14.2956 2.56186 14.3125 4.22014L16.3123 4.19986C16.2849 1.49033 14.1091 -0.75 11.4072 -0.75V1.25ZM14.3125 4.21996C14.3287 5.85382 13.7609 7.39157 12.4787 8.9547L14.0251 10.2231C15.554 8.35921 16.334 6.37782 16.3124 4.20004L14.3125 4.21996ZM12.4789 8.95449C11.8844 9.6788 10.7609 10.9012 8.07106 12.7272L9.19437 14.3819C12.0304 12.4567 13.2996 11.1071 14.0249 10.2233L12.4789 8.95449ZM8.06941 12.7283C8.04868 12.7424 8.02418 12.75 7.9991 12.75L8.00071 14.75C8.42717 14.7497 8.84366 14.621 9.19602 14.3808L8.06941 12.7283Z" fill="black" mask="url(#path-1-inside-1)"/>
</svg>
