<svg width="19" height="23" viewBox="0 0 19 23" fill="none" xmlns="http://www.w3.org/2000/svg">
<path d="M1.68478 11.4726L1.68463 11.4723L1.68449 11.4721L1.68449 11.4721L1.68428 11.4718L1.68407 11.4715L1.0684 10.567L0.788093 11.626C0.600445 12.3348 0.5 13.079 0.5 13.8462C0.5 18.6256 4.37444 22.5 9.15383 22.5C13.9332 22.5 17.8077 18.6256 17.8076 13.8462C17.8076 13.681 17.8025 13.5178 17.7936 13.3567L17.7186 12.0124L16.8988 13.0787L16.8985 13.079L16.8983 13.0793L16.8983 13.0794L16.8981 13.0796L16.898 13.0798L16.8935 13.0854C16.8885 13.0916 16.8802 13.1018 16.8687 13.1155C16.8457 13.1428 16.8101 13.1836 16.7636 13.233C16.6699 13.3325 16.5355 13.4625 16.3726 13.5866C16.276 13.6601 16.176 13.7267 16.0738 13.7832C16.2041 13.4258 16.3316 12.977 16.4052 12.4566C16.601 11.0727 16.4115 9.20534 14.9386 7.23877L14.419 6.54508L14.0785 7.34212C13.6998 8.22895 13.1878 8.70163 12.7238 8.8765C12.2785 9.04436 11.8087 8.96651 11.3912 8.60348C10.5195 7.84567 9.83057 5.74687 10.8157 2.13144L11.0341 1.32958L10.2234 1.51222C6.05684 2.45083 4.31004 5.63875 3.60931 8.48949C3.25887 9.91517 3.16233 11.278 3.15242 12.281C3.15012 12.514 3.15249 12.7282 3.1575 12.92C2.77256 12.629 2.46427 12.3457 2.23073 12.1073C2.04089 11.9135 1.90109 11.7499 1.81028 11.6371C1.7649 11.5807 1.73183 11.5371 1.71094 11.5088C1.7005 11.4947 1.69311 11.4843 1.68875 11.4782L1.68478 11.4726Z" stroke="#FE7453"/>
<path d="M13.4609 15.2515L9.16406 20.3205L9.13836 20.2902L4.86719 15.2515L6.77205 13.3765H11.5561L13.4609 15.2515Z" fill="#00E8F2"/>
<path d="M13.4609 15.2515L9.16406 20.3205V13.3765H11.5561L13.4609 15.2515Z" fill="#00CEF5"/>
<path d="M10.6032 15.2473H7.72461L9.13819 13.4099L9.16389 13.3765L10.6032 15.2473Z" fill="#9CFDFF"/>
<path d="M11.5562 13.3765L10.5825 15.2473H13.4611L11.5562 13.3765Z" fill="#00F8FE"/>
<path d="M6.77212 13.3765L7.74576 15.2473H4.86719L6.77212 13.3765Z" fill="#9CFDFF"/>
<path d="M8.91211 11.7266H9.41565V12.7699H8.91211V11.7266Z" fill="#9CFDFF"/>
<path d="M10.1855 12.7926L10.5938 11.8145L11.0585 12.0085L10.6502 12.9865L10.1855 12.7926Z" fill="#00F8FE"/>
<path d="M7.26953 12.008L7.73419 11.814L8.14246 12.7921L7.6778 12.986L7.26953 12.008Z" fill="#9CFDFF"/>
<path d="M10.5822 15.2471L9.16391 20.3202L9.13821 20.2284L7.74561 15.2471H10.5822Z" fill="#00F8FE"/>
<path d="M9.16406 11.7266H9.41583V12.7699H9.16406V11.7266Z" fill="#00F8FE"/>
<path d="M10.6033 15.2473H10.5824L9.16406 20.3205V13.3765L10.6033 15.2473Z" fill="#9CFDFF"/>
<path d="M10.6033 15.2473H9.16406V13.3765L10.6033 15.2473Z" fill="#00F8FE"/>
</svg>
