<svg width="30" height="30" viewBox="0 0 30 30" fill="none" xmlns="http://www.w3.org/2000/svg">
<circle cx="15" cy="15" r="15" fill="#CDCDCD" fill-opacity="0.2"/>
<path d="M19.667 13.7564C19.669 12.9801 19.5171 12.2111 19.22 11.4939C18.923 10.7767 18.4866 10.1255 17.9362 9.57807C15.6321 7.27401 11.8835 7.27395 9.57935 9.57807L9.57931 9.57811C8.49509 10.6631 7.87523 12.1271 7.85075 13.6608C7.82628 15.1944 8.39911 16.6775 9.44816 17.7965C10.4972 18.9155 11.9403 19.5828 13.4723 19.6572C14.9575 19.7294 16.4134 19.239 17.5511 18.2871L21.3703 22.1061L21.4764 22.2121L21.5825 22.1061L22.1074 21.5811L22.2135 21.475L22.1074 21.3689L18.2887 17.5502C19.1814 16.4897 19.6708 15.1457 19.667 13.7564ZM19.667 13.7564C19.667 13.7563 19.667 13.7562 19.667 13.756L19.517 13.7564L19.667 13.7568C19.667 13.7567 19.667 13.7566 19.667 13.7564ZM10.3164 17.1978C9.86451 16.7459 9.50603 16.2093 9.26145 15.6189C9.01688 15.0284 8.89099 14.3956 8.891 13.7564C8.891 12.4657 9.40375 11.2278 10.3165 10.3151C11.2292 9.40241 12.467 8.88967 13.7578 8.88967C15.0485 8.88967 16.2864 9.40242 17.1991 10.3151C19.0966 12.2126 19.0966 15.3003 17.1991 17.1978C15.3017 19.0952 12.2139 19.0953 10.3164 17.1978L10.2104 17.3038L10.3164 17.1978Z" fill="#4D4D4D" stroke="#4D4D4D" stroke-width="0.3"/>
</svg>
