<svg width="16" height="16" viewBox="0 0 16 16" fill="none" xmlns="http://www.w3.org/2000/svg">
<path d="M12.667 6.75643C12.669 5.98013 12.5171 5.21113 12.22 4.49392C11.923 3.77671 11.4866 3.12553 10.9362 2.57807C8.63212 0.274009 4.88351 0.273945 2.57935 2.57807L2.57931 2.57811C1.49509 3.66308 0.875228 5.12712 0.850753 6.66078C0.826279 8.19444 1.39911 9.67752 2.44816 10.7965C3.49722 11.9155 4.94028 12.5828 6.47232 12.6572C7.95747 12.7294 9.41341 12.239 10.5511 11.2871L14.3703 15.1061L14.4764 15.2121L14.5825 15.1061L15.1074 14.5811L15.2135 14.475L15.1074 14.3689L11.2887 10.5502C12.1814 9.48965 12.6708 8.14571 12.667 6.75643ZM12.667 6.75643C12.667 6.75629 12.667 6.75616 12.667 6.75602L12.517 6.75644L12.667 6.75684C12.667 6.75671 12.667 6.75657 12.667 6.75643ZM3.31644 10.1978C2.86451 9.74586 2.50603 9.20935 2.26145 8.61888C2.01688 8.02842 1.89099 7.39556 1.891 6.75644C1.891 5.46569 2.40375 4.22781 3.31645 3.31511C4.22915 2.40241 5.46704 1.88967 6.75779 1.88967C8.04854 1.88967 9.28643 2.40242 10.1991 3.31512C12.0966 5.21258 12.0966 8.3003 10.1991 10.1978C8.30167 12.0952 5.21389 12.0953 3.31644 10.1978L3.21037 10.3038L3.31644 10.1978Z" fill="#4D4D4D" stroke="#4D4D4D" stroke-width="0.3"/>
</svg>
