<svg width="24" height="24" viewBox="0 0 24 24" fill="none" xmlns="http://www.w3.org/2000/svg">
<path d="M13.7154 19.1146L8.09044 4.11456C8.01675 3.91798 7.88481 3.74857 7.71226 3.62898C7.5397 3.50939 7.33476 3.44531 7.12482 3.44531C6.91488 3.44531 6.70993 3.50939 6.53738 3.62898C6.36483 3.74857 6.23289 3.91798 6.15919 4.11456L0.534194 19.1146C0.44116 19.37 0.452748 19.6518 0.566439 19.8988C0.680129 20.1457 0.886724 20.3378 1.14128 20.4331C1.39584 20.5285 1.67778 20.5196 1.92575 20.4082C2.17373 20.2968 2.36769 20.092 2.46544 19.8383L4.16044 15.3186C4.16712 15.3008 4.17909 15.2853 4.19475 15.2745C4.21041 15.2636 4.22902 15.2577 4.2481 15.2577H10.0015C10.0206 15.2577 10.0392 15.2636 10.0549 15.2745C10.0705 15.2853 10.0825 15.3008 10.0892 15.3186L11.7842 19.8383C11.8819 20.092 12.0759 20.2968 12.3239 20.4082C12.5719 20.5196 12.8538 20.5285 13.1084 20.4331C13.3629 20.3378 13.5695 20.1457 13.6832 19.8988C13.7969 19.6518 13.8085 19.37 13.7154 19.1146ZM5.00419 13.0677L7.03716 7.64659C7.04391 7.62881 7.05591 7.61349 7.07156 7.60268C7.08722 7.59188 7.1058 7.58609 7.12482 7.58609C7.14384 7.58609 7.16242 7.59188 7.17807 7.60268C7.19373 7.61349 7.20573 7.62881 7.21248 7.64659L9.24544 13.0686C9.25074 13.0828 9.25253 13.098 9.25065 13.113C9.24878 13.128 9.24331 13.1424 9.23469 13.1548C9.22608 13.1672 9.21459 13.1774 9.2012 13.1844C9.18781 13.1915 9.17291 13.1952 9.15779 13.1952H5.09185C5.07673 13.1952 5.06183 13.1915 5.04844 13.1844C5.03505 13.1774 5.02356 13.1672 5.01494 13.1548C5.00633 13.1424 5.00086 13.128 4.99898 13.113C4.99711 13.098 4.9989 13.0828 5.00419 13.0686V13.0677Z" fill="#CDCDCD"/>
<path d="M18.7861 7.94544C16.8305 7.93138 15.0792 9.06435 14.333 10.8236C14.2261 11.0753 14.2235 11.3592 14.3259 11.6128C14.4283 11.8665 14.6273 12.069 14.8791 12.1759C15.1308 12.2828 15.4147 12.2854 15.6683 12.1829C15.9219 12.0805 16.1245 11.8816 16.2314 11.6298C16.6477 10.6506 17.6269 10.0154 18.7308 10.0079C20.2458 9.99763 21.4688 11.2501 21.4688 12.7665C21.4688 12.7848 21.4617 12.8023 21.449 12.8154C21.4363 12.8286 21.419 12.8362 21.4008 12.8368C20.3733 12.8654 19.1545 12.9339 18.067 13.0618C15.5006 13.3637 13.9688 14.7629 13.9688 16.8048C13.9688 17.8918 14.3794 18.8673 15.1252 19.5554C15.825 20.2 16.7812 20.5548 17.8125 20.5548C19.2656 20.5548 20.5167 20.1798 21.4659 19.4664H21.4688C21.4682 19.6018 21.4943 19.736 21.5455 19.8614C21.5968 19.9867 21.6723 20.1007 21.7676 20.1969C21.863 20.2931 21.9763 20.3695 22.1012 20.4219C22.2261 20.4742 22.3601 20.5015 22.4955 20.5021C22.631 20.5027 22.7652 20.4766 22.8905 20.4253C23.0159 20.374 23.1299 20.2985 23.2261 20.2032C23.3222 20.1078 23.3987 19.9945 23.451 19.8696C23.5034 19.7447 23.5307 19.6107 23.5312 19.4753V12.7722C23.5312 10.1387 21.4219 7.96466 18.7861 7.94544ZM17.8125 18.4923C16.9908 18.4923 16.0312 18.0503 16.0312 16.8048C16.0312 16.3047 16.2108 15.9545 16.6139 15.669C17.0062 15.3911 17.6077 15.1928 18.308 15.1103C19.298 14.9936 20.4089 14.9293 21.3614 14.9008C21.3741 14.9007 21.3867 14.9033 21.3984 14.9083C21.4101 14.9133 21.4206 14.9206 21.4294 14.9299C21.4382 14.9391 21.445 14.95 21.4494 14.9619C21.4538 14.9738 21.4558 14.9865 21.4552 14.9992C21.3281 17.3486 20.1309 18.4923 17.8125 18.4923Z" fill="#CDCDCD"/>
</svg>
