<svg width="40" height="40" viewBox="0 0 40 40" fill="none" xmlns="http://www.w3.org/2000/svg">
<circle cx="20" cy="20" r="20" fill="#F99023"/>
<path d="M20 10C14.475 10 10 14.475 10 20C10 25.525 14.475 30 20 30C25.525 30 30 25.525 30 20C30 14.475 25.525 10 20 10ZM12 20C12 15.58 15.58 12 20 12C21.8501 12 23.5451 12.635 24.9 13.685L13.685 24.9C12.635 23.545 12 21.85 12 20ZM20 28C18.15 28 16.455 27.365 15.1 26.315L26.315 15.1C27.365 16.455 28 18.15 28 20C28 24.42 24.42 28 20 28Z" fill="white"/>
</svg>
