<svg width="40" height="40" viewBox="0 0 40 40" fill="none" xmlns="http://www.w3.org/2000/svg">
<circle cx="20" cy="20" r="20" fill="#F7B921"/>
<path d="M28.1151 11.8848C25.602 9.3717 21.513 9.37174 18.9999 11.8849C17.2833 13.6015 16.6871 16.1312 17.4303 18.4263L10.1717 25.685C10.0618 25.7949 10 25.9436 10 26.0993V29.4141C10 29.7379 10.2621 30 10.5859 30H13.9007C14.0563 30 14.2051 29.9382 14.315 29.8283L15.1435 28.9992C15.27 28.8727 15.3318 28.6954 15.3112 28.5174L15.2082 27.627L16.4418 27.5109C16.7222 27.4845 16.9437 27.2631 16.97 26.9827L17.0862 25.749L17.9765 25.8526C18.1419 25.8749 18.3084 25.8194 18.4337 25.7084C18.5584 25.5968 18.63 25.4377 18.63 25.2707V24.1797H19.7011C19.8567 24.1797 20.0055 24.1179 20.1154 24.008L21.618 22.5253C23.9125 23.2691 26.3985 22.7178 28.1151 21C30.6282 18.487 30.6282 14.3979 28.1151 11.8848ZM26.4575 16.0282C25.772 16.7137 24.6573 16.7137 23.9718 16.0282C23.2863 15.3427 23.2863 14.228 23.9718 13.5425C24.6573 12.857 25.772 12.857 26.4575 13.5425C27.143 14.228 27.143 15.3427 26.4575 16.0282Z" fill="white"/>
</svg>
