<svg width="40" height="40" viewBox="0 0 40 40" fill="none" xmlns="http://www.w3.org/2000/svg">
<circle cx="20" cy="20" r="20" fill="#FF6961"/>
<path d="M28.4828 18.6516L28.3945 18.277H20.2523V21.723H25.1172C24.6121 24.1215 22.2684 25.384 20.3539 25.384C18.9609 25.384 17.4926 24.798 16.5207 23.8562C16.0079 23.3514 15.5998 22.7504 15.3196 22.0876C15.0394 21.4248 14.8927 20.7133 14.8879 19.9937C14.8879 18.5422 15.5402 17.0902 16.4895 16.1352C17.4387 15.1801 18.8723 14.6457 20.2977 14.6457C21.9301 14.6457 23.1 15.5125 23.5375 15.9078L25.9863 13.4719C25.268 12.8406 23.2945 11.25 20.2188 11.25C17.8457 11.25 15.5703 12.159 13.907 13.8168C12.2656 15.4492 11.416 17.8098 11.416 20C11.416 22.1902 12.2199 24.4328 13.8105 26.0781C15.5102 27.8328 17.9172 28.75 20.3957 28.75C22.6508 28.75 24.7883 27.8664 26.3117 26.2633C27.8094 24.6852 28.584 22.5016 28.584 20.2125C28.584 19.2488 28.4871 18.6766 28.4828 18.6516Z" fill="white"/>
</svg>
