<svg width="40" height="40" viewBox="0 0 40 40" fill="none" xmlns="http://www.w3.org/2000/svg">
<circle cx="20" cy="20" r="20" fill="#149CE0"/>
<path d="M27.784 11.25H12.216C11.9598 11.2501 11.7142 11.3519 11.5331 11.5331C11.3519 11.7142 11.2501 11.9598 11.25 12.216V27.784C11.2501 28.0402 11.3519 28.2858 11.5331 28.4669C11.7142 28.6481 11.9598 28.7499 12.216 28.75H20V21.875H17.9082V19.375H20V17.3828C20 15.1227 21.5676 13.8922 23.5867 13.8922C24.5527 13.8922 25.5918 13.9648 25.8332 13.9969V16.3574H24.2246C23.1262 16.3574 22.9168 16.877 22.9168 17.6426V19.375H25.534L25.1922 21.875H22.9168V28.75H27.784C28.0402 28.7499 28.2858 28.6481 28.4669 28.4669C28.6481 28.2858 28.7499 28.0402 28.75 27.784V12.216C28.7499 11.9598 28.6481 11.7142 28.4669 11.5331C28.2858 11.3519 28.0402 11.2501 27.784 11.25Z" fill="white"/>
</svg>
