<svg width="40" height="40" viewBox="0 0 40 40" fill="none" xmlns="http://www.w3.org/2000/svg">
<circle cx="20" cy="20" r="20" fill="#149CE0"/>
<path d="M22.9938 12.5227C22.2336 11.702 21.1719 11.25 20 11.25C18.8219 11.25 17.7567 11.6992 17 12.5148C16.2352 13.3395 15.8625 14.4602 15.95 15.6703C16.1235 18.0578 17.9403 20 20 20C22.0598 20 23.8735 18.0582 24.0497 15.6711C24.1383 14.4719 23.7633 13.3535 22.9938 12.5227Z" fill="white"/>
<path d="M26.875 28.75H13.125C12.945 28.7523 12.7668 28.7145 12.6032 28.6393C12.4397 28.5641 12.295 28.4534 12.1797 28.3152C11.9258 28.0117 11.8234 27.5973 11.8992 27.1781C12.2289 25.3492 13.2578 23.8129 14.875 22.7344C16.3117 21.777 18.1316 21.25 20 21.25C21.8683 21.25 23.6883 21.7773 25.125 22.7344C26.7422 23.8125 27.7711 25.3488 28.1008 27.1777C28.1765 27.5969 28.0742 28.0113 27.8203 28.3148C27.705 28.4531 27.5603 28.5639 27.3968 28.6391C27.2332 28.7144 27.055 28.7523 26.875 28.75Z" fill="white"/>
</svg>
