<svg width="40" height="41" viewBox="0 0 40 41" fill="none" xmlns="http://www.w3.org/2000/svg">
<ellipse cx="20" cy="20.4545" rx="20" ry="20.4545" fill="#60BB2C"/>
<path d="M20.1778 20.5904C20.1778 20.9159 19.9129 21.1808 19.5873 21.1808C18.8041 21.1483 18.8043 20.0324 19.5873 20C19.9129 20 20.1778 20.2649 20.1778 20.5904Z" fill="white"/>
<path d="M27.9572 14.6091C25.5819 14.6168 23.299 13.5472 21.6807 11.783L20.0331 10C18.6602 11.4773 17.3959 13.0821 15.4951 13.8774C13.6733 14.7418 11.9333 14.6111 10 14.6091C10.1601 19.1009 12.3528 30.1134 20.0331 29.9991C27.7287 30.1022 29.9012 19.0989 30.0661 14.6091H27.9572ZM25.518 21.1773C22.1136 26.4653 17.5371 26.1241 14.3651 20.873C17.7145 15.3768 22.3674 15.3999 25.701 20.873L25.518 21.1773Z" fill="white"/>
<path d="M20.2718 18.0015C18.8446 17.9476 17.0787 19.3624 16 20.9583C18.7713 24.876 21.7802 24.8648 24.5429 20.9591C23.9776 20.149 22.2887 18.0015 20.2718 18.0015ZM20.2718 22.7303C19.2953 22.7303 18.5006 21.936 18.5006 20.9591C18.598 18.6093 21.946 18.61 22.0431 20.9591C22.0431 21.936 21.2484 22.7303 20.2718 22.7303Z" fill="white"/>
</svg>
