<svg width="40" height="40" viewBox="0 0 40 40" fill="none" xmlns="http://www.w3.org/2000/svg">
<circle cx="20" cy="20" r="20" fill="#60BB2C"/>
<path d="M13.3591 12.5001L12.4998 13.3594L26.6405 27.5001L27.4998 26.6408L13.3591 12.5001Z" fill="white"/>
<path d="M20.1304 17.5039L22.4964 19.8699C22.4635 19.2531 22.2037 18.6702 21.7669 18.2334C21.3301 17.7966 20.7472 17.5368 20.1304 17.5039Z" fill="white"/>
<path d="M19.8694 22.4969L17.5034 20.1309C17.5363 20.7477 17.7961 21.3306 18.2329 21.7674C18.6697 22.2042 19.2526 22.464 19.8694 22.4969Z" fill="white"/>
<path d="M20 23.7508C19.4231 23.7508 18.854 23.6177 18.3369 23.3619C17.8198 23.1061 17.3687 22.7344 17.0187 22.2758C16.6687 21.8172 16.4293 21.284 16.319 20.7177C16.2087 20.1515 16.2305 19.5674 16.3828 19.0109L13.6848 16.3125C12.5828 17.3219 11.5328 18.6391 10.625 20.0008C11.657 21.7195 13.0687 23.4867 14.5391 24.5C16.2258 25.6617 18.0598 26.2508 19.9906 26.2508C21.0458 26.2515 22.0931 26.0691 23.0859 25.7117L20.9918 23.618C20.6686 23.7064 20.3351 23.7511 20 23.7508Z" fill="white"/>
<path d="M20 16.25C20.5769 16.25 21.146 16.383 21.6631 16.6389C22.1802 16.8947 22.6313 17.2664 22.9813 17.725C23.3313 18.1836 23.5707 18.7168 23.681 19.2831C23.7913 19.8493 23.7695 20.4334 23.6172 20.9898L26.3773 23.75C27.516 22.7246 28.5676 21.3453 29.375 20C28.3445 18.3035 26.918 16.5406 25.4227 15.5148C23.7148 14.3437 21.8871 13.75 19.9906 13.75C18.947 13.7515 17.9122 13.9406 16.9355 14.3082L19.0102 16.3828C19.3327 16.2945 19.6656 16.2499 20 16.25Z" fill="white"/>
</svg>
