<svg width="40" height="40" viewBox="0 0 40 40" fill="none" xmlns="http://www.w3.org/2000/svg">
<circle cx="20" cy="20" r="20" fill="#39B17D"/>
<path d="M20 28.75C20.6078 28.7494 21.2023 28.5717 21.7108 28.2388C22.2193 27.9058 22.6198 27.4319 22.8633 26.875H17.1367C17.3803 27.4319 17.7807 27.9058 18.2892 28.2388C18.7977 28.5717 19.3922 28.7494 20 28.75Z" fill="white"/>
<path d="M25.625 21.25V18.8855C25.625 16.1328 24.5562 13.7348 21.875 13.125L21.5625 11.25H18.4375L18.125 13.125C15.4344 13.7348 14.375 16.1234 14.375 18.8855V21.25L12.5 23.75V25.625H27.5V23.75L25.625 21.25Z" fill="white"/>
</svg>
