<svg width="40" height="40" viewBox="0 0 40 40" fill="none" xmlns="http://www.w3.org/2000/svg">
<circle cx="20" cy="20" r="20" fill="#FF6961"/>
<path d="M24.25 17.875H23.625V14.75C23.625 13.7554 23.2299 12.8016 22.5267 12.0983C21.8234 11.3951 20.8696 11 19.875 11C18.8804 11 17.9266 11.3951 17.2233 12.0983C16.5201 12.8016 16.125 13.7554 16.125 14.75V17.875H15.5C14.8372 17.8757 14.2017 18.1393 13.733 18.608C13.2643 19.0767 13.0007 19.7122 13 20.375V27.25C13.0007 27.9128 13.2643 28.5483 13.733 29.017C14.2017 29.4857 14.8372 29.7493 15.5 29.75H24.25C24.9128 29.7493 25.5483 29.4857 26.017 29.017C26.4857 28.5483 26.7493 27.9128 26.75 27.25V20.375C26.7493 19.7122 26.4857 19.0767 26.017 18.608C25.5483 18.1393 24.9128 17.8757 24.25 17.875ZM22.375 17.875H17.375V14.75C17.375 14.087 17.6384 13.4511 18.1072 12.9822C18.5761 12.5134 19.212 12.25 19.875 12.25C20.538 12.25 21.1739 12.5134 21.6428 12.9822C22.1116 13.4511 22.375 14.087 22.375 14.75V17.875Z" fill="white"/>
</svg>
