<svg width="40" height="40" viewBox="0 0 40 40" fill="none" xmlns="http://www.w3.org/2000/svg">
<circle cx="20" cy="20" r="20" fill="#F99023"/>
<path d="M26.5625 13.125H13.4375C12.8575 13.1256 12.3015 13.3563 11.8914 13.7664C11.4813 14.1765 11.2506 14.7325 11.25 15.3125V24.6875C11.2506 25.2675 11.4813 25.8235 11.8914 26.2336C12.3015 26.6437 12.8575 26.8744 13.4375 26.875H26.5625C27.1425 26.8744 27.6985 26.6437 28.1086 26.2336C28.5187 25.8235 28.7494 25.2675 28.75 24.6875V15.3125C28.7494 14.7325 28.5187 14.1765 28.1086 13.7664C27.6985 13.3563 27.1425 13.1256 26.5625 13.125ZM26.0086 16.7434L20.3836 21.1184C20.2739 21.2036 20.1389 21.2499 20 21.2499C19.8611 21.2499 19.7261 21.2036 19.6164 21.1184L13.9914 16.7434C13.9253 16.6935 13.8698 16.6309 13.8281 16.5594C13.7864 16.4878 13.7593 16.4087 13.7485 16.3266C13.7376 16.2445 13.7432 16.161 13.7648 16.0811C13.7865 16.0012 13.8238 15.9263 13.8746 15.861C13.9255 15.7956 13.9888 15.741 14.0609 15.7003C14.1331 15.6596 14.2126 15.6336 14.2948 15.6239C14.377 15.6142 14.4604 15.6209 14.54 15.6437C14.6196 15.6665 14.6939 15.7049 14.7586 15.7566L20 19.8332L25.2414 15.7566C25.3725 15.6577 25.5372 15.6143 25.7 15.6358C25.8629 15.6573 26.0107 15.7421 26.1115 15.8718C26.2123 16.0014 26.258 16.1656 26.2387 16.3287C26.2195 16.4918 26.1368 16.6407 26.0086 16.7434Z" fill="white"/>
</svg>
